<?xml version="1.0" encoding="utf-8"?>
<!-- Generator: Adobe Illustrator 16.0.0, SVG Export Plug-In . SVG Version: 6.00 Build 0)  -->
<!DOCTYPE svg PUBLIC "-//W3C//DTD SVG 1.1//EN" "http://www.w3.org/Graphics/SVG/1.1/DTD/svg11.dtd">
<svg version="1.1" id="Layer_1" xmlns="http://www.w3.org/2000/svg" xmlns:xlink="http://www.w3.org/1999/xlink" x="0px" y="0px"
	 width="40px" height="40px" viewBox="0 0 40 40" enable-background="new 0 0 40 40" xml:space="preserve">
<path fill="#26A995" d="M34.145,9.38c2.998,4.519,4.562,10.529,3.896,14.942c-0.621,4.062-3.865,8.542-8.27,11.41
	c-4.517,2.939-9.686,3.834-14.562,2.512c-3.459-0.939-7.25-3.997-9.895-7.98c-1.787-2.699-4.567-8.188-3.086-14.647
	C4.138,7.269,14.258,0.045,22.275,1.302C28.282,2.239,32.045,6.213,34.145,9.38L34.145,9.38z"/>
<path fill="#E5E72A" d="M30.279,12.303c2.175,3.275,3.301,7.633,2.811,10.838c-0.453,2.94-2.814,6.192-6.013,8.278
	c-3.284,2.136-7.034,2.79-10.575,1.837c-2.51-0.683-5.258-2.896-7.174-5.779c-1.295-1.955-3.308-5.938-2.226-10.622
	c1.395-6.05,8.744-11.302,14.57-10.398C26.029,7.128,28.76,10.007,30.279,12.303L30.279,12.303z"/>
<g>
	<path fill="#EF5475" d="M25.639,29.558c0,0.403-11.605,0.861-11.605,0.458l1.049-9.458c0-0.402,9.691-0.005,9.691,0.398
		L25.639,29.558z"/>
	<path fill="#EF5475" d="M28.899,13.211l-3.13-0.528l-1.687-1.536c0-0.404-8.396-0.404-8.396,0l-1.319,1.536
		c0,0-3.395,0.33-3.395,0.733l-0.287,9.887c0,0.37,2.331-0.323,2.331-0.728v-3.437c0-0.403,0.331-0.734,0.734-0.734h12.633
		c0.403,0,0.734,0.331,0.734,0.734l-0.193,3.706c0,0.37,2.386,0.403,2.386,0C29.312,22.845,29.303,13.211,28.899,13.211z"/>
</g>
</svg>
