<?xml version="1.0" encoding="utf-8"?>
<!-- Generator: Adobe Illustrator 16.0.0, SVG Export Plug-In . SVG Version: 6.00 Build 0)  -->
<!DOCTYPE svg PUBLIC "-//W3C//DTD SVG 1.1//EN" "http://www.w3.org/Graphics/SVG/1.1/DTD/svg11.dtd">
<svg version="1.1" id="Layer_1" xmlns="http://www.w3.org/2000/svg" xmlns:xlink="http://www.w3.org/1999/xlink" x="0px" y="0px"
	 width="40px" height="40px" viewBox="0 0 40 40" enable-background="new 0 0 40 40" xml:space="preserve">
<path fill="#26A995" d="M34.145,9.38c2.998,4.519,4.562,10.529,3.896,14.942c-0.621,4.062-3.865,8.542-8.269,11.41
	c-4.517,2.94-9.686,3.834-14.562,2.512c-3.459-0.939-7.25-3.997-9.895-7.98c-1.787-2.699-4.567-8.188-3.086-14.648
	C4.138,7.269,14.258,0.045,22.275,1.302C28.282,2.239,32.045,6.213,34.145,9.38L34.145,9.38z"/>
<path fill="#E5E657" d="M30.279,12.303c2.175,3.275,3.301,7.633,2.811,10.838c-0.453,2.94-2.814,6.192-6.013,8.278
	c-3.284,2.136-7.034,2.79-10.575,1.837c-2.51-0.683-5.258-2.896-7.174-5.779c-1.295-1.955-3.308-5.938-2.226-10.622
	c1.395-6.05,8.744-11.302,14.57-10.398C26.029,7.128,28.76,10.007,30.279,12.303L30.279,12.303z"/>
<g>
	<path fill="#EF5475" d="M12.763,22.576c-0.748-0.668-1.306-1.67-1.391-2.493c-0.077-0.754,0.295-1.708,0.95-2.429
		c0.673-0.739,1.556-1.141,2.491-1.135c0.663,0.008,1.946,6.793,0.451,6.946C14.145,23.579,13.286,23.045,12.763,22.576
		L12.763,22.576z"/>
	<g>
		<path fill="#EF5475" d="M19.051,13.924c-0.76-0.623-1.407-0.741-1.66-0.376c0.179,0.095,2.464,3.051,2.464,6.452
			c0,3.401-2.285,6.359-2.464,6.454c0.253,0.363,0.9,0.245,1.66-0.377c0,0,3.268-2.676,3.268-6.077
			C22.319,16.599,19.051,13.924,19.051,13.924z"/>
		<path fill="#EF5475" d="M23.812,11.03c-1.129-0.924-2.088-1.095-2.457-0.545c0.258,0.139,4.146,4.494,4.146,9.515
			c0,5.022-3.889,9.376-4.146,9.516c0.368,0.55,1.327,0.379,2.457-0.547c0,0,4.826-3.947,4.826-8.969
			C28.639,14.978,23.812,11.03,23.812,11.03z"/>
	</g>
</g>
</svg>
