<?xml version="1.0" encoding="utf-8"?>
<!-- Generator: Adobe Illustrator 16.0.0, SVG Export Plug-In . SVG Version: 6.00 Build 0)  -->
<!DOCTYPE svg PUBLIC "-//W3C//DTD SVG 1.1//EN" "http://www.w3.org/Graphics/SVG/1.1/DTD/svg11.dtd">
<svg version="1.1" id="Layer_1" xmlns="http://www.w3.org/2000/svg" xmlns:xlink="http://www.w3.org/1999/xlink" x="0px" y="0px"
	 width="30px" height="30px" viewBox="5 5 30 30" enable-background="new 5 5 30 30" xml:space="preserve">
<path fill="#EF5475" d="M29.454,12.918c1.999,3.012,3.034,7.02,2.583,9.967c-0.416,2.703-2.588,5.693-5.528,7.611
	c-3.021,1.964-6.469,2.566-9.725,1.69c-2.308-0.628-4.835-2.664-6.597-5.315c-1.191-1.798-3.042-5.459-2.047-9.767
	c1.283-5.563,8.041-10.394,13.398-9.562C25.545,8.16,28.056,10.807,29.454,12.918L29.454,12.918z"/>
<path fill="#E5E657" d="M26.307,24.671c0,1.02-0.836,1.855-1.855,1.855l-9.291,0.877c-1.021,0-1.855-0.836-1.855-1.855l-0.54-11.072
	c0-1.021,0.835-1.855,1.855-1.855l10.758-0.023c1.02,0,1.855,0.834,1.855,1.855L26.307,24.671z"/>
</svg>
