<?xml version="1.0" encoding="utf-8"?>
<!-- Generator: Adobe Illustrator 16.0.0, SVG Export Plug-In . SVG Version: 6.00 Build 0)  -->
<!DOCTYPE svg PUBLIC "-//W3C//DTD SVG 1.1//EN" "http://www.w3.org/Graphics/SVG/1.1/DTD/svg11.dtd">
<svg version="1.1" xmlns="http://www.w3.org/2000/svg" xmlns:xlink="http://www.w3.org/1999/xlink" x="0px" y="0px" width="140px"
	 height="140px" viewBox="0 0 140 140" enable-background="new 0 0 140 140" xml:space="preserve">
<g id="back">
	<animateTransform attributeName="transform"
	            begin="0s" dur="25s"
	            type="rotate"
	            from="0 70 70" to="360 70 70"
	            repeatCount="indefinite" 
				/>
	<path fill="#ADD260" d="M23.766,84.004C15.309,84.391,5.96,82.81,5.075,74.566c-0.607-5.654,2.247-12.89,17.521-13.479
		c-8.749-1.955-18.443-7.222-15.003-17.559c2.864-8.622,14.343-7.456,21.834-2.133c-5.352-3.763-12.145-15.927-4.053-22.179
		c9.268-7.16,16.393,1.371,19.988,7.47c-4.229-8.375,0.52-19.851,8.836-21.164c7.372-1.154,14.336,4.416,15.037,16.385
		c1.969-11.354,7.884-17.081,15.26-15.932c8.312,1.294,11.089,13.131,7.983,21.537c3.729-7.319,12.43-15.061,20.916-8.596
		c7.646,5.831,1.389,17.744-3.956,21.523c7.48-5.338,18.012-5.622,21.515,2.767c3.885,9.299-4.904,16.661-13.207,17.504
		c13.394,0.898,17.238,7.905,17.255,13.567c0.022,8.703-11.014,12.361-19.467,11.986c9.274,2.634,15.819,11.367,10.519,20.025
		c-4.747,7.749-15.567,5.438-21.502-1.574c6.133,6.297,7.741,18.803,0.559,23.02c-10.323,6.059-18.184-3.825-20.87-11.957
		c1.705,9.363-3.585,19.213-12.537,18.839c-9.844-0.411-12.443-9.487-11.783-20.062c-2.091,12.127-12.62,15.457-19.587,12.757
		c-5.964-2.312-9.165-11.914-3.616-23.691c-3.5,4.98-17.026,11.575-23.303,1.109C8.468,96.478,17.572,86.127,23.766,84.004z"/>
</g>
<g id="front">
	<path fill="#EF5475" d="M43.816,27.891c16.253-10.347,50.425-8.647,66.486,14.633c13.406,19.423,8.696,50.885-8.027,64.32
		c-23.785,19.104-58.59,6.406-71.616-9.757C17.618,80.894,17.624,44.565,43.816,27.891z"/>
	<path fill="#E5E657" d="M64.264,50.578c6.032,1.709,25.715,15.302,26.311,19.568c0.596,4.266-19.851,17.968-26.311,18.565
		C57.804,89.308,57.652,48.705,64.264,50.578z"/>
</g>
</svg>
