<?xml version="1.0" encoding="utf-8"?>
<!-- Generator: Adobe Illustrator 16.0.0, SVG Export Plug-In . SVG Version: 6.00 Build 0)  -->
<!DOCTYPE svg PUBLIC "-//W3C//DTD SVG 1.1//EN" "http://www.w3.org/Graphics/SVG/1.1/DTD/svg11.dtd">
<svg version="1.1" id="Layer_1" xmlns="http://www.w3.org/2000/svg" xmlns:xlink="http://www.w3.org/1999/xlink" x="0px" y="0px"
	 width="70px" height="70px" viewBox="0 0 70 70" enable-background="new 0 0 70 70" xml:space="preserve">
<g id="back">
	
		<animateTransform  fill="remove" type="rotate" repeatCount="indefinite" calcMode="linear" restart="always" to="360 35 35" from="0 35 35" additive="replace" dur="2s" accumulate="none" attributeName="transform" begin="0s">
		</animateTransform>
	<path fill="#EF5475" d="M16.89,6.575C28.091-0.556,51.643,0.616,62.711,16.66c9.239,13.387,5.993,35.068-5.531,44.329
		c-16.394,13.165-40.381,4.415-49.358-6.726C-1.166,43.104-1.162,18.067,16.89,6.575z"/>
</g>
<path fill="#E5E657" d="M20.843,12.78c8.756-5.574,27.166-4.658,35.818,7.883c7.223,10.464,4.685,27.414-4.324,34.651
	c-12.813,10.293-31.564,3.451-38.582-5.256C6.729,41.334,6.733,21.763,20.843,12.78z"/>
<path fill="#EA5575" d="M62.499,40.483l-21.855,0.11c-2.34,0-4.271-0.133-4.291-0.17c0,0,0-0.053-0.024-0.082
	c-1.291-1.621-3.165-2.756-4.778-2.851c-1.755-0.1-4.049,0.716-5.708,2.056c-1.161,0.939-2.575,2.555-2.714,4.941
	c-0.194,3.186,3.018,6.885,6.354,7.326c2.583,0.352,4.631-0.943,5.621-1.738c0.444-0.361,0.444-0.363,0.444-0.363
	c0.408-0.452,2.658-0.822,4.997-0.822l22.1-0.018c2.337,0,2.742-4.207,2.742-4.207C65.386,42.329,64.839,40.483,62.499,40.483z
	 M34.946,45.414c-0.144,0.832-0.776,1.787-1.646,2.493c-0.591,0.479-1.819,1.25-3.363,1.042c-1.996-0.264-3.915-2.479-3.801-4.385
	c0.084-1.428,0.93-2.396,1.625-2.959c0.992-0.801,2.364-1.297,3.413-1.238c0.964,0.058,2.085,0.722,2.856,1.691
	C34.821,43.053,35.145,44.243,34.946,45.414z"/>
<path fill="#EA5575" d="M59.487,23.5H33.336c-2.34,0-4.271,0.49-4.291,0.453c0,0,0,0.26-0.025,0.231
	c-1.289-1.621-3.164-2.603-4.777-2.696c-1.755-0.1-4.049,0.797-5.707,2.137c-1.161,0.939-2.575,2.59-2.714,4.977
	c-0.194,3.188,3.017,6.905,6.353,7.347c2.583,0.352,4.631-0.934,5.621-1.729c0.445-0.361,0.445-0.357,0.445-0.357
	c0.407-0.451,2.656-0.822,4.996-0.822l26.396,0.097c2.338,0,2.742-4.833,2.742-4.833C62.374,25.969,61.827,23.5,59.487,23.5z
	 M27.639,29.569c-0.145,0.832-0.776,1.787-1.646,2.492c-0.592,0.48-1.819,1.25-3.363,1.041c-1.996-0.264-3.914-2.477-3.801-4.385
	c0.085-1.426,0.93-2.396,1.626-2.957c0.992-0.801,2.364-1.299,3.413-1.238c0.965,0.057,2.086,0.721,2.855,1.689
	C27.514,27.208,27.837,28.397,27.639,29.569z"/>
</svg>
