<svg xmlns="http://www.w3.org/2000/svg" xmlns:xlink="http://www.w3.org/1999/xlink" version="1.1" id="Layer_1" x="0px" y="0px" width="166.258px" height="129.92px" viewBox="0 0 166.258 129.92" enable-background="new 0 0 166.258 129.92" xml:space="preserve">
  <g>
    <path id="gota_x5F_1" fill="#2DBDB6" d="M35.089 106.195c-2.384 0-5.071-5.253 0-9.019C40.157 100.942 37.474 106.195 35.089 106.195z"/>
	<animate id="animation1" attributeName="opacity" from="0" to="1" dur="2s" begin="0s;animation2.end" />
	    <animate id="animation2" attributeName="opacity"  from="1" to="0" dur="2s" begin="animation1.end" />
    <path id="gota_x5F_2" fill="#FFCB05" d="M59.728 106.195c-2.383 0-5.07-5.253 0-9.019C64.796 100.942 62.111 106.195 59.728 106.195z"/>
    <path id="gota_x5F_3" fill="#F05569" d="M84.369 106.195c-2.385 0-5.071-5.253 0-9.019C89.435 100.942 86.75 106.195 84.369 106.195z"/>
    <path id="gota_x5F_4" fill="#2DBDB6" d="M109.005 106.195c-2.385 0-5.07-5.253 0-9.019C114.075 100.942 111.39 106.195 109.005 106.195z"/>
    <path id="gota_x5F_5" fill="#FFCB05" d="M133.645 106.195c-2.384 0-5.069-5.253 0-9.019C138.712 100.942 136.031 106.195 133.645 106.195z"/>
    <path id="gota_x5F_6" fill="#F05569" d="M47.409 129.92c-2.384 0-5.07-5.253 0-9.019C52.478 124.667 49.793 129.92 47.409 129.92z"/>
    <path id="gota_x5F_7" fill="#2DBDB6" d="M72.046 129.92c-2.384 0-5.068-5.253 0-9.019C77.115 124.667 74.43 129.92 72.046 129.92z"/>
    <path id="gota_x5F_8" fill="#FFCB05" d="M96.686 129.92c-2.383 0-5.069-5.253 0-9.019C101.755 124.667 99.07 129.92 96.686 129.92z"/>
    <path id="gota_x5F_9" fill="#F05569" d="M121.328 129.92c-2.386 0-5.071-5.253 0-9.019C126.394 124.667 123.708 129.92 121.328 129.92z"/>
  </g>
  <g id="nube">
    <path fill="#2DBDB6" d="M164.813 53.544c-3.704-10.277-13.632-16.516-24.006-16.008 2.031-13.229-4.275-26.891-16.728-33.616C108.35-4.577 88.744 1.2 80.103 16.8c-4.809-4.646-11.351-7.509-18.564-7.509C47.501 9.291 36 20.114 34.906 33.872 23.688 30.256 11.005 34.425 4.295 44.79c-8.022 12.391-4.481 28.938 7.909 36.96 4.631 3.001 9.846 4.382 14.981 4.29 0 0.003 114.476 0.003 114.476 0.003 0.175 0.002 0.351 0.001 0.529 0h2.423v-0.145c1.875-0.205 3.756-0.628 5.607-1.296C162.827 80.057 169.359 66.149 164.813 53.544z"/>
	
    <g>
      <path fill="#FFFFFF" d="M47.226 59.918c-0.074 0-0.146 0.008-0.216 0.023 -0.494 0.1-0.865 0.538-0.865 1.061 0 0.6 0.484 1.084 1.082 1.084 0.6 0 1.084-0.484 1.084-1.084 0-0.523-0.37-0.961-0.865-1.061C47.375 59.926 47.304 59.918 47.226 59.918z"/>
      <circle fill="#FFFFFF" cx="54.969" cy="22.289" r="1.084"/>
      <path fill="#FFFFFF" d="M47.226 15.629c0.6 0 1.084-0.484 1.084-1.083 0-0.523-0.37-0.96-0.865-1.061 -0.07-0.015-0.141-0.023-0.219-0.023 -0.35 0.206-0.662 0.415-0.97 0.631 -0.064 0.139-0.111 0.288-0.111 0.452C46.144 15.145 46.628 15.629 47.226 15.629z"/>
      <path fill="#FFFFFF" d="M47.445 44.455c-0.07-0.014-0.141-0.023-0.219-0.023 -0.074 0-0.146 0.009-0.216 0.023 -0.494 0.102-0.865 0.537-0.865 1.062 0 0.598 0.484 1.084 1.082 1.084 0.6 0 1.084-0.486 1.084-1.084C48.31 44.992 47.94 44.556 47.445 44.455z"/>
      <circle fill="#FFFFFF" cx="54.969" cy="37.774" r="1.085"/>
      <circle fill="#FFFFFF" cx="54.969" cy="84.229" r="1.084"/>
      <circle fill="#FFFFFF" cx="39.484" cy="68.745" r="1.084"/>
      <circle fill="#FFFFFF" cx="39.484" cy="37.774" r="1.085"/>
      <circle fill="#FFFFFF" cx="39.484" cy="53.259" r="1.084"/>
      <circle fill="#FFFFFF" cx="54.969" cy="68.745" r="1.084"/>
      <circle fill="#FFFFFF" cx="39.484" cy="84.229" r="1.084"/>
      <circle fill="#FFFFFF" cx="70.454" cy="68.745" r="1.084"/>
      <circle fill="#FFFFFF" cx="70.454" cy="84.229" r="1.084"/>
      <circle fill="#FFFFFF" cx="70.454" cy="37.774" r="1.085"/>
      <circle fill="#FFFFFF" cx="70.454" cy="53.259" r="1.084"/>
      <path fill="#FFFFFF" d="M47.445 28.968c-0.07-0.012-0.141-0.021-0.219-0.021 -0.074 0-0.146 0.009-0.216 0.021 -0.494 0.102-0.865 0.539-0.865 1.062 0 0.6 0.484 1.085 1.082 1.085 0.6 0 1.084-0.486 1.084-1.085C48.31 29.507 47.94 29.07 47.445 28.968z"/>
      <path fill="#FFFFFF" d="M47.226 77.569c0.6 0 1.084-0.482 1.084-1.082 0-0.524-0.37-0.961-0.865-1.062 -0.07-0.015-0.141-0.023-0.219-0.023 -0.074 0-0.146 0.009-0.216 0.023 -0.494 0.101-0.865 0.537-0.865 1.062C46.144 77.087 46.628 77.569 47.226 77.569z"/>
      <path fill="#FFFFFF" d="M78.415 28.968c-0.071-0.012-0.144-0.021-0.218-0.021 -0.075 0-0.147 0.009-0.219 0.021 -0.494 0.102-0.864 0.539-0.864 1.062 0 0.6 0.484 1.085 1.083 1.085 0.599 0 1.083-0.486 1.083-1.085C79.28 29.507 78.909 29.07 78.415 28.968z"/>
      <path fill="#FFFFFF" d="M78.415 59.941c-0.071-0.015-0.144-0.023-0.218-0.023 -0.075 0-0.147 0.008-0.219 0.023 -0.494 0.1-0.864 0.538-0.864 1.061 0 0.6 0.484 1.084 1.083 1.084 0.599 0 1.083-0.484 1.083-1.084C79.28 60.479 78.909 60.041 78.415 59.941z"/>
      <path fill="#FFFFFF" d="M78.415 44.455c-0.071-0.014-0.144-0.023-0.218-0.023 -0.075 0-0.147 0.009-0.219 0.023 -0.494 0.102-0.864 0.537-0.864 1.062 0 0.598 0.484 1.084 1.083 1.084 0.599 0 1.083-0.486 1.083-1.084C79.28 44.992 78.909 44.556 78.415 44.455z"/>
      <path fill="#FFFFFF" d="M78.197 75.402c-0.075 0-0.147 0.009-0.219 0.023 -0.494 0.101-0.864 0.537-0.864 1.062 0 0.6 0.484 1.082 1.083 1.082 0.599 0 1.083-0.482 1.083-1.082 0-0.524-0.371-0.961-0.865-1.062C78.344 75.411 78.271 75.402 78.197 75.402z"/>
      <path fill="#FFFFFF" d="M16.257 59.918c-0.073 0-0.147 0.008-0.218 0.023 -0.492 0.1-0.867 0.538-0.867 1.061 0 0.6 0.486 1.084 1.084 1.084 0.599 0 1.085-0.484 1.085-1.084 0-0.523-0.372-0.961-0.867-1.061C16.404 59.926 16.333 59.918 16.257 59.918z"/>
      <circle fill="#FFFFFF" cx="147.88" cy="53.259" r="1.084"/>
      <circle fill="#FFFFFF" cx="147.88" cy="68.745" r="1.084"/>
      <path fill="#FFFFFF" d="M39.484 23.373c0.598 0 1.083-0.486 1.083-1.085 0-0.598-0.484-1.083-1.083-1.083 -0.074 0-0.14 0.028-0.212 0.043 -0.284 0.429-0.556 0.869-0.816 1.314C38.58 23.026 38.984 23.373 39.484 23.373z"/>
      <path fill="#FFFFFF" d="M1.854 61.002c0-0.523-0.371-0.961-0.865-1.061 -0.071-0.015-0.141-0.023-0.217-0.023 -0.077 0-0.148 0.008-0.219 0.023 -0.207 0.042-0.384 0.153-0.531 0.296 0.021 0.54 0.057 1.078 0.108 1.616 0.181 0.138 0.396 0.234 0.642 0.234C1.37 62.086 1.854 61.602 1.854 61.002z"/>
      <path fill="#FFFFFF" d="M148.964 84.229c0-0.598-0.486-1.084-1.084-1.084 -0.6 0-1.086 0.486-1.086 1.084 0 0.594 0.477 1.07 1.066 1.08 0.176-0.043 0.348-0.088 0.521-0.135C148.723 84.991 148.964 84.644 148.964 84.229z"/>
      <path fill="#FFFFFF" d="M155.623 62.086c0.599 0 1.08-0.484 1.08-1.084 0-0.523-0.369-0.961-0.864-1.061 -0.069-0.015-0.142-0.023-0.216-0.023s-0.148 0.008-0.221 0.023c-0.494 0.1-0.864 0.538-0.864 1.061C154.538 61.602 155.024 62.086 155.623 62.086z"/>
      <circle fill="#FFFFFF" cx="163.363" cy="53.259" r="1.083"/>
      <circle fill="#FFFFFF" cx="163.365" cy="68.745" r="1.084"/>
      <path fill="#FFFFFF" d="M155.838 44.455c-0.069-0.014-0.142-0.023-0.216-0.023s-0.148 0.009-0.221 0.023c-0.494 0.102-0.864 0.537-0.864 1.062 0 0.598 0.486 1.084 1.085 1.084s1.08-0.486 1.08-1.084C156.703 44.992 156.333 44.556 155.838 44.455z"/>
      <circle fill="#FFFFFF" cx="8.514" cy="68.744" r="1.083"/>
      <path fill="#FFFFFF" d="M155.623 77.569c0.599 0 1.08-0.482 1.08-1.082 0-0.524-0.369-0.961-0.864-1.062 -0.069-0.015-0.142-0.023-0.216-0.023s-0.148 0.009-0.221 0.023c-0.494 0.101-0.864 0.537-0.864 1.062C154.538 77.087 155.024 77.569 155.623 77.569z"/>
      <path fill="#FFFFFF" d="M16.257 77.569c0.599 0 1.085-0.482 1.085-1.082 0-0.524-0.372-0.961-0.867-1.062 -0.07-0.015-0.142-0.023-0.218-0.023 -0.073 0-0.147 0.009-0.218 0.023 -0.492 0.101-0.867 0.537-0.867 1.062C15.172 77.087 15.659 77.569 16.257 77.569z"/>
      <path fill="#FFFFFF" d="M31.961 59.941c-0.071-0.015-0.145-0.023-0.218-0.023 -0.077 0-0.149 0.008-0.221 0.023 -0.491 0.1-0.865 0.538-0.865 1.061 0 0.6 0.487 1.084 1.086 1.084 0.597 0 1.083-0.484 1.083-1.084C32.826 60.479 32.453 60.041 31.961 59.941z"/>
      <path fill="#FFFFFF" d="M31.961 44.455c-0.071-0.014-0.145-0.023-0.218-0.023 -0.077 0-0.149 0.009-0.221 0.023 -0.491 0.102-0.865 0.537-0.865 1.062 0 0.598 0.487 1.084 1.086 1.084 0.597 0 1.083-0.486 1.083-1.084C32.826 44.992 32.453 44.556 31.961 44.455z"/>
      <circle fill="#FFFFFF" cx="8.514" cy="53.259" r="1.084"/>
      <circle fill="#FFFFFF" cx="70.454" cy="22.289" r="1.084"/>
      <path fill="#FFFFFF" d="M31.743 75.402c-0.077 0-0.149 0.009-0.221 0.023 -0.491 0.101-0.865 0.537-0.865 1.062 0 0.6 0.487 1.082 1.086 1.082 0.597 0 1.083-0.482 1.083-1.082 0-0.524-0.374-0.961-0.865-1.062C31.89 75.411 31.816 75.402 31.743 75.402z"/>
      <circle fill="#FFFFFF" cx="24" cy="68.745" r="1.084"/>
      <circle fill="#FFFFFF" cx="24" cy="84.229" r="1.084"/>
      <path fill="#FFFFFF" d="M16.475 44.455c-0.07-0.014-0.142-0.023-0.218-0.023 -0.073 0-0.147 0.009-0.218 0.023 -0.492 0.102-0.867 0.537-0.867 1.062 0 0.598 0.486 1.084 1.084 1.084 0.599 0 1.085-0.486 1.085-1.084C17.342 44.992 16.97 44.556 16.475 44.455z"/>
      <circle fill="#FFFFFF" cx="24" cy="37.774" r="1.085"/>
      <circle fill="#FFFFFF" cx="24" cy="53.259" r="1.084"/>
      <circle fill="#FFFFFF" cx="54.969" cy="53.259" r="1.084"/>
      <circle fill="#FFFFFF" cx="101.425" cy="68.745" r="1.084"/>
      <circle fill="#FFFFFF" cx="101.425" cy="53.259" r="1.084"/>
      <circle fill="#FFFFFF" cx="101.425" cy="84.229" r="1.084"/>
      <circle fill="#FFFFFF" cx="101.425" cy="37.774" r="1.085"/>
      <circle fill="#FFFFFF" cx="101.425" cy="6.804" r="1.084"/>
      <path fill="#FFFFFF" d="M109.385 59.941c-0.071-0.015-0.146-0.023-0.218-0.023 -0.076 0-0.148 0.008-0.221 0.023 -0.491 0.1-0.865 0.538-0.865 1.061 0 0.6 0.486 1.084 1.086 1.084 0.598 0 1.083-0.484 1.083-1.084C110.25 60.479 109.88 60.041 109.385 59.941z"/>
      <path fill="#FFFFFF" d="M109.385 44.455c-0.071-0.014-0.146-0.023-0.218-0.023 -0.076 0-0.148 0.009-0.221 0.023 -0.491 0.102-0.865 0.537-0.865 1.062 0 0.598 0.486 1.084 1.086 1.084 0.598 0 1.083-0.486 1.083-1.084C110.25 44.992 109.88 44.556 109.385 44.455z"/>
      <path fill="#FFFFFF" d="M109.167 75.402c-0.076 0-0.148 0.009-0.221 0.023 -0.491 0.101-0.865 0.537-0.865 1.062 0 0.6 0.486 1.082 1.086 1.082 0.598 0 1.083-0.482 1.083-1.082 0-0.524-0.37-0.961-0.865-1.062C109.314 75.411 109.24 75.402 109.167 75.402z"/>
      <path fill="#FFFFFF" d="M109.385 28.968c-0.071-0.012-0.146-0.021-0.218-0.021 -0.076 0-0.148 0.009-0.221 0.021 -0.491 0.102-0.865 0.539-0.865 1.062 0 0.6 0.486 1.085 1.086 1.085 0.598 0 1.083-0.486 1.083-1.085C110.25 29.507 109.88 29.07 109.385 28.968z"/>
      <path fill="#FFFFFF" d="M109.385 13.485c-0.071-0.015-0.146-0.023-0.218-0.023 -0.076 0-0.148 0.008-0.221 0.023 -0.491 0.1-0.865 0.538-0.865 1.061 0 0.599 0.486 1.083 1.086 1.083 0.598 0 1.083-0.484 1.083-1.083C110.25 14.023 109.88 13.585 109.385 13.485z"/>
      <circle fill="#FFFFFF" cx="101.425" cy="22.289" r="1.084"/>
      <circle fill="#FFFFFF" cx="85.939" cy="37.774" r="1.085"/>
      <circle fill="#FFFFFF" cx="85.939" cy="22.289" r="1.084"/>
      <circle fill="#FFFFFF" cx="85.939" cy="84.229" r="1.084"/>
      <path fill="#FFFFFF" d="M140.355 44.455c-0.072-0.014-0.144-0.023-0.219-0.023 -0.074 0-0.148 0.009-0.216 0.023 -0.496 0.102-0.866 0.537-0.866 1.062 0 0.598 0.484 1.084 1.082 1.084 0.6 0 1.085-0.486 1.085-1.084C141.221 44.992 140.847 44.556 140.355 44.455z"/>
      <circle fill="#FFFFFF" cx="85.939" cy="68.745" r="1.084"/>
      <circle fill="#FFFFFF" cx="85.939" cy="53.259" r="1.084"/>
      <path fill="#FFFFFF" d="M93.9 44.455c-0.07-0.014-0.143-0.023-0.217-0.023 -0.075 0-0.149 0.009-0.22 0.023 -0.493 0.102-0.864 0.537-0.864 1.062 0 0.598 0.484 1.084 1.084 1.084 0.597 0 1.083-0.486 1.083-1.084C94.766 44.992 94.395 44.556 93.9 44.455z"/>
      <path fill="#FFFFFF" d="M93.683 75.402c-0.075 0-0.149 0.009-0.22 0.023 -0.493 0.101-0.864 0.537-0.864 1.062 0 0.6 0.484 1.082 1.084 1.082 0.597 0 1.083-0.482 1.083-1.082 0-0.524-0.371-0.961-0.866-1.062C93.83 75.411 93.757 75.402 93.683 75.402z"/>
      <path fill="#FFFFFF" d="M93.9 59.941c-0.07-0.015-0.143-0.023-0.217-0.023 -0.075 0-0.149 0.008-0.22 0.023 -0.493 0.1-0.864 0.538-0.864 1.061 0 0.6 0.484 1.084 1.084 1.084 0.597 0 1.083-0.484 1.083-1.084C94.766 60.479 94.395 60.041 93.9 59.941z"/>
      <path fill="#FFFFFF" d="M93.9 28.968c-0.07-0.012-0.143-0.021-0.217-0.021 -0.075 0-0.149 0.009-0.22 0.021 -0.493 0.102-0.864 0.539-0.864 1.062 0 0.6 0.484 1.085 1.084 1.085 0.597 0 1.083-0.486 1.083-1.085C94.766 29.507 94.395 29.07 93.9 28.968z"/>
      <path fill="#FFFFFF" d="M93.9 13.485c-0.07-0.015-0.143-0.023-0.217-0.023 -0.075 0-0.149 0.008-0.22 0.023 -0.493 0.1-0.864 0.538-0.864 1.061 0 0.599 0.484 1.083 1.084 1.083 0.597 0 1.083-0.484 1.083-1.083C94.766 14.023 94.395 13.585 93.9 13.485z"/>
      <path fill="#FFFFFF" d="M62.711 59.918c-0.074 0-0.147 0.008-0.218 0.023 -0.494 0.1-0.865 0.538-0.865 1.061 0 0.6 0.485 1.084 1.083 1.084 0.6 0 1.084-0.484 1.084-1.084 0-0.523-0.373-0.961-0.865-1.061C62.86 59.926 62.785 59.918 62.711 59.918z"/>
      <circle fill="#FFFFFF" cx="132.394" cy="68.745" r="1.084"/>
      <path fill="#FFFFFF" d="M140.136 75.402c-0.074 0-0.148 0.009-0.216 0.023 -0.496 0.101-0.866 0.537-0.866 1.062 0 0.6 0.484 1.082 1.082 1.082 0.6 0 1.085-0.482 1.085-1.082 0-0.524-0.374-0.961-0.866-1.062C140.283 75.411 140.211 75.402 140.136 75.402z"/>
      <circle fill="#FFFFFF" cx="132.394" cy="53.259" r="1.084"/>
      <circle fill="#FFFFFF" cx="132.394" cy="37.774" r="1.085"/>
      <circle fill="#FFFFFF" cx="132.394" cy="84.229" r="1.084"/>
      <path fill="#FFFFFF" d="M140.355 59.941c-0.072-0.015-0.144-0.023-0.219-0.023 -0.074 0-0.148 0.008-0.216 0.023 -0.496 0.1-0.866 0.538-0.866 1.061 0 0.6 0.484 1.084 1.082 1.084 0.6 0 1.085-0.484 1.085-1.084C141.221 60.479 140.847 60.041 140.355 59.941z"/>
      <path fill="#FFFFFF" d="M62.931 28.968c-0.071-0.012-0.146-0.021-0.219-0.021 -0.074 0-0.147 0.009-0.218 0.021C62 29.07 61.628 29.507 61.628 30.03c0 0.6 0.485 1.085 1.083 1.085 0.6 0 1.084-0.486 1.084-1.085C63.795 29.507 63.423 29.07 62.931 28.968z"/>
      <path fill="#FFFFFF" d="M140.355 28.968c-0.072-0.012-0.144-0.021-0.219-0.021 -0.074 0-0.148 0.009-0.216 0.021 -0.496 0.102-0.866 0.539-0.866 1.062 0 0.6 0.484 1.085 1.082 1.085 0.427 0 0.787-0.252 0.966-0.61 -0.024-0.372-0.062-0.742-0.097-1.112C140.847 29.182 140.622 29.024 140.355 28.968z"/>
      <path fill="#FFFFFF" d="M62.931 44.455c-0.071-0.014-0.146-0.023-0.219-0.023 -0.074 0-0.147 0.009-0.218 0.023 -0.494 0.102-0.865 0.537-0.865 1.062 0 0.598 0.485 1.084 1.083 1.084 0.6 0 1.084-0.486 1.084-1.084C63.795 44.992 63.423 44.556 62.931 44.455z"/>
      <path fill="#FFFFFF" d="M62.711 77.569c0.6 0 1.084-0.482 1.084-1.082 0-0.524-0.373-0.961-0.865-1.062 -0.071-0.015-0.146-0.023-0.219-0.023 -0.074 0-0.147 0.009-0.218 0.023 -0.494 0.101-0.865 0.537-0.865 1.062C61.628 77.087 62.114 77.569 62.711 77.569z"/>
      <path fill="#FFFFFF" d="M62.931 13.485c-0.071-0.015-0.146-0.023-0.219-0.023 -0.074 0-0.147 0.008-0.218 0.023 -0.494 0.1-0.865 0.538-0.865 1.061 0 0.599 0.485 1.083 1.083 1.083 0.6 0 1.084-0.484 1.084-1.083C63.795 14.023 63.423 13.585 62.931 13.485z"/>
      <path fill="#FFFFFF" d="M124.87 59.941c-0.071-0.015-0.143-0.023-0.216-0.023 -0.076 0-0.151 0.008-0.221 0.023 -0.494 0.1-0.864 0.538-0.864 1.061 0 0.6 0.483 1.084 1.085 1.084 0.596 0 1.082-0.484 1.082-1.084C125.736 60.479 125.365 60.041 124.87 59.941z"/>
      <circle fill="#FFFFFF" cx="116.909" cy="84.229" r="1.084"/>
      <circle fill="#FFFFFF" cx="116.909" cy="53.259" r="1.084"/>
      <circle fill="#FFFFFF" cx="116.909" cy="68.745" r="1.084"/>
      <circle fill="#FFFFFF" cx="116.909" cy="37.774" r="1.085"/>
      <circle fill="#FFFFFF" cx="132.394" cy="22.289" r="1.084"/>
      <circle fill="#FFFFFF" cx="116.909" cy="22.289" r="1.084"/>
      <circle fill="#FFFFFF" cx="116.909" cy="6.804" r="1.084"/>
      <path fill="#FFFFFF" d="M124.654 75.402c-0.076 0-0.151 0.009-0.221 0.023 -0.494 0.101-0.864 0.537-0.864 1.062 0 0.6 0.483 1.082 1.085 1.082 0.596 0 1.082-0.482 1.082-1.082 0-0.524-0.371-0.961-0.866-1.062C124.798 75.411 124.727 75.402 124.654 75.402z"/>
      <path fill="#FFFFFF" d="M124.87 28.968c-0.071-0.012-0.143-0.021-0.216-0.021 -0.076 0-0.151 0.009-0.221 0.021 -0.494 0.102-0.864 0.539-0.864 1.062 0 0.6 0.483 1.085 1.085 1.085 0.596 0 1.082-0.486 1.082-1.085C125.736 29.507 125.365 29.07 124.87 28.968z"/>
      <path fill="#FFFFFF" d="M124.87 13.485c-0.071-0.015-0.143-0.023-0.216-0.023 -0.076 0-0.151 0.008-0.221 0.023 -0.494 0.1-0.864 0.538-0.864 1.061 0 0.599 0.483 1.083 1.085 1.083 0.596 0 1.082-0.484 1.082-1.083C125.736 14.023 125.365 13.585 124.87 13.485z"/>
      <path fill="#FFFFFF" d="M124.87 44.455c-0.071-0.014-0.143-0.023-0.216-0.023 -0.076 0-0.151 0.009-0.221 0.023 -0.494 0.102-0.864 0.537-0.864 1.062 0 0.598 0.483 1.084 1.085 1.084 0.596 0 1.082-0.486 1.082-1.084C125.736 44.992 125.365 44.556 124.87 44.455z"/>
    </g>
  </g>
</svg>
