<svg xmlns="http://www.w3.org/2000/svg" xmlns:xlink="http://www.w3.org/1999/xlink" version="1.1" id="Layer_1" x="0px" y="0px" width="93.17px" height="209.821px" viewBox="0 0 93.17 209.821" enable-background="new 0 0 93.17 209.821" xml:space="preserve">
  <g id="snail">
    <path fill="#3C2415" d="M21.238 157.084c-0.612-0.242-1.307 0.062-1.553 0.683 -0.197 0.496-0.041 1.04 0.342 1.365 -0.961 2.046-1.903 4.118-3.131 6.084l2.071 0.823c0.31-2.145 1.093-4.31 1.842-6.63 0.468-0.009 0.907-0.298 1.094-0.763C22.148 158.025 21.852 157.327 21.238 157.084z"/>
    <path fill="#3C2415" d="M13.302 165.272c-1.246-1.997-2.202-4.1-3.179-6.177 0.391-0.328 0.548-0.881 0.348-1.386 -0.25-0.63-0.955-0.938-1.576-0.694 -0.621 0.249-0.924 0.959-0.674 1.585 0.188 0.477 0.635 0.768 1.109 0.777 0.76 2.355 1.555 4.551 1.869 6.729L13.302 165.272z"/>
    <path fill="#FFCB05" d="M87.549 193.959c0 0-53.861 6.623-58.393-3.486 -4.533-10.111-0.165-29.182-16.168-27.15 -11.766 1.7-7.844 33.517 0.654 40.397 6.096 4.935 18.77 6.081 31.2 6.101C62.203 209.852 80.344 207.471 87.549 193.959z"/>
    <g>
      <circle fill="#FFFFFF" cx="10.853" cy="171.908" r="2.875"/>
      <circle fill="#3C2415" cx="9.851" cy="171.777" r="1.028"/>
    </g>
    <g>
      <circle fill="#FFFFFF" cx="18.168" cy="171.908" r="2.877"/>
      <circle fill="#3C2415" cx="17.166" cy="171.777" r="1.008"/>
    </g>
    <g>
      <path fill="#3C2415" d="M14.439 178.744c-1.135 0-2.045-0.539-2.061-0.549 -0.146-0.088-0.189-0.276-0.104-0.421 0.088-0.146 0.276-0.195 0.423-0.105 0.097 0.059 2.396 1.407 3.976-0.758 0.1-0.136 0.294-0.168 0.432-0.068 0.137 0.103 0.167 0.295 0.067 0.432C16.336 178.421 15.32 178.744 14.439 178.744z"/>
    </g>
    <g>
      <path fill="#00B6C5" d="M77.721 187.055c0-13.708-11.111-24.82-24.82-24.82 -17.137 0-28.561 15.039-23.113 31.288 5.367 16.003 27.388 13.356 27.388 13.356C67.723 206.271 77.721 197.629 77.721 187.055z"/>
      <path fill="#FFFFFF" d="M60.145 196.274c1.418-0.427 2.831-1.081 4.084-2.057 1.252-0.964 2.334-2.288 2.938-3.868 0.619-1.58 0.733-3.349 0.475-5.061 -0.518-3.451-2.639-6.721-5.721-8.821 -1.535-1.053-3.309-1.815-5.184-2.227 -1.876-0.416-3.843-0.484-5.797-0.25 -2.003 0.246-3.913 1.092-5.56 2.271 -1.655 1.181-3.076 2.685-4.263 4.365 -1.186 1.685-2.139 3.555-2.809 5.546 -0.663 1.993-1.051 4.123-0.953 6.292 0.113 2.159 0.649 4.302 1.604 6.278 0.958 1.973 2.334 3.752 4.009 5.2 1.148 1.001 2.429 1.835 3.797 2.508 1.635 0.288 3.197 0.448 4.593 0.525 -2.852-0.654-5.531-1.946-7.694-3.833 -1.569-1.359-2.855-3.021-3.748-4.865 -0.891-1.839-1.397-3.855-1.502-5.862 -0.091-2.004 0.267-4.017 0.896-5.907 0.633-1.892 1.539-3.679 2.663-5.279 1.126-1.598 2.468-3.021 4.01-4.122 1.534-1.105 3.281-1.875 5.084-2.101 3.681-0.473 7.425 0.306 10.294 2.278 2.875 1.941 4.854 4.981 5.344 8.145 0.246 1.58 0.146 3.177-0.396 4.587 -0.529 1.413-1.482 2.605-2.627 3.501 -1.143 0.902-2.454 1.53-3.785 1.941 -0.668 0.207-1.342 0.358-2.012 0.461 -0.678 0.105-1.32 0.149-1.958 0.09 -1.273-0.113-2.466-0.589-3.43-1.3 -0.962-0.716-1.706-1.646-2.163-2.66 -0.46-1.007-0.668-2.1-0.602-3.102 0.068-1.009 0.424-1.942 0.945-2.694 1.049-1.533 2.708-2.276 4.129-2.362 1.438-0.09 2.611 0.53 3.318 1.214 0.725 0.692 1.043 1.427 1.203 1.917 0.163 0.497 0.189 0.773 0.224 0.769 0.028-0.003 0.065-0.285-0.046-0.818 -0.114-0.527-0.396-1.329-1.137-2.114 -0.723-0.77-1.984-1.507-3.588-1.456 -1.555 0.05-3.404 0.817-4.605 2.499 -0.598 0.826-1.016 1.863-1.111 2.996 -0.092 1.134 0.119 2.322 0.612 3.45 0.491 1.126 1.301 2.173 2.362 2.976s2.385 1.354 3.812 1.492c0.71 0.077 1.452 0.031 2.153-0.075C58.717 196.642 59.432 196.488 60.145 196.274z"/>
    </g>
  </g>
  <g id="flower">
    <path fill="#26A995" d="M49.87 209.821c-1.146 0-2.039-0.117-2.611-0.24 -0.066-5.246-0.46-20.951-0.781-33.79 -0.205-8.094-0.385-15.275-0.439-18.143 0.572-0.121 1.457-0.234 2.584-0.234 1.146 0 2.039 0.115 2.613 0.238 0.053 2.85 0.23 9.932 0.445 18.51 0.32 12.7 0.709 28.231 0.779 33.424C51.888 209.708 51.005 209.821 49.87 209.821L49.87 209.821z"/>
    <path fill="#F1708E" d="M83.06 122.067c-0.402-9.282-7.133-10.851-13.998-8.679 5.959-4.173 9.244-9.852 3.178-16.014 -6.807-6.919-13.102-2.967-16.684 3.771 1.332-7.367-0.338-13.962-9.163-13.918 -9.544 0.038-11.215 7.063-9.067 14.205 -4.038-6.266-10.475-9.541-16.685-2.303 -5.728 6.668-1.848 12.188 4.57 15.949 -7.592-2.478-15.354-0.938-15.111 9.11 0.225 9.249 7.49 10.429 15.219 8.531 -5.986 4.173-9.288 9.865-3.21 16.039 6.862 6.98 13.215 2.89 16.775-3.952 -1.582 7.2 0.612 13.969 10.049 13.364 8.539-0.543 9.943-6.842 8.361-13.84 4.008 6.713 10.684 10.514 17.125 3.009 5.463-6.369 2.176-11.688-3.715-15.425C77.61 132.58 83.423 130.414 83.06 122.067z"/>
    <path fill="#E6E768" d="M41.811 113.266c-8.605 3.154-8.39 13.656-3.668 18.68 4.677 4.979 15.499 5.66 19.839-2.455C61.69 122.542 56.306 107.951 41.811 113.266z"/>
  </g>
  <g id="frog">
    <g>
      <path fill="#ADD260" d="M53.344 199.754c-0.549-0.039-2.535 0.422-5.33 0.725 0 3.301 0.533 6.098 1.336 9.342 0.449-0.436 1.197-0.758 2.104-0.828 0.912-0.07 1.762 0.129 2.367 0.49 0.422-0.506 1.238-0.883 2.234-0.961 0.771-0.062 1.506 0.074 2.078 0.332C57.094 205.788 55.16 202.37 53.344 199.754z"/>
      <path fill="#ADD260" d="M39.826 199.754c0.549-0.039 2.537 0.422 5.33 0.725 0 3.301-0.533 6.098-1.336 9.342 -0.449-0.436-1.197-0.758-2.104-0.828 -0.908-0.07-1.764 0.129-2.367 0.49 -0.42-0.506-1.236-0.883-2.234-0.961 -0.768-0.062-1.504 0.074-2.078 0.332C36.078 205.788 38.012 202.37 39.826 199.754z"/>
    </g>
    <path fill="#ADD260" d="M18.441 174.949c-10.557 2.238 8.572 23.639 9.383 24.7 -2.561-0.109-5.904 0.053-9.438 0.293 0.59 0.375 0.99 0.963 1.02 1.648 0.027 0.688-0.33 1.311-0.895 1.73 0.693 0.361 1.164 1.006 1.197 1.758 0.021 0.586-0.229 1.123-0.646 1.531 4.488-0.516 9.086-1.699 12.984-2.834C32.553 201.747 29.729 172.556 18.441 174.949z"/>
    <path fill="#ADD260" d="M74.729 174.949c10.557 2.238-8.57 23.639-9.381 24.7 2.559-0.109 5.902 0.053 9.438 0.293 -0.594 0.375-0.994 0.963-1.02 1.648 -0.027 0.688 0.328 1.311 0.893 1.73 -0.691 0.361-1.166 1.006-1.195 1.758 -0.021 0.586 0.225 1.123 0.645 1.531 -4.486-0.516-9.086-1.699-12.982-2.834C60.619 201.747 63.441 172.556 74.729 174.949z"/>
    <g>
      <path fill="#E5E657" d="M69.004 184.49c0 11.328-10.035 17.97-22.418 17.97s-22.42-6.642-22.42-17.97c0-11.33 10.037-20.516 22.42-20.516S69.004 173.16 69.004 184.49z"/>
      <path fill="#FFCB05" d="M46.586 181.037c-9.061 0-16.92 4.312-20.855 10.627 3.283 6.904 11.377 10.796 20.855 10.796 9.475 0 17.57-3.892 20.854-10.796C63.504 185.349 55.645 181.037 46.586 181.037z"/>
      <path fill="#92AF2B" d="M46.586 175.078c6.703 0.004 12.873-1.162 17.699-3.178 -4.102-4.824-10.502-7.926-17.699-7.926s-13.6 3.102-17.701 7.926C33.713 173.916 39.881 175.082 46.586 175.078z"/>
    </g>
    <g>
      <path fill="#E5E657" d="M74.148 160.908c0 8.559-12.338 13.43-27.562 13.43 -15.223 0-27.564-4.871-27.564-13.43s12.342-18.377 27.564-18.377C61.811 142.53 74.148 152.349 74.148 160.908z"/>
      <g>
        <path fill="#E5E657" d="M41.754 143.315c1.992 5.618-0.547 11.647-5.674 13.465 -5.123 1.818-10.896-1.262-12.889-6.879 -1.992-5.618 0.549-11.645 5.672-13.463C33.988 134.62 39.76 137.7 41.754 143.315z"/>
        <g>
          <circle fill="#92AF2B" cx="32.805" cy="146.836" r="6.311"/>
          <g>
            <circle fill="#010101" cx="32.553" cy="146.836" r="5.633"/>
            <path fill="#FFFFFF" d="M31.738 145.378c0 0.804-0.654 1.458-1.459 1.458 -0.807 0-1.459-0.654-1.459-1.458 0-0.809 0.652-1.463 1.459-1.463C31.084 143.915 31.738 144.569 31.738 145.378z"/>
          </g>
        </g>
      </g>
      <g>
        <g>
          <path fill="#F05569" d="M29.34 159.958c0 1.914-1.551 3.465-3.463 3.465 -1.914 0-3.463-1.551-3.463-3.465 0-1.91 1.549-3.463 3.463-3.463C27.789 156.496 29.34 158.048 29.34 159.958z"/>
          <path fill="#F05569" d="M70.756 159.958c0 1.914-1.551 3.465-3.461 3.465 -1.914 0-3.463-1.551-3.463-3.465 0-1.91 1.549-3.463 3.463-3.463C69.205 156.496 70.756 158.048 70.756 159.958z"/>
        </g>
        <g>
          <path fill="#010101" d="M46.586 164.378c-2.518 0-5.037-0.666-7.281-1.994l0.33-0.557c4.287 2.537 9.613 2.537 13.904 0l0.326 0.557C51.621 163.712 49.102 164.378 46.586 164.378z"/>
        </g>
        <g>
          <circle fill="#010101" cx="43.885" cy="156.289" r="0.623"/>
          <circle fill="#010101" cx="49.287" cy="156.289" r="0.623"/>
        </g>
      </g>
      <g>
        <path fill="#E5E657" d="M51.416 143.315c-1.992 5.618 0.549 11.647 5.672 13.465 5.127 1.818 10.898-1.262 12.891-6.879 1.994-5.618-0.547-11.645-5.674-13.463C59.182 134.62 53.408 137.7 51.416 143.315z"/>
        <g>
          <circle fill="#92AF2B" cx="60.871" cy="146.836" r="6.311"/>
          <g>
            <circle fill="#010101" cx="60.617" cy="146.836" r="5.633"/>
            <path fill="#FFFFFF" d="M59.805 145.378c0 0.804-0.654 1.458-1.461 1.458 -0.805 0-1.457-0.654-1.457-1.458 0-0.809 0.652-1.463 1.457-1.463C59.15 143.915 59.805 144.569 59.805 145.378z"/>
          </g>
        </g>
      </g>
    </g>
  </g>
  <g id="casa">
    <g>
      <path fill="#F05569" d="M43.654 209.794c1.955 0.035 3.908 0.035 5.861 0 -0.535-39.667-1.07-79.332-1.605-119 -0.85-0.654-1.719-0.577-2.65 0C44.725 130.462 44.191 170.127 43.654 209.794z"/>
      <g>
        <g>
          <polygon fill="#2DBDB6" points="46.584,29.329 82.838,60.326 74.635,118.667 46.584,118.667 18.535,118.667 10.332,60.326           "/>
          <g>
            <polygon fill="#6EC9C3" points="49.303,31.65 50.758,32.896 50.758,118.667 49.303,118.667      "/>
            <polygon fill="#6EC9C3" points="59.291,40.191 60.746,41.438 60.746,118.667 59.291,118.667      "/>
            <polygon fill="#6EC9C3" points="52.631,34.498 54.088,35.744 54.088,118.667 52.631,118.667      "/>
            <polygon fill="#6EC9C3" points="65.949,45.884 67.406,47.129 67.406,118.667 65.949,118.667      "/>
            <polygon fill="#6EC9C3" points="55.959,37.345 57.418,38.59 57.418,118.667 55.959,118.667      "/>
            <polygon fill="#6EC9C3" points="62.619,43.039 64.076,44.284 64.076,118.667 62.619,118.667      "/>
            <polygon fill="#6EC9C3" points="79.268,57.272 80.725,58.517 80.725,75.365 79.268,85.726      "/>
            <polygon fill="#6EC9C3" points="69.279,48.732 70.734,49.977 70.734,118.667 69.279,118.667      "/>
            <polygon fill="#6EC9C3" points="75.938,54.423 77.395,55.671 77.395,99.043 75.938,109.408      "/>
            <polygon fill="#6EC9C3" points="74.064,118.667 72.609,118.667 72.609,51.579 74.064,52.824      "/>
            <polygon fill="#6EC9C3" points="12.678,58.321 14.135,57.073 14.135,87.371 12.678,77.011      "/>
            <polygon fill="#6EC9C3" points="22.666,49.779 24.123,48.533 24.123,118.667 22.666,118.667      "/>
            <polygon fill="#6EC9C3" points="19.336,52.625 20.793,51.38 20.793,118.667 19.336,118.667      "/>
            <polygon fill="#6EC9C3" points="17.463,111.048 16.008,100.689 16.008,55.472 17.463,54.227      "/>
            <polygon fill="#6EC9C3" points="25.996,46.933 27.453,45.688 27.453,118.667 25.996,118.667      "/>
            <polygon fill="#6EC9C3" points="29.324,44.086 30.781,42.839 30.781,118.667 29.324,118.667      "/>
            <polygon fill="#6EC9C3" points="39.312,35.545 40.77,34.299 40.77,118.667 39.312,118.667      "/>
            <polygon fill="#6EC9C3" points="42.643,32.699 44.1,31.453 44.1,118.667 42.643,118.667      "/>
            <polygon fill="#6EC9C3" points="35.984,38.392 37.439,37.147 37.439,118.667 35.984,118.667      "/>
            <polygon fill="#6EC9C3" points="45.973,118.667 45.973,29.852 46.584,29.329 47.428,30.05 47.428,118.667 46.584,118.667             "/>
            <polygon fill="#6EC9C3" points="32.654,41.239 34.111,39.993 34.111,118.667 32.654,118.667      "/>
          </g>
        </g>
        <path fill="#FFCB05" d="M46.584 30.415C36.143 42.1 24.59 53.118 11.998 63.266c-3.762-0.467-7.516-1.008-11.262-1.626 17.041-12.425 32.365-26.406 45.848-41.492C60.066 35.234 75.393 49.215 92.432 61.64c-3.746 0.618-7.5 1.159-11.26 1.626C68.58 53.118 57.027 42.1 46.584 30.415z"/>
      </g>
      <g>
        <g>
          <path fill="#FFCB05" d="M46.568 103.992c-2.934-0.003-5.314-2.358-5.354-5.281 -2.102 2.033-5.447 2.012-7.52-0.061 -2.072-2.075-2.09-5.423-0.055-7.521 -2.922-0.045-5.277-2.425-5.277-5.357 0-0.007 0-0.015 0-0.022 0-0.018 0-0.036 0-0.054 0.016-2.934 2.377-5.305 5.301-5.338 -2.027-2.104-1.994-5.451 0.084-7.516 2.08-2.065 5.432-2.076 7.518-0.033 0.057-2.922 2.443-5.266 5.377-5.259 2.932 0.011 5.305 2.37 5.342 5.292 2.104-2.026 5.451-1.996 7.52 0.077 2.064 2.079 2.076 5.428 0.041 7.521 2.918 0.05 5.268 2.437 5.262 5.37 -0.008 2.931-2.365 5.31-5.287 5.345 2.031 2.102 2.008 5.452-0.068 7.52 -2.076 2.069-5.426 2.083-7.521 0.051C51.879 101.644 49.498 103.996 46.568 103.992zM55.592 89.522c-0.932-0.969-1.508-2.283-1.504-3.733 0.002-1.453 0.582-2.77 1.523-3.73 -1.35-0.025-2.686-0.55-3.705-1.578 -1.027-1.03-1.545-2.369-1.562-3.712 -0.965 0.932-2.283 1.503-3.734 1.5 -1.449-0.003-2.764-0.586-3.725-1.523 -0.031 1.344-0.555 2.68-1.584 3.702 -1.033 1.021-2.371 1.54-3.715 1.555 0.93 0.969 1.504 2.286 1.496 3.737 0 0.01 0 0.02 0 0.032 0 1.449-0.574 2.769-1.512 3.733 1.344 0.021 2.68 0.543 3.707 1.568 1.023 1.025 1.545 2.364 1.566 3.708 0.965-0.933 2.283-1.508 3.732-1.508 1.451 0 2.768 0.581 3.732 1.515 0.02-1.343 0.547-2.68 1.574-3.704C52.91 90.06 54.248 89.54 55.592 89.522z"/>
        </g>
        <g>
          <circle fill="#FFF3C5" cx="46.586" cy="85.771" r="12.861"/>
        </g>
      </g>
      <path fill="#F05569" d="M40.396 51.452c1.867-3.432 5.025-0.844 6.188-0.035 1.164-0.809 4.322-3.396 6.191 0.035 2.592 4.764-4.328 8.883-6.191 9.881C44.725 60.334 37.803 56.215 40.396 51.452z"/>
      <rect y="116.476" fill="#F05569" width="93.17" height="2.942"/>
    </g>
  </g>
  <g id="bird">
    <g>
      <path fill="#231F20" d="M59.252 33.958l0.979-5.708 0.559 0.096 -0.977 5.709c0.492 0.935 1.035 1.868 1.621 2.77l-0.477 0.31c-0.461-0.714-0.891-1.448-1.297-2.186l-0.41 2.386 -0.559-0.095 0.408-2.388c-0.631 0.562-1.277 1.111-1.951 1.628l-0.348-0.447C57.652 35.375 58.475 34.677 59.252 33.958z"/>
      <path fill="#231F20" d="M53.637 32.259l2.498-5.225 0.512 0.244 -2.498 5.226c0.219 1.037 0.488 2.08 0.805 3.108L54.41 35.78c-0.248-0.812-0.461-1.636-0.652-2.457l-1.045 2.187 -0.514-0.245 1.047-2.185c-0.76 0.364-1.533 0.718-2.322 1.033l-0.211-0.527C51.711 33.187 52.693 32.739 53.637 32.259z"/>
    </g>
    <path fill="#EF5475" d="M40.672 4.832l6.75 10.387c6.227-4.803 18.213-10.939 29.797 0.571 0 0-9.16 27.698-34.143 3.373 -1.672-1.626-6.789-6.403-6.789-6.403L40.672 4.832z"/>
    <polygon fill="#231F20" points="82.852,6.957 87,8.94 83.008,10.438  "/>
    <polygon fill="#231F20" points="81.904,6.18 86.494,5.866 83.758,9.135  "/>
    <circle fill="#EF5475" cx="75.099" cy="9.07" r="9.067"/>
    <g>
      <path fill="#231F20" d="M78.973 6.348c-0.203 0.708 0.205 1.44 0.912 1.644 0.709 0.202 1.443-0.205 1.645-0.914 0.203-0.707-0.203-1.443-0.912-1.646C79.908 5.229 79.176 5.64 78.973 6.348z"/>
      <path fill="#FFFFFF" d="M80.289 6.471c-0.066 0.237 0.07 0.483 0.307 0.552 0.238 0.067 0.486-0.069 0.555-0.306 0.068-0.241-0.07-0.487-0.307-0.556C80.605 6.095 80.357 6.231 80.289 6.471z"/>
    </g>
    <path fill="#2DBDB6" d="M65.938 14.545c0 0-6.307 13.169-18.188 3.533C52.496 13.646 58.645 12.681 65.938 14.545z"/>
  </g>
</svg>
