<?xml version="1.0" encoding="utf-8"?>
<!-- Generator: Adobe Illustrator 16.0.0, SVG Export Plug-In . SVG Version: 6.00 Build 0)  -->
<!DOCTYPE svg PUBLIC "-//W3C//DTD SVG 1.1//EN" "http://www.w3.org/Graphics/SVG/1.1/DTD/svg11.dtd">
<svg version="1.1" id="Layer_1" xmlns="http://www.w3.org/2000/svg" xmlns:xlink="http://www.w3.org/1999/xlink" x="0px" y="0px"
	 width="166.307px" height="468.033px" viewBox="0 0 166.307 468.033" enable-background="new 0 0 166.307 468.033"
	 xml:space="preserve">
<g id="actividades_x5F_bottom">
	<rect x="78.03" y="340.033" fill="#26A995" width="15" height="128"/>
	<path fill="#26A995" d="M78.997,381.976c-21.873,11.887-39.802-2.502-46.424-24.261C60.591,348.326,79.938,363.724,78.997,381.976z
		"/>
	<path fill="#26A995" d="M93.065,357.387c23.634,12.838,43.002-2.705,50.158-26.213C112.952,321.031,92.048,337.665,93.065,357.387z
		"/>
</g>
<g id="actividades_x5F_text" opacity="0.7">
	<path fill="#26A995" d="M84.216,327.163v-0.188h-0.242c-1.156,0-1.532,0.889-1.532,2.044c0,1.747,1.317,3.736,1.317,3.736
		l-3.28,1.613c0,0-1.801-2.394-1.801-5.809c0-3.897,2.124-6.236,5.646-6.236h8.521v4.248h-0.833c-0.457,0-0.86-0.055-0.86-0.055
		v0.055c0,0,2.018,1.021,2.018,3.926c0,2.581-1.721,4.705-4.464,4.705C84.673,335.202,84.216,329.312,84.216,327.163z
		 M89.62,329.206c0-1.21-1.316-2.285-2.445-2.285h-0.297v0.431c0,1.479,0.431,3.173,1.587,3.173
		C89.11,330.523,89.62,330.12,89.62,329.206z"/>
	<path fill="#26A995" d="M78.678,312.572c0-3.766,2.097-5.513,2.097-5.513l3.119,1.964c0,0-1.344,1.344-1.344,3.253
		c0,2.204,1.667,3.307,3.307,3.307c1.642,0,3.441-1.129,3.441-3.468c0-1.938-1.666-3.791-1.666-3.791l3.252-1.694
		c0,0,2.286,2.07,2.286,5.942c0,4.945-3.441,7.716-7.259,7.716C82.2,320.288,78.678,317.546,78.678,312.572z"/>
	<path fill="#26A995" d="M82.872,303.94v1.774h-3.63v-1.907h-3.979v-4.519h3.979v-2.903h3.63v2.903h4.248
		c1.56,0,1.774-1.586,1.774-2.474c0-0.377-0.026-0.619-0.026-0.619h4.032c0,0,0.08,0.512,0.08,1.265
		c0,2.205-0.592,6.479-5.241,6.479H82.872L82.872,303.94z"/>
	<path fill="#26A995" d="M73.623,293.577v-4.544h3.63v4.544H73.623z M79,293.631v-4.651h13.846v4.651H79z"/>
	<path fill="#26A995" d="M79,287.585v-4.895l7.367-2.149c0.887-0.269,2.393-0.511,2.393-0.511v-0.055c0,0-1.479-0.242-2.393-0.511
		L79,277.342v-4.921l13.846,4.705v5.673L79,287.585z"/>
	<path fill="#26A995" d="M73.623,270.933v-4.545h3.63v4.545H73.623z M79,270.985v-4.651h13.846v4.651H79z"/>
	<path fill="#26A995" d="M78.678,257.677c0-2.796,1.104-3.63,1.104-3.63v-0.054c0,0-0.27,0.025-0.619,0.025h-5.539v-4.649h19.223
		v4.354h-0.914c-0.43,0-0.779-0.026-0.779-0.026v0.054c0,0,2.018,1.156,2.018,4.006c0,3.766-2.958,6.238-7.259,6.238
		C81.528,263.995,78.678,261.36,78.678,257.677z M89.325,256.603c0-1.398-1.021-2.717-3.414-2.717c-1.668,0-3.309,0.887-3.309,2.717
		c0,1.45,1.184,2.715,3.309,2.715C87.981,259.315,89.325,258.214,89.325,256.603z"/>
	<path fill="#26A995" d="M84.216,239.14v-0.188h-0.242c-1.156,0-1.532,0.888-1.532,2.044c0,1.747,1.317,3.735,1.317,3.735
		l-3.28,1.613c0,0-1.801-2.393-1.801-5.808c0-3.897,2.124-6.237,5.646-6.237h8.521v4.248h-0.833c-0.457,0-0.86-0.054-0.86-0.054
		v0.054c0,0,2.018,1.021,2.018,3.926c0,2.582-1.721,4.705-4.464,4.705C84.673,247.179,84.216,241.29,84.216,239.14z M89.62,241.183
		c0-1.209-1.316-2.285-2.445-2.285h-0.297v0.432c0,1.479,0.431,3.172,1.587,3.172C89.11,242.5,89.62,242.097,89.62,241.183z"/>
	<path fill="#26A995" d="M78.678,225.807c0-2.797,1.104-3.63,1.104-3.63v-0.054c0,0-0.27,0.027-0.619,0.027h-5.539v-4.651h19.223
		v4.355h-0.914c-0.43,0-0.779-0.027-0.779-0.027v0.054c0,0,2.018,1.156,2.018,4.006c0,3.765-2.958,6.238-7.259,6.238
		C81.528,232.125,78.678,229.49,78.678,225.807z M89.325,224.73c0-1.397-1.021-2.715-3.414-2.715c-1.668,0-3.309,0.887-3.309,2.715
		c0,1.452,1.184,2.716,3.309,2.716C87.981,227.446,89.325,226.344,89.325,224.73z"/>
	<path fill="#26A995" d="M78.678,208.026c0-4.086,2.85-6.398,6.695-6.398c0.457,0,1.452,0.107,1.452,0.107v8.738
		c1.692-0.35,2.473-1.748,2.473-3.227c0-1.989-1.398-3.818-1.398-3.818l3.254-1.721c0,0,2.018,2.232,2.018,5.915
		c0,4.947-3.576,7.609-7.259,7.609C81.85,215.232,78.678,212.489,78.678,208.026z M84.163,206.306c-1.05,0-1.99,0.727-1.99,1.828
		c0,1.345,0.968,1.99,1.99,2.231V206.306z"/>
	<path fill="#26A995" d="M88.007,198.268c0,0,1.396-1.532,1.396-3.522c0-0.698-0.188-1.371-0.645-1.371
		c-1.21,0-1.345,6.479-5.861,6.479c-2.607,0-4.221-2.5-4.221-5.699c0-3.227,1.586-4.867,1.586-4.867l3.307,1.587
		c0,0-1.129,1.344-1.129,3.28c0,0.698,0.188,1.371,0.672,1.371c1.05,0,1.211-6.479,5.675-6.479c2.364,0,4.382,2.097,4.382,5.673
		c0,3.468-2.044,5.538-2.044,5.538L88.007,198.268z"/>
</g>
<rect id="actividades_x5F_tallo" x="78.03" y="184.804" fill="#26A995" width="15" height="160.255"/>
<g id="actividades_x5F_top">
	<rect x="78.03" y="149.804" fill="#26A995" width="15" height="35"/>
	<path fill="#ADD260" class="towhite" d="M24.007,100.59c-10.818,0.494-22.778-1.528-23.912-12.072C-0.681,81.285,2.97,72.027,22.51,71.273
		c-11.192-2.5-23.595-9.239-19.194-22.462c3.664-11.03,18.35-9.539,27.934-2.729c-6.848-4.814-15.537-20.375-5.187-28.373
		c11.857-9.16,20.972,1.754,25.571,9.556C46.224,16.551,52.299,1.871,62.937,0.19c9.433-1.477,18.34,5.649,19.237,20.961
		C84.694,6.626,92.26-0.7,101.696,0.771c10.636,1.656,14.187,16.798,10.214,27.552c4.771-9.363,15.901-19.268,26.758-10.998
		c9.781,7.459,1.774,22.699-5.062,27.534c9.57-6.829,23.041-7.192,27.523,3.539c4.968,11.897-6.273,21.315-16.896,22.394
		c17.136,1.149,22.054,10.114,22.074,17.356c0.028,11.134-14.09,15.813-24.902,15.333c11.863,3.37,20.237,14.541,13.455,25.62
		c-6.073,9.911-19.915,6.955-27.508-2.016c7.848,8.055,9.903,24.054,0.715,29.448c-13.206,7.751-23.262-4.894-26.698-15.295
		c2.183,11.977-4.586,24.576-16.037,24.099c-12.595-0.526-15.919-12.137-15.075-25.666c-2.675,15.515-16.146,19.775-25.057,16.319
		c-7.631-2.956-11.726-15.24-4.626-30.307c-4.479,6.372-21.781,14.808-29.812,1.419C4.437,116.548,16.084,103.305,24.007,100.59z"/>
	<path fill="#26A995" d="M49.657,28.807c20.793-13.237,64.508-11.062,85.055,18.72c17.149,24.848,11.125,65.096-10.271,82.284
		c-30.428,24.438-74.954,8.195-91.616-12.481C16.142,96.612,16.15,50.138,49.657,28.807z"/>
	<path fill="#E5E657" d="M81.506,127.288c-13.626-2.125-27.596-9.497-34.736-18.325c-6.565-8.137-9.413-21.912-7.245-35.102
		c2.224-13.526,9.415-24.765,20.264-31.65c7.698-4.883,19.945-6.756,31.967-4.886c8.133,1.272,23.208,5.471,32.802,19.336
		c12.396,17.9,8.601,49.297-7.518,62.198C104.977,128.531,91.056,128.78,81.506,127.288L81.506,127.288z"/>
	<path fill="#EF5475" d="M82.602,112.407c-9.098-1.415-18.412-6.35-23.174-12.263c-4.37-5.429-6.265-14.644-4.818-23.468
		c1.496-9.053,6.287-16.567,13.528-21.182c5.146-3.263,13.311-4.518,21.322-3.273c5.428,0.845,15.49,3.655,21.879,12.924
		c8.257,11.967,5.729,32.967-5.037,41.613C98.258,113.228,88.971,113.404,82.602,112.407L82.602,112.407z"/>
</g>

</svg>
