<svg xmlns="http://www.w3.org/2000/svg" xmlns:xlink="http://www.w3.org/1999/xlink" version="1.1" id="Layer_1" x="0px" y="0px" width="86.355px" height="329.467px" viewBox="0 0 86.355 329.467" enable-background="new 0 0 86.355 329.467" xml:space="preserve">
  <rect x="40.517" y="77.785" fill="#FFFFFF" width="7.79" height="251.682"/>
  <path fill="#FFFFFF" d="M12.466 52.23C6.849 52.487 0.639 51.438 0.05 45.963c-0.403-3.757 1.492-8.563 11.639-8.955C5.877 35.71-0.563 32.211 1.722 25.345c1.902-5.728 9.527-4.953 14.504-1.417 -3.555-2.5-8.067-10.58-2.692-14.732 6.157-4.757 10.89 0.91 13.277 4.961 -2.81-5.562 0.346-13.186 5.869-14.058 4.897-0.767 9.523 2.933 9.989 10.884C43.978 3.44 47.906-0.363 52.806 0.4c5.521 0.859 7.365 8.722 5.303 14.306 2.477-4.862 8.258-10.005 13.893-5.71 5.08 3.873 0.922 11.786-2.627 14.297 4.969-3.546 11.965-3.734 14.291 1.838 2.58 6.177-3.256 11.066-8.773 11.627 8.898 0.597 11.451 5.252 11.463 9.012 0.014 5.781-7.316 8.211-12.932 7.962 6.16 1.75 10.508 7.551 6.986 13.304 -3.152 5.146-10.34 3.611-14.283-1.047 4.074 4.182 5.143 12.49 0.373 15.291 -6.859 4.024-12.08-2.541-13.865-7.941 1.133 6.219-2.381 12.76-8.326 12.513 -6.54-0.273-8.266-6.302-7.828-13.327 -1.39 8.056-8.384 10.268-13.011 8.474 -3.962-1.534-6.088-7.913-2.402-15.736 -2.325 3.309-11.31 7.688-15.479 0.736C2.304 60.517 8.353 53.641 12.466 52.23z"/>
  <path fill="#26A995" d="M25.784 14.957c10.797-6.873 33.495-5.744 44.165 9.721 8.906 12.902 5.777 33.801-5.332 42.726 -15.801 12.689-38.92 4.255-47.573-6.481C8.382 50.165 8.386 26.033 25.784 14.957z"/>
  <path fill="#E5E657" d="M42.322 66.094c-7.076-1.104-14.329-4.932-18.037-9.516 -3.409-4.225-4.887-11.378-3.762-18.227 1.154-7.023 4.889-12.859 10.521-16.435 3.998-2.536 10.357-3.508 16.599-2.537 4.223 0.661 12.051 2.841 17.031 10.04 6.438 9.295 4.467 25.598-3.902 32.297C54.509 66.738 47.281 66.868 42.322 66.094L42.322 66.094z"/>
  <path fill="#EF5475" d="M42.891 58.366c-4.725-0.735-9.56-3.297-12.033-6.367 -2.269-2.819-3.253-7.604-2.502-12.186 0.776-4.7 3.265-8.603 7.024-10.999 2.672-1.694 6.912-2.346 11.073-1.699 2.816 0.439 8.043 1.897 11.359 6.711 4.287 6.214 2.975 17.118-2.615 21.607C51.021 58.793 46.199 58.884 42.891 58.366L42.891 58.366z"/>
  <path fill="#26A995" d="M48.32 130.966c-0.523-15.246 13.451-22.75 28.43-22.119C73.935 127.169 58.933 135.293 48.32 130.966z"/>
  <path fill="#26A995" d="M48.32 163.633c-0.523-15.246 13.451-22.75 28.43-22.119C73.935 159.836 58.933 167.96 48.32 163.633z"/>
  <path fill="#26A995" d="M48.32 196.3c-0.523-15.246 13.451-22.75 28.43-22.119C73.935 192.503 58.933 200.627 48.32 196.3z"/>
  <path fill="#26A995" d="M48.32 228.967c-0.523-15.246 13.451-22.75 28.43-22.119C73.935 225.17 58.933 233.294 48.32 228.967z"/>
  <path fill="#26A995" d="M48.32 261.634c-0.523-15.246 13.451-22.75 28.43-22.119C73.935 257.837 58.933 265.961 48.32 261.634z"/>
</svg>
