<?xml version="1.0" encoding="utf-8"?>
<!-- Generator: Adobe Illustrator 16.0.0, SVG Export Plug-In . SVG Version: 6.00 Build 0)  -->
<!DOCTYPE svg PUBLIC "-//W3C//DTD SVG 1.1//EN" "http://www.w3.org/Graphics/SVG/1.1/DTD/svg11.dtd">
<svg version="1.1" id="Layer_1" xmlns="http://www.w3.org/2000/svg" xmlns:xlink="http://www.w3.org/1999/xlink" x="0px" y="0px"
	 width="161.725px" height="469.506px" viewBox="0 0 161.725 469.506" enable-background="new 0 0 161.725 469.506"
	 xml:space="preserve">
<g id="audios_x5F_bottom">
	<path fill="#26A995" d="M87.517,328.129c-0.91-21.841,17.365-30.41,37.081-27.219C121.164,326.631,101.542,335.93,87.517,328.129z"
		/>
	<rect x="73.591" y="269.506" fill="#26A995" width="15" height="200"/>
</g>
<g id="audios_x5F_text" opacity="0.7">
	<path fill="#26A995" d="M79.778,256.851v-0.188h-0.241c-1.156,0-1.532,0.888-1.532,2.044c0,1.747,1.316,3.736,1.316,3.736
		l-3.279,1.613c0,0-1.802-2.394-1.802-5.808c0-3.899,2.123-6.238,5.646-6.238h8.522v4.248h-0.833c-0.457,0-0.86-0.054-0.86-0.054
		v0.054c0,0,2.017,1.021,2.017,3.927c0,2.58-1.721,4.705-4.464,4.705C80.235,264.89,79.778,259,79.778,256.851z M85.181,258.894
		c0-1.211-1.317-2.285-2.446-2.285h-0.296v0.431c0,1.479,0.432,3.172,1.587,3.172C84.67,260.21,85.181,259.808,85.181,258.894z"/>
	<path fill="#26A995" d="M74.562,249.209v-4.651h8.119c1.291,0,1.828-0.511,1.828-1.479c0-1.99-1.747-2.932-3.817-2.932h-6.13v-4.65
		h13.847v4.463h-1.21c-0.457,0-0.86-0.054-0.86-0.054v0.054c1.479,0.753,2.394,2.475,2.394,4.329c0,2.742-1.291,4.92-5.188,4.92
		H74.562z"/>
	<path fill="#26A995" d="M74.239,226.797c0-2.797,1.104-3.63,1.104-3.63v-0.054c0,0-0.269,0.027-0.618,0.027h-5.539v-4.651h19.225
		v4.355h-0.914c-0.431,0-0.779-0.027-0.779-0.027v0.054c0,0,2.017,1.156,2.017,4.006c0,3.765-2.958,6.238-7.26,6.238
		C77.089,233.116,74.239,230.481,74.239,226.797z M84.886,225.721c0-1.397-1.022-2.715-3.415-2.715
		c-1.667,0-3.307,0.887-3.307,2.715c0,1.452,1.183,2.716,3.307,2.716C83.542,228.437,84.886,227.334,84.886,225.721z"/>
	<path fill="#26A995" d="M69.184,215.288v-4.544h3.63v4.544H69.184z M74.562,215.341v-4.651h13.847v4.651H74.562z"/>
	<path fill="#26A995" d="M74.239,200.654c0-4.383,2.932-7.878,7.286-7.878c4.329,0,7.206,3.495,7.206,7.851
		s-2.877,7.851-7.206,7.851C77.169,208.477,74.239,204.982,74.239,200.654z M84.859,200.626c0-1.693-1.264-3.146-3.334-3.146
		c-2.097,0-3.414,1.452-3.414,3.146s1.317,3.146,3.414,3.146C83.595,203.772,84.859,202.321,84.859,200.626z"/>
	<path fill="#26A995" d="M83.569,189.741c0,0,1.397-1.532,1.397-3.522c0-0.698-0.188-1.371-0.646-1.371
		c-1.209,0-1.344,6.479-5.859,6.479c-2.608,0-4.223-2.5-4.223-5.699c0-3.227,1.588-4.867,1.588-4.867l3.307,1.587
		c0,0-1.129,1.344-1.129,3.28c0,0.698,0.188,1.371,0.672,1.371c1.049,0,1.21-6.479,5.673-6.479c2.366,0,4.383,2.097,4.383,5.673
		c0,3.468-2.044,5.538-2.044,5.538L83.569,189.741z"/>
</g>
<rect id="audios_x5F_tallo" x="73.591" y="176.506" fill="#26A995" width="15" height="93"/>
<g id="audios_x5F_top">
	<rect x="73.591" y="141.506" fill="#26A995" width="15" height="35"/>
	<g>
		<path  class="towhite" fill="#F05569" d="M138.297,69.382c11.247-13.179,14.592-28.881,7.062-38.325c-7.529-9.441-23.585-9.674-38.937-1.645
			C103.129,12.404,92.944,0,80.864,0c-12.072,0-22.268,12.404-25.56,29.412c-15.349-8.03-31.402-7.799-38.935,1.644
			c-7.526,9.443-4.183,25.144,7.06,38.325C7.582,76.372-2.246,89.067,0.441,100.844c2.69,11.773,17.05,18.95,34.365,18.375
			c-4.416,16.746-0.615,32.352,10.263,37.594c10.884,5.238,25.447-1.521,35.795-15.408c10.345,13.887,24.907,20.646,35.79,15.408
			c10.881-5.242,14.682-20.839,10.268-37.594c17.314,0.575,31.676-6.599,34.364-18.373C163.97,89.073,154.146,76.375,138.297,69.382
			z"/>
		<path fill="#2DBDB6" d="M120.284,72.489c7.72-9.044,10.017-19.82,4.847-26.303c-5.169-6.482-16.188-6.642-26.727-1.13
			c-2.257-11.672-9.251-20.187-17.541-20.187c-8.285,0-15.281,8.515-17.547,20.185c-10.53-5.509-21.552-5.35-26.717,1.132
			c-5.173,6.483-2.874,17.255,4.844,26.303C30.566,77.289,23.822,86,25.663,94.086c1.848,8.077,11.707,13.006,23.59,12.608
			c-3.033,11.502-0.425,22.205,7.045,25.799c7.47,3.605,17.463-1.036,24.565-10.576c7.102,9.54,17.097,14.182,24.563,10.576
			c7.47-3.594,10.079-14.297,7.049-25.799c11.882,0.397,21.741-4.526,23.587-12.608C137.907,86,131.166,77.292,120.284,72.489z"/>
		<path fill="#E5E657" d="M110.09,74.25c5.723-6.708,7.429-14.7,3.598-19.504c-3.837-4.805-12.003-4.926-19.818-0.837
			c-1.671-8.657-6.855-14.97-13.006-14.97c-6.146,0-11.33,6.313-13.01,14.97c-7.809-4.091-15.979-3.967-19.811,0.837
			c-3.831,4.804-2.13,12.792,3.593,19.501c-8.066,3.557-13.068,10.022-11.702,16.012c1.372,5.99,8.679,9.643,17.489,9.352
			c-2.247,8.526-0.312,16.464,5.224,19.134c5.536,2.66,12.948-0.779,18.217-7.846c5.267,7.074,12.679,10.506,18.216,7.846
			c5.538-2.67,7.469-10.607,5.222-19.134c8.812,0.295,16.124-3.353,17.492-9.352C123.158,84.269,118.157,77.808,110.09,74.25z"/>
	</g>
	<circle fill="#EF5475" cx="80.862" cy="82.272" r="15.134"/>
</g>

</svg>
