<?xml version="1.0" encoding="utf-8"?>
<!-- Generator: Adobe Illustrator 16.0.0, SVG Export Plug-In . SVG Version: 6.00 Build 0)  -->
<!DOCTYPE svg PUBLIC "-//W3C//DTD SVG 1.1//EN" "http://www.w3.org/Graphics/SVG/1.1/DTD/svg11.dtd">
<svg version="1.1" id="Layer_1" xmlns="http://www.w3.org/2000/svg" xmlns:xlink="http://www.w3.org/1999/xlink" x="0px" y="0px"
	 width="167.367px" height="433.484px" viewBox="0 0 167.367 433.484" enable-background="new 0 0 167.367 433.484"
	 xml:space="preserve">
<g id="guia_x5F_text" opacity="0.7">
	<path fill="#26A995" d="M91.826,344.57c0-1.666-0.619-3.199-2.662-3.199h-0.457c-0.162,0-0.512-0.027-0.512-0.027v0.055
		c0.969,0.807,1.452,1.855,1.452,3.469c0,4.168-3.415,6.236-6.964,6.236c-3.522,0-6.802-2.016-6.802-6.211
		c0-2.525,1.344-3.764,1.344-3.764v-0.08c0,0-0.161,0.027-0.323,0.027h-0.699v-4.355h12.582c5.055,0,6.91,4.033,6.91,7.822
		c0,1.855-0.537,3.898-1.236,5.244l-3.521-1.318C90.938,348.468,91.826,346.748,91.826,344.57z M82.737,341.263
		c-2.447,0-2.984,1.291-2.984,2.689c0,1.639,1.183,2.473,2.769,2.473c1.722,0,3.253-0.807,3.253-2.662
		C85.775,342.554,85.158,341.263,82.737,341.263z"/>
	<path fill="#26A995" d="M76.204,333.685v-4.65h8.12c1.291,0,1.827-0.512,1.827-1.48c0-1.988-1.747-2.93-3.817-2.93h-6.13v-4.652
		H90.05v4.463h-1.209c-0.457,0-0.861-0.053-0.861-0.053v0.053c1.479,0.754,2.395,2.475,2.395,4.33c0,2.742-1.291,4.92-5.188,4.92
		H76.204L76.204,333.685z"/>
	<path fill="#26A995" d="M70.827,314.271v-4.598l4.033,3.172v3.604L70.827,314.271z M76.204,316.824v-4.65H90.05v4.65H76.204z"/>
	<path fill="#26A995" d="M81.42,302.026v-0.188h-0.242c-1.156,0-1.532,0.889-1.532,2.045c0,1.746,1.317,3.736,1.317,3.736
		l-3.28,1.613c0,0-1.801-2.395-1.801-5.809c0-3.898,2.124-6.237,5.646-6.237h8.522v4.248h-0.834c-0.457,0-0.859-0.054-0.859-0.054
		v0.054c0,0,2.018,1.021,2.018,3.926c0,2.581-1.722,4.706-4.465,4.706C81.877,310.066,81.42,304.177,81.42,302.026z M86.824,304.069
		c0-1.21-1.316-2.284-2.445-2.284h-0.296v0.43c0,1.479,0.43,3.173,1.585,3.173C86.313,305.387,86.824,304.983,86.824,304.069z"/>
	<path fill="#26A995" d="M75.881,282.427c0-2.797,1.103-3.631,1.103-3.631v-0.053c0,0-0.269,0.026-0.619,0.026h-5.539v-4.651H90.05
		v4.355h-0.914c-0.43,0-0.779-0.027-0.779-0.027v0.055c0,0,2.018,1.156,2.018,4.006c0,3.765-2.959,6.238-7.259,6.238
		C78.731,288.746,75.881,286.11,75.881,282.427z M86.528,281.351c0-1.396-1.021-2.715-3.415-2.715c-1.667,0-3.307,0.887-3.307,2.715
		c0,1.452,1.183,2.716,3.307,2.716C85.185,284.066,86.528,282.964,86.528,281.351z"/>
	<path fill="#26A995" d="M70.827,270.917v-4.545h3.63v4.545H70.827z M76.204,270.971v-4.651H90.05v4.651H76.204z"/>
	<path fill="#26A995" d="M75.881,257.662c0-2.795,1.103-3.629,1.103-3.629v-0.055c0,0-0.269,0.025-0.619,0.025h-5.539v-4.649H90.05
		v4.354h-0.914c-0.43,0-0.779-0.026-0.779-0.026v0.054c0,0,2.018,1.156,2.018,4.006c0,3.766-2.959,6.238-7.259,6.238
		C78.731,263.98,75.881,261.346,75.881,257.662z M86.528,256.587c0-1.398-1.021-2.717-3.415-2.717c-1.667,0-3.307,0.887-3.307,2.717
		c0,1.451,1.183,2.715,3.307,2.715C85.185,259.302,86.528,258.199,86.528,256.587z"/>
	<path fill="#26A995" d="M70.827,240.093v-4.598l4.033,3.172v3.604L70.827,240.093z M81.42,239.125v-0.188h-0.242
		c-1.156,0-1.532,0.889-1.532,2.044c0,1.747,1.317,3.735,1.317,3.735l-3.28,1.613c0,0-1.801-2.393-1.801-5.808
		c0-3.897,2.124-6.237,5.646-6.237h8.522v4.248h-0.834c-0.457,0-0.859-0.054-0.859-0.054v0.054c0,0,2.018,1.021,2.018,3.926
		c0,2.582-1.722,4.705-4.465,4.705C81.877,247.164,81.42,241.275,81.42,239.125z M86.824,241.167c0-1.209-1.316-2.285-2.445-2.285
		h-0.296v0.432c0,1.479,0.43,3.172,1.585,3.172C86.313,242.485,86.824,242.082,86.824,241.167z"/>
	<path fill="#26A995" d="M75.881,224.535c0-3.766,2.097-5.513,2.097-5.513l3.119,1.963c0,0-1.344,1.345-1.344,3.253
		c0,2.204,1.667,3.307,3.307,3.307c1.641,0,3.441-1.129,3.441-3.467c0-1.938-1.666-3.791-1.666-3.791l3.252-1.695
		c0,0,2.285,2.07,2.285,5.943c0,4.945-3.44,7.715-7.259,7.715C79.403,232.25,75.881,229.507,75.881,224.535z"/>
	<path fill="#26A995" d="M80.076,215.903v1.774h-3.63v-1.908h-3.979v-4.518h3.979v-2.903h3.63v2.903h4.248
		c1.561,0,1.775-1.586,1.775-2.474c0-0.376-0.027-0.618-0.027-0.618h4.033c0,0,0.08,0.511,0.08,1.264
		c0,2.205-0.592,6.479-5.242,6.479L80.076,215.903L80.076,215.903z"/>
	<path fill="#26A995" d="M70.827,205.539v-4.544h3.63v4.544H70.827z M76.204,205.593v-4.651H90.05v4.651H76.204z"/>
	<path fill="#26A995" d="M75.881,191.013c0-3.765,2.097-5.512,2.097-5.512l3.119,1.963c0,0-1.344,1.344-1.344,3.253
		c0,2.204,1.667,3.307,3.307,3.307c1.641,0,3.441-1.129,3.441-3.468c0-1.937-1.666-3.791-1.666-3.791l3.252-1.694
		c0,0,2.285,2.07,2.285,5.942c0,4.946-3.44,7.716-7.259,7.716C79.403,198.729,75.881,195.986,75.881,191.013z"/>
	<path fill="#26A995" d="M81.42,176.034v-0.188h-0.242c-1.156,0-1.532,0.888-1.532,2.044c0,1.747,1.317,3.736,1.317,3.736
		l-3.28,1.613c0,0-1.801-2.393-1.801-5.807c0-3.899,2.124-6.238,5.646-6.238h8.522v4.248h-0.834c-0.457,0-0.859-0.054-0.859-0.054
		v0.054c0,0,2.018,1.021,2.018,3.926c0,2.581-1.722,4.705-4.465,4.705C81.877,184.073,81.42,178.185,81.42,176.034z M86.824,178.077
		c0-1.21-1.316-2.285-2.445-2.285h-0.296v0.431c0,1.479,0.43,3.172,1.585,3.172C86.313,179.395,86.824,178.991,86.824,178.077z"/>
</g>
<g id="guia_x5F_bottom">
	<rect x="75.233" y="355.484" fill="#26A995" width="15" height="78"/>
	<path fill="#26A995" d="M75.2,374.035c-22.366,12.15-40.698-2.561-47.47-24.809C56.378,339.628,76.162,355.371,75.2,374.035z"/>
</g>
<rect id="guia_x5F_tallo" x="75.233" y="166.483" fill="#26A995" width="15" height="189.001"/>
<g id="guia_x5F_top">
	<rect x="75.233" y="140.483" fill="#26A995" width="15" height="26"/>
	<path  class="towhite" fill="#ADD260" d="M84.139,144.927c36.835,0,61.213-15.768,61.213-75.214c-12.866,0-46.976,0.019-61.759,0.019
		c-14.785,0-48.458-0.042-61.323-0.042C22.269,129.14,47.16,144.927,84.139,144.927z"/>
	<path fill="#F1708E" d="M84.343,70.027c10.791,0,47.382-0.284,60.783-0.028c3.14-2.81,9.941-11.704,12.391-15.062
		c9.252-12.695,13.738-30.557,5.607-36.226C148.259,8.344,132.298,35.105,130.582,41.3c3.104-12.383,7.055-35.911-8.672-37.898
		c-13.457-1.701-19.623,9.073-23.271,37.423C99.481,26.934,102.485,0,84.061,0c-18.51,0-16.176,27.037-15.334,40.931
		C65.078,12.579,58.912,1.807,45.456,3.506c-15.724,1.988-11.776,25.517-8.672,37.9C35.068,35.21,19.106,8.449,4.242,18.817
		c-8.129,5.67-3.645,23.529,5.608,36.225c2.447,3.359,9.251,12.255,12.392,15.062C35.641,69.848,73.55,70.027,84.343,70.027z"/>
	<path fill="#FFFFFF" d="M8.993,26.872c2.036-1.6,6.63-1.833,9.096,1.068c2.048,2.424,1.841,6.693-0.216,8.715
		c-2.929,2.875-7.753,1.639-9.71-0.351C6.198,34.314,5.708,29.461,8.993,26.872z"/>
	<path fill="#FFFFFF" d="M43.928,12.397c2.036-1.598,6.629-1.833,9.096,1.069c2.047,2.422,1.84,6.692-0.215,8.714
		c-2.928,2.875-7.754,1.64-9.711-0.351C41.133,19.841,40.643,14.986,43.928,12.397z"/>
	<path fill="#FFFFFF" d="M80.486,7.618c2.035-1.599,6.629-1.833,9.096,1.069c2.047,2.422,1.84,6.69-0.217,8.712
		c-2.927,2.875-7.753,1.64-9.71-0.352C77.691,15.061,77.202,10.205,80.486,7.618z"/>
	<path fill="#FFFFFF" d="M115.214,12.848c2.035-1.599,6.629-1.833,9.096,1.069c2.048,2.423,1.84,6.689-0.217,8.712
		c-2.928,2.877-7.754,1.641-9.711-0.35C112.419,20.292,111.929,15.436,115.214,12.848z"/>
	<path fill="#FFFFFF" d="M149.957,26.383c2.035-1.6,6.627-1.833,9.094,1.069c2.047,2.422,1.842,6.692-0.217,8.711
		c-2.929,2.878-7.754,1.645-9.709-0.349C147.162,33.825,146.671,28.971,149.957,26.383z"/>
	<path fill="#F1708E" d="M99.341,99.382c0,8.361-6.773,15.134-15.133,15.134c-8.36,0-15.134-6.772-15.134-15.134
		c0-8.357,6.774-15.132,15.134-15.132C92.568,84.25,99.341,91.024,99.341,99.382z"/>
</g>

</svg>
