<?xml version="1.0" encoding="utf-8"?>
<!-- Generator: Adobe Illustrator 16.0.0, SVG Export Plug-In . SVG Version: 6.00 Build 0)  -->
<!DOCTYPE svg PUBLIC "-//W3C//DTD SVG 1.1//EN" "http://www.w3.org/Graphics/SVG/1.1/DTD/svg11.dtd">
<svg version="1.1" id="Layer_1" xmlns="http://www.w3.org/2000/svg" xmlns:xlink="http://www.w3.org/1999/xlink" x="0px" y="0px"
	 width="167.055px" height="423.641px" viewBox="0 0 167.055 423.641" enable-background="new 0 0 167.055 423.641"
	 xml:space="preserve">
<g id="imprimibles_x5F_text" opacity="0.7">
	<path fill="#26A995" d="M84.873,337.56v-4.444h1.205c0.456,0,0.857,0.053,0.857,0.053v-0.053c-0.963-0.643-2.383-1.929-2.383-4.1
		c0-1.738,0.776-3.132,2.328-3.853v-0.055c-1.15-0.722-2.328-2.357-2.328-4.417c0-2.517,1.365-4.473,5.166-4.473h8.944v4.631h-8.168
		c-1.015,0-1.739,0.19-1.739,1.074c0,1.472,1.07,2.248,2.598,2.54c0.481,0.109,1.044,0.109,1.605,0.109h5.704v4.631h-8.168
		c-1.015,0-1.739,0.189-1.739,1.073c0,1.444,1.019,2.195,2.49,2.517c0.508,0.105,1.125,0.131,1.713,0.131h5.704v4.635H84.873z"/>
	<path fill="#26A995" d="M90.069,306.006v-0.188h-0.242c-1.15,0-1.525,0.884-1.525,2.036c0,1.74,1.312,3.722,1.312,3.722
		l-3.266,1.604c0,0-1.794-2.381-1.794-5.78c0-3.883,2.114-6.215,5.622-6.215h8.488v4.235h-0.83c-0.454,0-0.858-0.057-0.858-0.057
		v0.057c0,0,2.009,1.013,2.009,3.905c0,2.573-1.715,4.686-4.442,4.686C90.525,314.011,90.069,308.147,90.069,306.006z
		 M95.448,308.04c0-1.205-1.311-2.277-2.435-2.277H92.72v0.431c0,1.47,0.427,3.159,1.578,3.159
		C94.941,309.353,95.448,308.953,95.448,308.04z"/>
	<path fill="#26A995" d="M88.73,297.27v1.764h-3.615v-1.9h-3.962v-4.498h3.962v-2.89h3.615v2.89h4.229
		c1.552,0,1.77-1.577,1.77-2.463c0-0.376-0.03-0.615-0.03-0.615h4.018c0,0,0.08,0.51,0.08,1.258c0,2.197-0.59,6.455-5.22,6.455
		H88.73z"/>
	<path fill="#26A995" d="M84.553,280.664c0-4.072,2.839-6.373,6.667-6.373c0.455,0,1.446,0.107,1.446,0.107v8.701
		c1.687-0.349,2.463-1.742,2.463-3.214c0-1.979-1.394-3.8-1.394-3.8l3.239-1.715c0,0,2.009,2.221,2.009,5.891
		c0,4.927-3.562,7.576-7.229,7.576C87.713,287.838,84.553,285.108,84.553,280.664z M90.014,278.951c-1.043,0-1.98,0.723-1.98,1.82
		c0,1.337,0.963,1.979,1.98,2.219V278.951z"/>
	<path fill="#26A995" d="M84.873,271.767v-4.446h2.331c0.454,0,0.857,0.054,0.857,0.054v-0.054c-1.876-0.588-3.429-2.328-3.429-4.39
		c0-0.27,0.052-0.536,0.052-0.536h4.553c0,0-0.079,0.376-0.079,0.937c0,1.098,0.349,2.893,2.408,3.562
		c0.511,0.16,1.126,0.239,1.874,0.239h5.223v4.634H84.873z"/>
	<path fill="#26A995" d="M84.873,260.248v-4.634h13.79v4.634H84.873z M79.519,260.191v-4.524h3.614v4.524H79.519z"/>
	<path fill="#26A995" d="M90.069,245.224v-0.186h-0.242c-1.15,0-1.525,0.882-1.525,2.034c0,1.739,1.312,3.721,1.312,3.721
		l-3.266,1.604c0,0-1.794-2.381-1.794-5.783c0-3.88,2.114-6.21,5.622-6.21h8.488v4.23h-0.83c-0.454,0-0.858-0.055-0.858-0.055v0.055
		c0,0,2.009,1.018,2.009,3.91c0,2.568-1.715,4.683-4.442,4.683C90.525,253.227,90.069,247.364,90.069,245.224z M95.448,247.256
		c0-1.201-1.311-2.275-2.435-2.275H92.72v0.432c0,1.472,0.427,3.157,1.578,3.157C94.941,248.569,95.448,248.169,95.448,247.256z"/>
	<path fill="#26A995" d="M79.519,237.368v-4.633h13.44c1.312,0,1.77-0.239,1.77-1.284c0-0.294-0.03-0.562-0.03-0.562h4.018
		c0,0,0.08,0.643,0.08,1.393c0,2.462-0.59,5.086-5.22,5.086H79.519z"/>
	<path fill="#26A995" d="M84.553,222.344c0-4.072,2.839-6.373,6.667-6.373c0.455,0,1.446,0.106,1.446,0.106v8.704
		c1.687-0.35,2.463-1.742,2.463-3.215c0-1.981-1.394-3.801-1.394-3.801l3.239-1.715c0,0,2.009,2.221,2.009,5.891
		c0,4.928-3.562,7.576-7.229,7.576C87.713,229.518,84.553,226.788,84.553,222.344z M90.014,220.629c-1.043,0-1.98,0.725-1.98,1.82
		c0,1.34,0.963,1.982,1.98,2.225V220.629z"/>
	<path fill="#26A995" d="M93.843,212.535c0,0,1.392-1.527,1.392-3.505c0-0.698-0.186-1.368-0.642-1.368
		c-1.203,0-1.339,6.453-5.837,6.453c-2.596,0-4.203-2.49-4.203-5.677c0-3.211,1.578-4.846,1.578-4.846l3.295,1.58
		c0,0-1.125,1.338-1.125,3.266c0,0.697,0.188,1.367,0.67,1.367c1.043,0,1.204-6.453,5.65-6.453c2.354,0,4.362,2.089,4.362,5.649
		c0,3.456-2.034,5.515-2.034,5.515L93.843,212.535z"/>
</g>
<g id="imprimibles_x5F_bottom">
	<rect x="83.886" y="345.641" fill="#26A995" width="15" height="78"/>
	<path fill="#26A995" d="M96.093,368.044c23.934,13.003,43.548-2.735,50.792-26.544C116.232,331.229,95.062,348.076,96.093,368.044z
		"/>
</g>
<rect id="imprimibles_x5F_tallo" x="83.886" y="182.641" fill="#26A995" width="15" height="163"/>
<g id="imprimibles_x5F_top">
	<rect x="83.886" y="173.339" fill="#26A995" width="15" height="26"/>
	<path fill="#F1708E" d="M36.105,72.078c-14.816-9.02-15.667-33.137-3.705-41.451c14.897-10.354,35.364-2.488,42.688,13.424
		c0.969-20.62,16.03-29.773,30.298-26.808c19.445,4.039,25.462,25.65,18.185,39.395c19.496-15.487,35.758-5.406,41.399,7.386
		c4.832,10.953,2.896,32.86-23.518,36.403c24.482,8.375,22,28.397,18.041,38.013c-4.513,10.956-22.229,22.229-41.559,5.155
		c2.898,19.652-9.729,31.994-23.839,33.506c-18.041,1.933-30.282-10.953-29.317-30.283c-9.596,16.667-30.604,19.975-41.558,9.664
		c-10.483-9.863-6.565-32.373,8.697-41.88c-14.499,4.832-31.249-3.222-31.895-19.007C-0.661,78.832,12.874,70.31,36.105,72.078z"/>
	<path fill="#ADD260" d="M38.348,98.173c-1.259-22.533,7.324-34.348,18.185-42.427c10.045-7.475,27.273-10.861,40.658-8.334
		c16.723,3.154,30.693,14.211,36.367,30.305c7.631,21.66,1.993,45.717-10.606,56.063C96.466,155.525,41.379,152.469,38.348,98.173z"
		/>
	<path fill="#26A995" d="M85.339,137.826c-8.58,0-36.72-2.852-38.771-39.578c-1.122-20.121,6.704-28.768,14.508-34.575
		c6.01-4.471,16.161-7.356,25.873-7.356c2.709,0,5.274,0.225,7.629,0.667c13.985,2.642,24.986,11.746,29.437,24.359
		c6.676,18.949,1.156,38.607-7.784,45.953C108.192,133.89,96.647,137.826,85.339,137.826L85.339,137.826z"/>
	<path fill="#E5E657" d="M86.529,126.342c-11.041,0-24.465-4.724-25.722-27.234c-0.813-14.6,3.913-19.38,9.257-23.354
		c3.189-2.375,10.416-4.773,18.068-4.773c1.896,0,3.655,0.149,5.233,0.442c9.322,1.763,16.626,7.691,19.506,15.855
		c5.097,14.471,0.266,28.205-3.755,31.506C103.438,123.445,94.782,126.342,86.529,126.342L86.529,126.342z"/>
	<circle fill="#EF5475" cx="85.553" cy="98.142" r="15.134"/>
</g>
</svg>
