<?xml version="1.0" encoding="utf-8"?>
<!-- Generator: Adobe Illustrator 16.0.0, SVG Export Plug-In . SVG Version: 6.00 Build 0)  -->
<!DOCTYPE svg PUBLIC "-//W3C//DTD SVG 1.1//EN" "http://www.w3.org/Graphics/SVG/1.1/DTD/svg11.dtd">
<svg version="1.1" id="Layer_1" xmlns="http://www.w3.org/2000/svg" xmlns:xlink="http://www.w3.org/1999/xlink" x="0px" y="0px"
	 width="60px" height="60px" viewBox="0 0 60 60" enable-background="new 0 0 60 60" xml:space="preserve">
<g>
	<path fill="#9B3D56" d="M45.145,50.171c-6.444,4.273-15.015,6.505-21.308,5.552c-5.794-0.886-12.181-5.512-16.272-11.789
		C3.37,37.494,2.096,30.122,3.983,23.169c1.34-4.932,5.701-10.338,11.383-14.11c3.847-2.549,11.674-6.513,20.89-4.401
		C48.155,7.38,58.457,21.811,56.665,33.246C55.329,41.811,49.661,47.177,45.145,50.171L45.145,50.171z"/>
	<path fill="#FFFFFF" d="M42.369,46.48c-5.251,3.483-12.235,5.29-17.372,4.504c-4.715-0.728-9.927-4.511-13.271-9.639
		c-3.423-5.264-4.472-11.274-2.943-16.95c1.094-4.023,4.641-8.429,9.264-11.5c3.135-2.077,9.518-5.303,17.026-3.569
		c9.698,2.236,18.116,14.016,16.668,23.355C50.663,39.666,46.049,44.044,42.369,46.48L42.369,46.48z"/>
	<path fill="#EF5475" d="M44.313,30.061L31.698,17.446c-0.925-0.925-2.438-0.925-3.363,0L15.72,30.061
		c-0.925,0.926-0.988,1.682,0.298,1.682c1.288,0,1.981,1.071,1.981,2.38v7.136C18,42.565,19.789,43,21.097,43h17.838
		C40.245,43,41,42.565,41,41.258v-7.136c0-1.309,1.211-2.38,2.498-2.38S45.238,30.986,44.313,30.061z M33,31.62
		c0,1.314-1.065,2.38-2.379,2.38h-2.242C27.065,34,26,32.935,26,31.62v-1.24c0-1.314,1.065-2.38,2.379-2.38h2.242
		C31.935,28,33,29.065,33,30.38V31.62z"/>
</g>
</svg>
