<?xml version="1.0" encoding="utf-8"?>
<!-- Generator: Adobe Illustrator 16.0.0, SVG Export Plug-In . SVG Version: 6.00 Build 0)  -->
<!DOCTYPE svg PUBLIC "-//W3C//DTD SVG 1.1//EN" "http://www.w3.org/Graphics/SVG/1.1/DTD/svg11.dtd">
<svg version="1.1" xmlns="http://www.w3.org/2000/svg" xmlns:xlink="http://www.w3.org/1999/xlink" x="0px" y="0px" width="300px"
	 height="80px" viewBox="0 0 300 80" enable-background="new 0 0 300 80" xml:space="preserve">
<g id="frame_x5F_3">
	<animate id="frame3" attributeName="display" values="none;none;inline;none;" keyTimes="0;0.33;0.66;1" dur="2s" begin="0s" repeatCount="indefinite" />
	<g>
		<path fill="#26A995" d="M137.219,11.537c6.214-3.955,19.276-3.307,25.418,5.594c5.125,7.426,3.325,19.455-3.068,24.592
			c-9.094,7.303-22.4,2.449-27.381-3.731C127.202,31.8,127.204,17.912,137.219,11.537z"/>
		<path fill="#E5E657" d="M199.454,11.537c6.214-3.955,19.276-3.307,25.418,5.594c5.125,7.426,3.325,19.455-3.068,24.592
			c-9.094,7.303-22.4,2.449-27.381-3.731C189.438,31.8,189.439,17.912,199.454,11.537z"/>
		<path fill="#E5E657" d="M78.454,11.537c6.214-3.955,19.276-3.307,25.418,5.594c5.125,7.426,3.325,19.455-3.068,24.592
			c-9.094,7.303-22.4,2.449-27.381-3.731C68.438,31.8,68.439,17.912,78.454,11.537z"/>
		<g>
			<path fill="#EF5475" d="M146.948,27.173c-13.534,0-6.157,23.647-3.657,31.147s23.066,8.138,27.725,1.849
				c4.162-5.617,4.42-12.413-0.595-17.899c-4.577-5.006-14.659-3.885-17.63-1.45C152.791,40.82,159.006,27.173,146.948,27.173z"/>
			<path fill="#E5E657" d="M157.78,46.316c-1.497-1.041-1.249,7.281,0,8.946S159.277,47.357,157.78,46.316z"/>
			<path fill="#E5E657" d="M148.121,15.329c-1.415-1.15-1.793,7.167-0.674,8.921C148.568,26.003,149.535,16.48,148.121,15.329z"/>
			<path fill="#E5E657" d="M162.604,23.422c0.079-1.821-6.821,2.837-7.562,4.781C154.304,30.15,162.525,25.244,162.604,23.422z"/>
			<path fill="#E5E657" d="M138.199,29.664c1.821,0.08-2.837-6.82-4.781-7.561C131.473,21.363,136.377,29.584,138.199,29.664z"/>
			<path fill="#E5E657" d="M166.78,46.316c-1.497-1.041-1.249,7.281,0,8.946S168.277,47.357,166.78,46.316z"/>
			<path fill="#C4355B" d="M147.781,31.962c2.287,0,4.469,0.271,6.49,0.743c-0.443-2.976-2.287-5.532-7.323-5.532
				c-4.242,0-6.419,2.431-7.345,5.986C142.07,32.4,144.84,31.962,147.781,31.962z"/>
		</g>
	</g>
</g>
<g id="frame_x5F_2">
	<animate id="frame2" attributeName="display" values="none;inline;none;none;" keyTimes="0;0.33;0.66;1" dur="2s" begin="0s" repeatCount="indefinite" />
	<g>
		<path fill="#E5E657" d="M137.219,11.537c6.214-3.955,19.276-3.307,25.418,5.594c5.125,7.426,3.325,19.455-3.068,24.592
			c-9.094,7.303-22.4,2.449-27.381-3.73C127.202,31.801,127.204,17.912,137.219,11.537z"/>
		<path fill="#E5E657" d="M199.454,11.537c6.214-3.955,19.276-3.307,25.418,5.594c5.125,7.426,3.325,19.455-3.068,24.592
			c-9.094,7.303-22.4,2.449-27.381-3.73C189.438,31.801,189.439,17.912,199.454,11.537z"/>
		<path fill="#E5E657" d="M78.454,11.537c6.214-3.955,19.276-3.307,25.418,5.594c5.125,7.426,3.325,19.455-3.068,24.592
			c-9.094,7.303-22.4,2.449-27.381-3.73C68.438,31.801,68.439,17.912,78.454,11.537z"/>
		<g>
			<path fill="#EF5475" d="M147.791,22.32c-10.275,0-7,28.5-4.5,36s23.066,8.138,27.726,1.849c4.161-5.617,4.42-12.413-0.596-17.898
				c-4.577-5.007-14.659-3.886-17.63-1.45C152.791,40.82,156.749,22.32,147.791,22.32z"/>
			<path fill="#E5E657" d="M157.78,46.316c-1.497-1.041-1.248,7.281,0,8.946C159.029,56.928,159.277,47.357,157.78,46.316z"/>
			<path fill="#E5E657" d="M166.78,46.316c-1.497-1.041-1.248,7.281,0,8.946C168.029,56.928,168.277,47.357,166.78,46.316z"/>
		</g>
	</g>
</g>
<g id="frame_x5F_1">
	<animate id="frame1" attributeName="display" values="inline;none;none;none;" keyTimes="0;0.33;0.66;1" dur="2s" begin="0s" repeatCount="indefinite" />
	<g>
		<path fill="#E5E657" d="M137.219,11.537c6.214-3.955,19.276-3.307,25.418,5.594c5.125,7.426,3.325,19.455-3.068,24.592
			c-9.094,7.303-22.4,2.449-27.381-3.731C127.202,31.8,127.204,17.912,137.219,11.537z"/>
		<path fill="#E5E657" d="M199.454,11.537c6.214-3.955,19.276-3.307,25.418,5.594c5.125,7.426,3.325,19.455-3.068,24.592
			c-9.094,7.303-22.4,2.449-27.381-3.731C189.438,31.8,189.439,17.912,199.454,11.537z"/>
		<path fill="#E5E657" d="M78.454,11.537c6.214-3.955,19.276-3.307,25.418,5.594c5.125,7.426,3.325,19.455-3.068,24.592
			c-9.094,7.303-22.4,2.449-27.381-3.731C68.438,31.8,68.439,17.912,78.454,11.537z"/>
		<g>
			<path fill="#EF5475" d="M148.791,30.349c-10.275,0-7,28.5-4.5,36s23.066,8.138,27.726,1.849
				c4.161-5.617,4.42-12.413-0.596-17.898c-4.577-5.006-14.659-3.885-17.63-1.449C153.791,48.85,157.749,30.349,148.791,30.349z"/>
			<path fill="#E5E657" d="M158.78,54.345c-1.497-1.041-1.248,7.281,0,8.946C160.029,64.956,160.277,55.386,158.78,54.345z"/>
			<path fill="#E5E657" d="M167.78,54.345c-1.497-1.041-1.248,7.281,0,8.946C169.029,64.956,169.277,55.386,167.78,54.345z"/>
		</g>
	</g>
</g>
</svg>
