<?xml version="1.0" encoding="utf-8"?>
<!-- Generator: Adobe Illustrator 16.0.0, SVG Export Plug-In . SVG Version: 6.00 Build 0)  -->
<!DOCTYPE svg PUBLIC "-//W3C//DTD SVG 1.1//EN" "http://www.w3.org/Graphics/SVG/1.1/DTD/svg11.dtd">
<svg version="1.1" xmlns="http://www.w3.org/2000/svg" xmlns:xlink="http://www.w3.org/1999/xlink" x="0px" y="0px" width="300px"
	 height="80px" viewBox="0 0 300 80" enable-background="new 0 0 300 80" xml:space="preserve">
<g id="frame_x5F_3">
	<animate id="frame3" attributeName="display" values="none;none;inline;none;" keyTimes="0;0.33;0.66;1" dur="2s" begin="0s" repeatCount="indefinite" />
	<path fill="#26A995" d="M190.503,15.031c6.214-3.955,19.276-3.307,25.418,5.594c5.125,7.426,3.325,19.455-3.068,24.592
		c-9.094,7.303-22.4,2.449-27.381-3.73C180.486,35.294,180.488,21.406,190.503,15.031z"/>
	<path fill="#26A995" d="M89.405,14.031c6.214-3.955,19.276-3.307,25.418,5.594c5.125,7.426,3.325,19.455-3.068,24.592
		c-9.094,7.303-22.4,2.449-27.381-3.731C79.389,34.294,79.391,20.406,89.405,14.031z"/>
	<path fill="none" stroke="#ADD260" stroke-width="4" stroke-linecap="round" stroke-linejoin="round" stroke-miterlimit="10" d="
		M200.9,31c-7.306-2.728-24.016-7.037-51.9-7.333c-21.342-0.227-38.333,3.333-49,6.667"/>
	<g>
		<path fill="#EF5475" d="M199.007,26.167c-10.274,0-7,28.5-4.5,36s23.066,8.138,27.726,1.849c4.161-5.617,4.42-12.413-0.596-17.898
			c-4.577-5.007-14.659-3.886-17.63-1.45C204.007,44.667,207.965,26.167,199.007,26.167z"/>
		<path fill="#E5E657" d="M208.996,50.163c-1.497-1.041-1.248,7.281,0,8.946C210.245,60.774,210.493,51.204,208.996,50.163z"/>
		<path fill="#E5E657" d="M217.996,50.163c-1.497-1.041-1.248,7.281,0,8.946C219.245,60.774,219.493,51.204,217.996,50.163z"/>
	</g>
</g>
<g id="frame_x5F_2">
	<animate id="frame2" attributeName="display" values="none;inline;none;none;" keyTimes="0;0.33;0.66;1" dur="2s" begin="0s" repeatCount="indefinite" />
	<path fill="#26A995" d="M190.503,15.031c6.214-3.955,19.276-3.307,25.418,5.594c5.125,7.426,3.325,19.455-3.068,24.592
		c-9.094,7.303-22.4,2.449-27.381-3.73C180.486,35.294,180.488,21.406,190.503,15.031z"/>
	<path fill="#26A995" d="M89.405,14.031c6.214-3.955,19.276-3.307,25.418,5.594c5.125,7.426,3.325,19.455-3.068,24.592
		c-9.094,7.303-22.4,2.449-27.381-3.731C79.389,34.294,79.391,20.406,89.405,14.031z"/>
	<g>
		
			<path fill="none" stroke="#ADD260" stroke-width="4" stroke-linecap="round" stroke-linejoin="round" stroke-dasharray="6.2806,6.2806" d="
			M95.097,22.909c2.704-1.722,8.388-1.439,11.061,2.434c2.229,3.231,1.447,8.465-1.335,10.701
			c-3.957,3.178-9.747,1.066-11.915-1.624C90.739,31.726,90.74,25.683,95.097,22.909z"/>
	</g>
	<path fill="none" stroke="#ADD260" stroke-width="4" stroke-linecap="round" stroke-linejoin="round" stroke-miterlimit="10" d="
		M100,30.333C110.667,27,127.667,23,149,23.667"/>
	<g>
		<path fill="#EF5475" d="M148.233,18c-13.533,0-6.156,23.647-3.656,31.147s23.066,8.138,27.725,1.849
			c4.162-5.617,4.42-12.413-0.596-17.898c-4.576-5.007-14.658-3.886-17.629-1.45C154.077,31.646,160.292,18,148.233,18z"/>
		<path fill="#E5E657" d="M159.065,37.143c-1.496-1.041-1.248,7.281,0,8.946C160.315,47.754,160.563,38.184,159.065,37.143z"/>
		<path fill="#E5E657" d="M149.407,6.155c-1.416-1.15-1.793,7.167-0.674,8.921C149.854,16.83,150.821,7.306,149.407,6.155z"/>
		<path fill="#E5E657" d="M163.89,14.249c0.08-1.821-6.82,2.837-7.561,4.781C155.589,20.976,163.812,16.07,163.89,14.249z"/>
		<path fill="#E5E657" d="M139.485,20.49c1.82,0.08-2.838-6.82-4.781-7.561C132.759,12.189,137.663,20.411,139.485,20.49z"/>
		<path fill="#E5E657" d="M168.065,37.143c-1.496-1.041-1.248,7.281,0,8.946C169.315,47.754,169.563,38.184,168.065,37.143z"/>
		<path fill="#C4355B" d="M149.067,22.789c2.287,0,4.469,0.271,6.49,0.743c-0.443-2.976-2.287-5.532-7.324-5.532
			c-4.242,0-6.418,2.431-7.344,5.986C143.356,23.226,146.126,22.789,149.067,22.789z"/>
	</g>
</g>
<g id="frame_x5F_1">
	<animate id="frame1" attributeName="display" values="inline;none;none;none;" keyTimes="0;0.33;0.66;1" dur="2s" begin="0s" repeatCount="indefinite" />
	<path fill="#26A995" d="M190.503,15.031c6.214-3.955,19.276-3.307,25.418,5.594c5.125,7.426,3.325,19.455-3.068,24.592
		c-9.094,7.303-22.4,2.449-27.381-3.73C180.486,35.294,180.488,21.406,190.503,15.031z"/>
	<path fill="#26A995" d="M89.405,14.031c6.214-3.955,19.276-3.307,25.418,5.594c5.125,7.426,3.325,19.455-3.068,24.592
		c-9.094,7.303-22.4,2.449-27.381-3.731C79.389,34.294,79.391,20.406,89.405,14.031z"/>
	<g>
		<path fill="#EF5475" d="M99.567,27c-13.534,0-6.157,23.647-3.657,31.147s23.066,8.138,27.725,1.849
			c4.162-5.617,4.42-12.413-0.595-17.898c-4.577-5.007-14.659-3.886-17.63-1.45C105.41,40.646,111.625,27,99.567,27z"/>
		<path fill="#E5E657" d="M110.399,46.143c-1.497-1.041-1.249,7.281,0,8.946S111.896,47.184,110.399,46.143z"/>
		<path fill="#E5E657" d="M100.74,15.155c-1.415-1.15-1.793,7.167-0.674,8.921C101.187,25.83,102.154,16.306,100.74,15.155z"/>
		<path fill="#E5E657" d="M115.223,23.249c0.079-1.821-6.821,2.837-7.562,4.781C106.922,29.976,115.144,25.07,115.223,23.249z"/>
		<path fill="#E5E657" d="M90.818,29.49c1.821,0.08-2.837-6.82-4.781-7.561C84.091,21.189,88.996,29.411,90.818,29.49z"/>
		<path fill="#E5E657" d="M119.399,46.143c-1.497-1.041-1.249,7.281,0,8.946S120.896,47.184,119.399,46.143z"/>
		<path fill="#C4355B" d="M100.4,31.789c2.287,0,4.469,0.271,6.49,0.743C106.447,29.556,104.603,27,99.567,27
			c-4.242,0-6.419,2.431-7.345,5.986C94.689,32.226,97.458,31.789,100.4,31.789z"/>
	</g>
</g>
</svg>
