<?xml version="1.0" encoding="utf-8"?>
<!-- Generator: Adobe Illustrator 16.0.0, SVG Export Plug-In . SVG Version: 6.00 Build 0)  -->
<!DOCTYPE svg PUBLIC "-//W3C//DTD SVG 1.1//EN" "http://www.w3.org/Graphics/SVG/1.1/DTD/svg11.dtd">
<svg version="1.1" xmlns="http://www.w3.org/2000/svg" xmlns:xlink="http://www.w3.org/1999/xlink" x="0px" y="0px" width="300px"
	 height="80px" viewBox="0 0 300 80" enable-background="new 0 0 300 80" xml:space="preserve">
<g id="frame_x5F_3">
	<animate id="frame3" attributeName="display" values="none;none;inline;none;" keyTimes="0;0.33;0.66;1" dur="2s" begin="0s" repeatCount="indefinite" />
	<g>
		<path fill="#E5E657" d="M224.714,21.986c-7.625-11.051-23.844-11.857-31.561-6.946c-12.434,7.916-12.436,25.161-6.246,32.848
			c6.184,7.672,22.705,13.699,33.996,4.631C228.843,46.142,231.077,31.206,224.714,21.986z M225.028,27.379
			c4.139,12.03-5.76,23.891-13.941,26.721c-8.195,2.828-22.447-2.303-25.289-14.936c-1.766-7.838,3.727-21.002,15.129-24.018
			C210.44,12.63,222.12,18.919,225.028,27.379z"/>
		<g>
			<path fill="#E5E657" d="M99.771,31.796c-0.97-0.015-2.077-0.707-2.767-1.829c-0.902-1.467-0.749-3.106,0.343-3.663
				c0.062-0.031,1.536-0.773,4.329-1.78c1.173-0.423,2.771,0.457,3.566,1.96c0.794,1.502,0.488,3.063-0.681,3.489
				c-2.572,0.939-3.938,1.631-3.951,1.638C100.354,31.741,100.068,31.801,99.771,31.796z"/>
			<path fill="#E5E657" d="M176.457,29.057c-0.17-0.003-0.346-0.025-0.527-0.069c-3.115-0.75-6.271-1.416-9.379-1.981
				c-1.389-0.253-2.633-1.657-2.775-3.136c-0.146-1.479,0.867-2.467,2.266-2.21c3.215,0.593,6.482,1.291,9.709,2.075
				c1.396,0.339,2.564,1.786,2.611,3.234C178.402,28.229,177.586,29.077,176.457,29.057z M112.129,27.607
				c-1.129-0.02-2.387-0.943-2.99-2.271c-0.693-1.527-0.256-3.008,0.98-3.305c2.822-0.676,5.783-1.248,8.799-1.703
				c1.287-0.193,2.811,0.893,3.406,2.422c0.596,1.53,0.041,2.93-1.238,3.128c-2.902,0.45-5.748,1.013-8.459,1.675
				C112.465,27.593,112.299,27.611,112.129,27.607z M157.441,25.603c-0.076-0.002-0.154-0.008-0.234-0.018
				c-3.098-0.376-6.214-0.658-9.265-0.839c-1.367-0.081-2.74-1.376-3.068-2.894c-0.328-1.517,0.539-2.666,1.891-2.591
				c3.16,0.197,6.388,0.501,9.597,0.899c1.387,0.174,2.697,1.524,2.928,3.02C159.506,24.59,158.691,25.627,157.441,25.603z
				 M129.625,24.88c-1.26-0.025-2.615-1.146-3.1-2.601c-0.51-1.535,0.146-2.858,1.469-2.954c3.045-0.223,6.174-0.34,9.297-0.348
				c1.393-0.003,2.779,1.229,3.193,2.752s-0.342,2.766-1.686,2.773c-3.012,0.021-6.031,0.145-8.969,0.371
				C129.764,24.879,129.696,24.88,129.625,24.88z"/>
			<path fill="#E5E657" d="M190.992,33.19c-0.236-0.004-0.486-0.047-0.74-0.13c-1.652-0.542-3.314-1.062-4.938-1.546
				c-1.387-0.413-2.482-1.902-2.443-3.325c0.037-1.423,1.205-2.231,2.59-1.817c1.68,0.503,3.396,1.044,5.105,1.606
				c1.385,0.457,2.436,1.961,2.344,3.362C192.838,32.482,192.035,33.205,190.992,33.19z"/>
		</g>
		<path fill="#26A995" d="M195.894,19.183c6.214-3.955,19.276-3.307,25.419,5.594c5.125,7.426,3.324,19.456-3.068,24.592
			c-9.095,7.303-22.401,2.449-27.382-3.73C185.877,39.447,185.879,25.558,195.894,19.183z"/>
		<g>
			<path fill="#EF5475" d="M200.345,30.392c-10.275,0-7,28.5-4.5,36s23.066,8.138,27.725,1.849
				c4.162-5.617,4.42-12.413-0.596-17.898c-4.576-5.007-14.658-3.886-17.629-1.45C205.345,48.892,209.302,30.392,200.345,30.392z"/>
			<path fill="#E5E657" d="M210.333,54.388c-1.496-1.041-1.248,7.281,0,8.946C211.582,64.999,211.831,55.429,210.333,54.388z"/>
			<path fill="#E5E657" d="M219.333,54.388c-1.496-1.041-1.248,7.281,0,8.946C220.582,64.999,220.831,55.429,219.333,54.388z"/>
		</g>
	</g>
</g>
<g id="frame_x5F_2">
	<animate id="frame2" attributeName="display" values="none;inline;none;none;" keyTimes="0;0.33;0.66;1" dur="2s" begin="0s" repeatCount="indefinite" />
	<g>
		<path fill="#E5E657" d="M224.714,21.986c-7.625-11.051-23.844-11.857-31.561-6.946c-12.434,7.916-12.436,25.161-6.246,32.848
			c6.184,7.672,22.705,13.699,33.996,4.631C228.843,46.142,231.077,31.206,224.714,21.986z M225.028,27.379
			c4.139,12.03-5.76,23.891-13.941,26.721c-8.195,2.828-22.447-2.303-25.289-14.936c-1.766-7.838,3.727-21.002,15.129-24.018
			C210.44,12.63,222.12,18.919,225.028,27.379z"/>
		<g>
			<path fill="#E5E657" d="M99.771,31.796c-0.97-0.015-2.077-0.707-2.767-1.829c-0.902-1.467-0.749-3.106,0.343-3.663
				c0.062-0.031,1.536-0.773,4.329-1.78c1.173-0.423,2.771,0.457,3.566,1.96c0.794,1.502,0.488,3.063-0.681,3.489
				c-2.572,0.939-3.938,1.631-3.951,1.638C100.354,31.741,100.068,31.801,99.771,31.796z"/>
			<path fill="#E5E657" d="M176.457,29.057c-0.17-0.003-0.346-0.025-0.527-0.069c-3.115-0.75-6.271-1.416-9.379-1.981
				c-1.389-0.253-2.633-1.657-2.775-3.136c-0.146-1.479,0.867-2.467,2.266-2.21c3.215,0.593,6.482,1.291,9.709,2.075
				c1.396,0.339,2.564,1.786,2.611,3.234C178.402,28.229,177.586,29.077,176.457,29.057z M112.129,27.607
				c-1.129-0.02-2.387-0.943-2.99-2.271c-0.693-1.527-0.256-3.008,0.98-3.305c2.822-0.676,5.783-1.248,8.799-1.703
				c1.287-0.193,2.811,0.893,3.406,2.422c0.596,1.53,0.041,2.93-1.238,3.128c-2.902,0.45-5.748,1.013-8.459,1.675
				C112.465,27.593,112.299,27.611,112.129,27.607z M157.441,25.603c-0.076-0.002-0.154-0.008-0.234-0.018
				c-3.098-0.376-6.214-0.658-9.265-0.839c-1.367-0.081-2.74-1.376-3.068-2.894c-0.328-1.517,0.539-2.666,1.891-2.591
				c3.16,0.197,6.388,0.501,9.597,0.899c1.387,0.174,2.697,1.524,2.928,3.02C159.506,24.59,158.691,25.627,157.441,25.603z
				 M129.625,24.88c-1.26-0.025-2.615-1.146-3.1-2.601c-0.51-1.535,0.146-2.858,1.469-2.954c3.045-0.223,6.174-0.34,9.297-0.348
				c1.393-0.003,2.779,1.229,3.193,2.752s-0.342,2.766-1.686,2.773c-3.012,0.021-6.031,0.145-8.969,0.371
				C129.764,24.879,129.696,24.88,129.625,24.88z"/>
			<path fill="#E5E657" d="M190.992,33.19c-0.236-0.004-0.486-0.047-0.74-0.13c-1.652-0.542-3.314-1.062-4.938-1.546
				c-1.387-0.413-2.482-1.902-2.443-3.325c0.037-1.423,1.205-2.231,2.59-1.817c1.68,0.503,3.396,1.044,5.105,1.606
				c1.385,0.457,2.436,1.961,2.344,3.362C192.838,32.482,192.035,33.205,190.992,33.19z"/>
		</g>
		<path fill="#26A995" d="M133.56,8.85c6.214-3.955,19.276-3.307,25.418,5.594c5.125,7.426,3.324,19.455-3.068,24.592
			c-9.094,7.303-22.401,2.449-27.381-3.73C123.543,29.113,123.545,15.225,133.56,8.85z"/>
		<g>
			<path fill="#EF5475" d="M143.49,26.848c-13.534,0-6.157,23.646-3.657,31.146s23.066,8.137,27.724,1.848
				c4.162-5.617,4.42-12.412-0.594-17.898c-4.578-5.006-14.66-3.885-17.63-1.449C149.333,40.494,155.547,26.848,143.49,26.848z"/>
			<path fill="#E5E657" d="M154.322,45.99c-1.498-1.041-1.25,7.281,0,8.945C155.57,56.602,155.818,47.031,154.322,45.99z"/>
			<path fill="#E5E657" d="M144.663,15.003c-1.415-1.15-1.793,7.167-0.674,8.921C145.11,25.678,146.077,16.154,144.663,15.003z"/>
			<path fill="#E5E657" d="M159.146,23.097c0.078-1.821-6.822,2.837-7.562,4.781C150.845,29.824,159.066,24.918,159.146,23.097z"/>
			<path fill="#E5E657" d="M134.741,29.338c1.821,0.08-2.837-6.82-4.781-7.561C128.014,21.037,132.918,29.259,134.741,29.338z"/>
			<path fill="#E5E657" d="M163.322,45.99c-1.498-1.041-1.25,7.281,0,8.945C164.57,56.602,164.818,47.031,163.322,45.99z"/>
			<path fill="#C4355B" d="M144.323,31.637c2.287,0,4.469,0.271,6.49,0.743c-0.443-2.976-2.287-5.532-7.323-5.532
				c-4.242,0-6.419,2.431-7.345,5.986C138.612,32.074,141.381,31.637,144.323,31.637z"/>
		</g>
	</g>
</g>
<g id="frame_x5F_1">
	<animate id="frame1" attributeName="display" values="inline;none;none;none;" keyTimes="0;0.33;0.66;1" dur="2s" begin="0s" repeatCount="indefinite" />
	<g>
		<path fill="#E5E657" d="M224.714,21.986c-7.625-11.051-23.844-11.857-31.561-6.946c-12.434,7.916-12.436,25.161-6.246,32.848
			c6.184,7.672,22.705,13.699,33.996,4.631C228.843,46.142,231.077,31.206,224.714,21.986z M225.028,27.379
			c4.139,12.03-5.76,23.891-13.941,26.721c-8.195,2.828-22.447-2.303-25.289-14.936c-1.766-7.838,3.727-21.002,15.129-24.018
			C210.44,12.63,222.12,18.919,225.028,27.379z"/>
		<g>
			<path fill="#E5E657" d="M99.771,31.796c-0.97-0.015-2.077-0.707-2.767-1.829c-0.902-1.467-0.749-3.106,0.343-3.663
				c0.062-0.031,1.536-0.773,4.329-1.78c1.173-0.423,2.771,0.457,3.566,1.96c0.794,1.502,0.488,3.063-0.681,3.489
				c-2.572,0.939-3.938,1.631-3.951,1.638C100.354,31.741,100.068,31.801,99.771,31.796z"/>
			<path fill="#E5E657" d="M176.457,29.057c-0.17-0.003-0.346-0.025-0.527-0.069c-3.115-0.75-6.271-1.416-9.379-1.981
				c-1.389-0.253-2.633-1.657-2.775-3.136c-0.146-1.479,0.867-2.467,2.266-2.21c3.215,0.593,6.482,1.291,9.709,2.075
				c1.396,0.339,2.564,1.786,2.611,3.234C178.402,28.229,177.586,29.077,176.457,29.057z M112.129,27.607
				c-1.129-0.02-2.387-0.943-2.99-2.271c-0.693-1.527-0.256-3.008,0.98-3.305c2.822-0.676,5.783-1.248,8.799-1.703
				c1.287-0.193,2.811,0.893,3.406,2.422c0.596,1.53,0.041,2.93-1.238,3.128c-2.902,0.45-5.748,1.013-8.459,1.675
				C112.465,27.593,112.299,27.611,112.129,27.607z M157.441,25.603c-0.076-0.002-0.154-0.008-0.234-0.018
				c-3.098-0.376-6.214-0.658-9.265-0.839c-1.367-0.081-2.74-1.376-3.068-2.894c-0.328-1.517,0.539-2.666,1.891-2.591
				c3.16,0.197,6.388,0.501,9.597,0.899c1.387,0.174,2.697,1.524,2.928,3.02C159.506,24.59,158.691,25.627,157.441,25.603z
				 M129.625,24.88c-1.26-0.025-2.615-1.146-3.1-2.601c-0.51-1.535,0.146-2.858,1.469-2.954c3.045-0.223,6.174-0.34,9.297-0.348
				c1.393-0.003,2.779,1.229,3.193,2.752s-0.342,2.766-1.686,2.773c-3.012,0.021-6.031,0.145-8.969,0.371
				C129.764,24.879,129.696,24.88,129.625,24.88z"/>
			<path fill="#E5E657" d="M190.992,33.19c-0.236-0.004-0.486-0.047-0.74-0.13c-1.652-0.542-3.314-1.062-4.938-1.546
				c-1.387-0.413-2.482-1.902-2.443-3.325c0.037-1.423,1.205-2.231,2.59-1.817c1.68,0.503,3.396,1.044,5.105,1.606
				c1.385,0.457,2.436,1.961,2.344,3.362C192.838,32.482,192.035,33.205,190.992,33.19z"/>
		</g>
		<path fill="#26A995" d="M79.894,13.517c6.214-3.955,19.276-3.307,25.418,5.594c5.125,7.426,3.325,19.455-3.068,24.592
			c-9.094,7.304-22.4,2.449-27.381-3.73C69.877,33.78,69.879,19.892,79.894,13.517z"/>
		<g>
			<path fill="#EF5475" d="M89.823,31.515c-13.534,0-6.157,23.646-3.657,31.146s23.066,8.138,27.725,1.849
				c4.162-5.617,4.42-12.413-0.595-17.898c-4.577-5.007-14.659-3.886-17.63-1.45C95.666,45.161,101.881,31.515,89.823,31.515z"/>
			<path fill="#E5E657" d="M100.655,50.657c-1.497-1.041-1.249,7.281,0,8.946S102.152,51.698,100.655,50.657z"/>
			<path fill="#E5E657" d="M90.996,19.67c-1.415-1.15-1.793,7.167-0.674,8.921C91.443,30.345,92.41,20.821,90.996,19.67z"/>
			<path fill="#E5E657" d="M105.479,27.764c0.079-1.821-6.821,2.837-7.562,4.781C97.179,34.491,105.4,29.585,105.479,27.764z"/>
			<path fill="#E5E657" d="M81.074,34.005c1.821,0.08-2.837-6.82-4.781-7.561C74.347,25.704,79.252,33.926,81.074,34.005z"/>
			<path fill="#E5E657" d="M109.655,50.657c-1.497-1.041-1.249,7.281,0,8.946S111.152,51.698,109.655,50.657z"/>
			<path fill="#C4355B" d="M90.656,36.304c2.287,0,4.469,0.271,6.49,0.743c-0.443-2.976-2.287-5.532-7.323-5.532
				c-4.242,0-6.419,2.431-7.345,5.986C84.945,36.741,87.715,36.304,90.656,36.304z"/>
		</g>
	</g>
</g>
</svg>
