<svg xmlns="http://www.w3.org/2000/svg" xmlns:xlink="http://www.w3.org/1999/xlink" version="1.1" id="Layer_1" x="0px" y="0px" width="204.498px" height="103.934px" viewBox="0 0 204.498 103.934" enable-background="new 0 0 204.498 103.934" xml:space="preserve">
  <path id="bgcolor" fill="#ADD260" d="M199.354 81.888l-0.692 0.333 2.677-20.315 -22.186-1.663 -0.898 6.81 -14.812-2.578 -0.041 0.329c-1.177-0.085-2.281-0.05-3.313 0.103l-2.614-0.324 1.059-7.995 -9.539-0.714c0.843-0.566 1.651-1.195 2.408-1.891l2.723-2.5 -4.887-14.156c0.028-0.63 0.035-1.262 0.021-1.89 -0.037-1.883-0.426-3.687-1.164-5.38 -0.838-1.906-2.158-3.533-3.915-4.829 -1.65-1.221-3.757-2.025-6.255-2.394l0.035-0.273 -9.298-0.72c3.295-4.695 5.116-10.153 5.585-11.677l1.541-5.015 -4.891-1.898C130.037 2.918 122.317 0 115.353 0c-2.71 0-5.081 0.45-7.044 1.337 -3.2 1.445-5.502 4-6.66 7.39 -0.261 0.768-0.445 1.55-0.578 2.332L86.912 9.999l-0.845 6.41c-1.579-0.114-3.038-0.012-4.353 0.297 -0.174 0.04-0.339 0.095-0.508 0.141l-0.365-0.168c-0.522-0.241-1.084-0.464-1.67-0.665 -0.488-0.181-1.031-0.352-1.659-0.524 -0.726-0.198-1.494-0.351-2.288-0.45l0.043-0.324 -18.324-1.326L38.35 10.145l-0.045 0.33c-1.502-0.112-2.891-0.021-4.162 0.252l0.282-7.518 -22.55-2.803 -0.561 13.826 -1.31 9.919c-0.19-0.042-0.372-0.082-0.549-0.12 -0.269-0.071-0.526-0.142-0.772-0.22l-6.432-2.068L0 38.819l3.779 1.736c0.974 0.447 2.01 0.858 3.08 1.221 0.914 0.324 1.922 0.629 3.094 0.937 1.229 0.317 2.514 0.562 3.826 0.724 0.967 0.12 1.904 0.181 2.788 0.181 1.353 0 2.634-0.143 3.809-0.425 1.874-0.452 3.536-1.167 4.941-2.107 0.146 0.186 0.286 0.374 0.443 0.552 1.015 1.151 2.279 2.124 3.762 2.892 1.466 0.759 3.191 1.263 5.104 1.497 1.688 0.212 3.229 0.169 4.639-0.131 0.669-0.145 1.285-0.313 1.862-0.511 1.742 1.183 3.929 1.942 6.496 2.258 0.582 0.073 1.17 0.11 1.749 0.11 0.414 0 0.834-0.02 1.26-0.058 0.282-0.027 0.562-0.072 0.841-0.112l14.145 1.757 -0.432 3.26c-1.588-0.117-3.05-0.014-4.365 0.297 -1.601 0.374-3.055 0.99-4.316 1.83 -1.296 0.859-2.395 1.929-3.254 3.16 -0.712 1.013-1.305 2.099-1.765 3.239 -0.396 0.984-0.714 2.007-0.948 3.052 -0.196 0.882-0.348 1.715-0.447 2.477l-0.525 3.986c-0.104 0.799-0.174 1.643-0.207 2.471 -0.049 1.047-0.008 2.133 0.127 3.224 0.146 1.2 0.437 2.4 0.867 3.575 0.518 1.402 1.288 2.695 2.312 3.864 1.016 1.147 2.276 2.116 3.734 2.87 1.473 0.77 3.148 1.264 5.137 1.513 1.701 0.21 3.248 0.162 4.625-0.136 0.676-0.146 1.297-0.316 1.873-0.513 0.877 0.579 1.855 1.063 2.9 1.433 1.091 0.391 2.303 0.67 3.589 0.827 0.584 0.073 1.175 0.11 1.757 0.11 0.404 0 0.811-0.018 1.247-0.057 0.876-0.081 1.751-0.233 2.634-0.461 0.646-0.171 1.273-0.379 1.875-0.605 0.721 0.551 1.514 1.049 2.398 1.477 1.443 0.695 3.08 1.15 5.014 1.393 0.577 0.071 1.162 0.107 1.737 0.107 0.413 0 0.831-0.018 1.253-0.057 0.875-0.079 1.752-0.23 2.631-0.457 0.172-0.045 0.34-0.102 0.51-0.151l-0.933 7.081 3.467 1.833c0.874 0.463 1.822 0.884 2.819 1.256 0.861 0.333 1.85 0.651 2.927 0.939 1.181 0.321 2.458 0.566 3.79 0.731 0.974 0.12 1.917 0.182 2.807 0.182 1.396 0 2.718-0.15 3.921-0.449 1.969-0.484 3.715-1.246 5.21-2.28 1.473-1.028 2.705-2.265 3.678-3.704 0.38-0.568 0.725-1.145 1.037-1.73 0.209 0.113 0.412 0.231 0.631 0.338 1.448 0.697 3.09 1.152 5.023 1.393 0.582 0.072 1.171 0.108 1.748 0.108 0.408 0 0.82-0.019 1.246-0.056 0.877-0.082 1.752-0.234 2.629-0.461 0.645-0.17 1.266-0.377 1.863-0.6 0.739 0.563 1.552 1.068 2.447 1.494 1.436 0.685 3.06 1.131 4.947 1.361 0.586 0.074 1.18 0.111 1.762 0.111 0.403 0 0.814-0.018 1.234-0.055 0.879-0.08 1.761-0.234 2.625-0.459 0.691-0.18 1.366-0.404 2.009-0.651 0.661 0.522 1.388 0.997 2.185 1.412 1.461 0.756 3.184 1.261 5.109 1.495 1.69 0.213 3.234 0.169 4.635-0.132 0.671-0.146 1.288-0.313 1.863-0.509 1.74 1.181 3.929 1.94 6.519 2.26 0.585 0.071 1.17 0.107 1.743 0.107 0.41 0 0.82-0.02 1.238-0.057 0.878-0.081 1.754-0.234 2.623-0.458 0.637-0.167 1.26-0.373 1.873-0.603 0.736 0.562 1.547 1.066 2.444 1.493 1.409 0.673 3.077 1.132 4.96 1.366 0.586 0.072 1.175 0.108 1.752 0.108 0.412 0 0.825-0.019 1.239-0.056 0.893-0.084 1.776-0.238 2.624-0.461 0.778-0.203 1.543-0.454 2.307-0.76 0.669-0.272 1.276-0.546 1.856-0.837l0.057-0.029c1.368-0.706 2.679-1.557 3.896-2.526l3.109-2.484L199.354 81.888z"/>
  <g id="text">
    <path fill="#FFFFFF" d="M16.809 6.972l11.346 1.41 -0.258 7.267L26.26 28.052c-0.048 0.371-0.133 0.909-0.268 1.61 -0.131 0.701-0.355 1.459-0.678 2.271 -0.32 0.813-0.757 1.63-1.303 2.451 -0.545 0.82-1.262 1.542-2.152 2.156 -0.891 0.618-1.975 1.08-3.255 1.388 -1.28 0.307-2.81 0.351-4.586 0.13 -1.077-0.134-2.114-0.331-3.106-0.587 -0.99-0.26-1.874-0.526-2.654-0.804 -0.914-0.309-1.77-0.648-2.576-1.019l0.824-6.253c0.373 0.12 0.77 0.228 1.185 0.336 0.358 0.079 0.75 0.165 1.168 0.254 0.415 0.087 0.837 0.156 1.255 0.208 0.791 0.099 1.465 0.098 2.025-0.005 0.562-0.099 1.035-0.271 1.41-0.511 0.375-0.243 0.664-0.523 0.864-0.849 0.202-0.324 0.325-0.663 0.372-1.018l1.699-12.878L16.809 6.972z"/>
    <path fill="#FFFFFF" d="M41.572 25.482c-0.128-0.051-0.25-0.093-0.369-0.126 -0.12-0.033-0.232-0.057-0.344-0.069 -0.336-0.043-0.617 0.073-0.851 0.337 -0.235 0.27-0.423 0.59-0.563 0.968 -0.147 0.377-0.259 0.757-0.339 1.142 -0.08 0.386-0.131 0.675-0.157 0.871l-0.055 0.423c-0.025 0.194-0.051 0.491-0.074 0.894 -0.027 0.399-0.02 0.801 0.023 1.2 0.041 0.401 0.139 0.76 0.299 1.075 0.158 0.314 0.4 0.493 0.734 0.535 0.223 0.03 0.467 0.031 0.735 0.012L41.572 25.482zM55.617 33.746l1.777 5.148c-0.936 0.747-1.924 1.387-2.961 1.92 -0.462 0.231-0.946 0.449-1.459 0.656 -0.506 0.205-1.045 0.382-1.604 0.527 -0.559 0.144-1.133 0.244-1.716 0.298 -0.585 0.053-1.18 0.043-1.783-0.033 -1.798-0.221-3.198-0.708-4.204-1.451 -1.01-0.746-1.748-1.605-2.221-2.579 -0.084 0.259-0.227 0.484-0.421 0.675 -0.394 0.436-0.887 0.799-1.483 1.082 -0.517 0.242-1.157 0.444-1.923 0.609 -0.768 0.165-1.685 0.181-2.743 0.048 -1.284-0.157-2.354-0.463-3.217-0.91 -0.865-0.448-1.571-0.986-2.119-1.608 -0.552-0.626-0.97-1.319-1.246-2.082 -0.285-0.763-0.473-1.53-0.564-2.304 -0.096-0.775-0.123-1.533-0.092-2.275 0.031-0.741 0.09-1.412 0.165-2.011l0.528-3.975c0.077-0.602 0.197-1.266 0.358-1.989 0.161-0.727 0.389-1.453 0.68-2.18 0.291-0.726 0.673-1.425 1.14-2.092 0.473-0.67 1.061-1.238 1.764-1.708 0.703-0.468 1.529-0.815 2.479-1.038 0.952-0.224 2.069-0.255 3.353-0.095 1.079 0.134 1.973 0.376 2.684 0.724 0.709 0.347 1.289 0.701 1.742 1.066l0.168-1.248 10.783 1.88L51.801 31.55l-0.027 0.21c-0.02 0.158-0.038 0.372-0.044 0.641 -0.007 0.267 0.016 0.54 0.073 0.817 0.058 0.276 0.162 0.522 0.32 0.742 0.158 0.215 0.402 0.343 0.73 0.384 0.314 0.039 0.633 0.035 0.957-0.015 0.32-0.051 0.617-0.121 0.891-0.212C55.01 34.01 55.318 33.889 55.617 33.746"/>
    <path fill="#FFFFFF" d="M75.529 29.083c-0.34-0.098-0.729-0.207-1.158-0.333 -0.359-0.081-0.784-0.174-1.274-0.279 -0.489-0.104-1.009-0.192-1.558-0.261 -0.605-0.075-1.171-0.06-1.694 0.045 -0.528 0.105-0.987 0.268-1.378 0.488 -0.395 0.222-0.711 0.475-0.953 0.756 -0.242 0.285-0.381 0.569-0.416 0.852l-1.787 13.541 -10.855-1.349 3.062-23.212 10.928 0.791 -0.354 2.678c0.206-0.299 0.486-0.583 0.837-0.854 0.355-0.27 0.773-0.505 1.268-0.703 0.49-0.201 1.062-0.341 1.703-0.423 0.645-0.081 1.36-0.073 2.146 0.024 0.533 0.067 1.041 0.165 1.527 0.298 0.482 0.132 0.902 0.265 1.258 0.398 0.428 0.144 0.825 0.3 1.195 0.47L75.529 29.083z"/>
    <path fill="#FFFFFF" d="M89.358 31.394c-0.128-0.052-0.248-0.094-0.367-0.127 -0.12-0.031-0.233-0.056-0.345-0.069 -0.335-0.042-0.617 0.073-0.853 0.339 -0.232 0.269-0.419 0.593-0.567 0.971 -0.141 0.378-0.256 0.76-0.33 1.146 -0.085 0.388-0.136 0.678-0.158 0.874l-0.032 0.212 -0.026 0.212c-0.025 0.197-0.053 0.494-0.076 0.897 -0.021 0.403-0.016 0.804 0.025 1.205 0.041 0.403 0.141 0.761 0.297 1.077 0.157 0.317 0.401 0.496 0.734 0.538 0.225 0.029 0.468 0.032 0.736 0.011L89.358 31.394zM103.399 39.683l1.778 5.15c-0.936 0.747-1.922 1.386-2.958 1.921 -0.462 0.23-0.946 0.447-1.462 0.655 -0.506 0.203-1.045 0.38-1.604 0.527 -0.56 0.145-1.133 0.243-1.715 0.299 -0.582 0.053-1.178 0.042-1.784-0.035 -0.897-0.111-1.69-0.291-2.386-0.537 -0.693-0.248-1.295-0.552-1.805-0.912 -0.512-0.359-0.955-0.755-1.324-1.189 -0.373-0.431-0.67-0.896-0.906-1.391 -0.105 0.239-0.248 0.463-0.425 0.675 -0.394 0.437-0.888 0.795-1.483 1.082 -0.516 0.242-1.156 0.444-1.924 0.609 -0.766 0.163-1.682 0.181-2.744 0.05 -1.283-0.161-2.352-0.465-3.215-0.913 -0.866-0.448-1.569-0.986-2.123-1.61 -0.547-0.625-0.967-1.318-1.244-2.081 -0.281-0.761-0.467-1.53-0.562-2.304 -0.096-0.775-0.123-1.533-0.094-2.276 0.037-0.739 0.092-1.411 0.172-2.01l0.524-3.977c0.075-0.6 0.194-1.262 0.36-1.988 0.158-0.725 0.385-1.451 0.678-2.179 0.289-0.727 0.672-1.424 1.14-2.093 0.474-0.669 1.057-1.238 1.762-1.706 0.702-0.469 1.531-0.818 2.481-1.038 0.953-0.224 2.07-0.257 3.351-0.099 1.081 0.136 1.974 0.376 2.685 0.725 0.707 0.347 1.285 0.702 1.744 1.062l1.036-7.866 10.925 0.819 -2.695 20.43 -0.026 0.213c-0.021 0.158-0.032 0.372-0.042 0.641 -0.006 0.267 0.017 0.542 0.072 0.817 0.06 0.276 0.166 0.524 0.324 0.742 0.155 0.215 0.396 0.344 0.729 0.386 0.311 0.038 0.631 0.032 0.951-0.018 0.324-0.048 0.625-0.12 0.896-0.211C102.799 39.949 103.102 39.825 103.399 39.683"/>
    <path fill="#FFFFFF" d="M118.318 41.536l1.777 5.148c-0.935 0.748-1.922 1.387-2.959 1.922 -0.46 0.231-0.947 0.449-1.457 0.656 -0.513 0.206-1.044 0.381-1.604 0.527 -0.562 0.145-1.132 0.245-1.714 0.299 -0.585 0.052-1.18 0.042-1.783-0.034 -1.595-0.198-2.876-0.586-3.844-1.163 -0.964-0.579-1.714-1.261-2.242-2.043 -0.531-0.785-0.876-1.627-1.048-2.527 -0.173-0.901-0.246-1.762-0.23-2.586 0.017-0.824 0.078-1.575 0.196-2.252 0.119-0.676 0.196-1.174 0.242-1.491l0.686-5.221 -2.088-0.259 0.998-7.553 3.158 0.391 9.846 0.74 -1.749 13.249c-0.083 0.494-0.104 0.939-0.062 1.339 0.046 0.346 0.145 0.664 0.292 0.953 0.146 0.286 0.424 0.455 0.828 0.505 0.31 0.039 0.627 0.036 0.951-0.016 0.32-0.05 0.619-0.12 0.895-0.212C117.715 41.802 118.022 41.681 118.318 41.536"/>
    <path fill="#FFFFFF" d="M131.629 40.551c0.055-0.407 0.101-0.846 0.134-1.319 0.038-0.47 0.028-0.907-0.009-1.308 -0.041-0.398-0.136-0.737-0.285-1.018 -0.146-0.279-0.387-0.438-0.719-0.479 -0.275-0.034-0.518-0.027-0.725 0.017l-2.012 15.237 -10.855-1.348 3.066-23.24 10.92 0.845 -0.205 1.564c0.695-0.326 1.499-0.595 2.423-0.804 0.921-0.208 1.905-0.248 2.946-0.117 1.741 0.215 3.1 0.68 4.062 1.393 0.967 0.713 1.67 1.566 2.109 2.566 0.432 0.995 0.665 2.071 0.688 3.221 0.026 1.153-0.035 2.287-0.182 3.398 -0.107 0.795-0.231 1.557-0.375 2.284 -0.138 0.727-0.251 1.375-0.32 1.939 -0.01 0.197-0.005 0.417 0.012 0.66 0.012 0.248 0.057 0.475 0.132 0.69 0.075 0.217 0.186 0.407 0.345 0.569 0.152 0.161 0.366 0.259 0.641 0.294 0.312 0.04 0.59 0.031 0.828-0.03 0.243-0.061 0.443-0.144 0.609-0.249 0.198-0.118 0.367-0.258 0.5-0.422l1.777 5.148c-0.827 0.759-1.721 1.412-2.686 1.958 -0.424 0.234-0.873 0.456-1.345 0.666 -0.476 0.212-0.983 0.389-1.522 0.539 -0.541 0.148-1.098 0.251-1.664 0.307 -0.562 0.055-1.149 0.045-1.754-0.031 -1.244-0.154-2.291-0.402-3.143-0.742 -0.847-0.336-1.547-0.746-2.096-1.229 -0.551-0.479-0.973-1.013-1.259-1.596 -0.285-0.583-0.483-1.2-0.592-1.851 -0.11-0.652-0.147-1.315-0.116-1.995 0.035-0.677 0.095-1.352 0.184-2.024 0.09-0.689 0.177-1.311 0.262-1.866C131.486 41.623 131.559 41.08 131.629 40.551"/>
    <path fill="#FFFFFF" d="M68.467 67.583c-0.123-0.053-0.244-0.093-0.36-0.126 -0.122-0.033-0.234-0.057-0.349-0.07 -0.332-0.042-0.618 0.073-0.85 0.34 -0.232 0.271-0.424 0.592-0.568 0.971 -0.141 0.378-0.254 0.76-0.334 1.147s-0.131 0.679-0.156 0.872l-0.027 0.214 -0.03 0.212c-0.022 0.195-0.052 0.494-0.076 0.895 -0.023 0.406-0.014 0.805 0.024 1.206 0.042 0.403 0.141 0.763 0.297 1.077 0.157 0.32 0.401 0.498 0.734 0.539 0.225 0.027 0.471 0.031 0.736 0.01L68.467 67.583zM82.514 75.872l1.777 5.149c-0.937 0.748-1.923 1.387-2.961 1.92 -0.459 0.234-0.943 0.451-1.457 0.656 -0.512 0.204-1.046 0.381-1.605 0.528 -0.559 0.144-1.131 0.244-1.718 0.299 -0.583 0.051-1.176 0.04-1.78-0.034 -0.899-0.11-1.693-0.291-2.387-0.541 -0.693-0.245-1.293-0.549-1.809-0.908 -0.506-0.361-0.953-0.756-1.322-1.188s-0.676-0.896-0.906-1.394c-0.105 0.24-0.244 0.464-0.424 0.677 -0.391 0.436-0.887 0.796-1.482 1.082 -0.516 0.239-1.156 0.442-1.922 0.608 -0.768 0.166-1.682 0.182-2.747 0.051 -1.28-0.16-2.351-0.464-3.214-0.914 -0.862-0.445-1.57-0.984-2.122-1.608 -0.549-0.626-0.966-1.318-1.247-2.082 -0.278-0.761-0.465-1.528-0.56-2.303s-0.126-1.533-0.092-2.276c0.03-0.74 0.089-1.408 0.167-2.012l0.523-3.975c0.079-0.6 0.2-1.264 0.361-1.988 0.163-0.725 0.387-1.453 0.678-2.178 0.293-0.729 0.672-1.426 1.143-2.096 0.467-0.669 1.055-1.236 1.76-1.705 0.708-0.471 1.531-0.815 2.483-1.038 0.951-0.226 2.067-0.256 3.351-0.097 1.078 0.135 1.976 0.377 2.688 0.723 0.703 0.348 1.287 0.701 1.742 1.063l1.04-7.864 10.921 0.816 -2.695 20.43 -0.029 0.211c-0.017 0.162-0.033 0.374-0.042 0.643 -0.005 0.268 0.013 0.541 0.077 0.818 0.053 0.273 0.162 0.522 0.322 0.74 0.152 0.216 0.397 0.346 0.727 0.387 0.309 0.038 0.629 0.032 0.951-0.018 0.326-0.049 0.623-0.117 0.895-0.212C81.908 76.138 82.211 76.015 82.514 75.872"/>
    <path fill="#FFFFFF" d="M96.341 57.417c-0.165 1.255-0.78 2.17-1.843 2.746 -1.062 0.578-2.547 0.747-4.452 0.511 -1.903-0.236-3.296-0.765-4.175-1.583 -0.881-0.818-1.234-1.854-1.071-3.107 0.169-1.273 0.781-2.192 1.845-2.762 1.063-0.569 2.543-0.733 4.453-0.498 1.9 0.238 3.294 0.76 4.174 1.57S96.51 56.146 96.341 57.417M97.434 77.726l1.779 5.148c-0.938 0.746-1.925 1.389-2.963 1.92 -0.461 0.23-0.945 0.45-1.455 0.657 -0.512 0.204-1.047 0.381-1.606 0.528 -0.563 0.145-1.133 0.244-1.715 0.297 -0.588 0.053-1.178 0.043-1.784-0.032 -1.301-0.163-2.388-0.455-3.264-0.877 -0.873-0.423-1.592-0.925-2.146-1.505 -0.555-0.582-0.979-1.223-1.27-1.923 -0.287-0.7-0.492-1.41-0.602-2.12 -0.11-0.715-0.146-1.412-0.115-2.09 0.035-0.677 0.09-1.291 0.16-1.838 0.046-0.354 0.107-0.738 0.177-1.149 0.073-0.413 0.138-0.821 0.194-1.229l0.602-4.559 -2.063-0.257 0.997-7.553 3.186 0.396 9.819 0.736L93.59 75.738c-0.032 0.23-0.051 0.486-0.059 0.764 -0.01 0.275 0.012 0.543 0.073 0.802 0.06 0.259 0.17 0.485 0.333 0.674 0.156 0.19 0.405 0.308 0.736 0.349 0.309 0.038 0.627 0.033 0.949-0.018 0.322-0.049 0.621-0.119 0.895-0.212C96.829 77.993 97.136 77.869 97.434 77.726"/>
    <path fill="#FFFFFF" d="M110.591 72.734c-0.329-0.041-0.616 0.074-0.849 0.338 -0.235 0.268-0.421 0.594-0.564 0.969 -0.148 0.377-0.256 0.758-0.336 1.143 -0.082 0.385-0.131 0.676-0.158 0.871l-0.057 0.424c-0.021 0.193-0.051 0.49-0.076 0.891 -0.025 0.402-0.016 0.803 0.027 1.204 0.041 0.4 0.141 0.758 0.295 1.073 0.16 0.314 0.403 0.495 0.74 0.535 0.221 0.027 0.465 0.031 0.732 0.012l0.959-7.262c-0.128-0.052-0.248-0.094-0.365-0.127C110.822 72.773 110.705 72.75 110.591 72.734M101.119 88.958c0.375 0.117 0.768 0.23 1.186 0.334 0.36 0.08 0.75 0.164 1.165 0.254 0.415 0.087 0.837 0.155 1.258 0.208 0.528 0.067 1.059 0.077 1.589 0.022 0.527-0.051 1.005-0.171 1.43-0.361 0.424-0.189 0.787-0.449 1.078-0.779 0.297-0.334 0.486-0.754 0.574-1.264 -0.519 0.26-1.176 0.479-1.959 0.658 -0.787 0.182-1.73 0.203-2.83 0.067 -1.281-0.159-2.354-0.464-3.215-0.911 -0.865-0.448-1.571-0.986-2.122-1.611 -0.548-0.625-0.964-1.318-1.245-2.08 -0.282-0.762-0.469-1.529-0.562-2.305s-0.123-1.533-0.092-2.273c0.029-0.742 0.09-1.414 0.17-2.014l0.523-3.975c0.08-0.601 0.199-1.263 0.358-1.988 0.16-0.725 0.387-1.452 0.678-2.178 0.292-0.727 0.675-1.426 1.144-2.096s1.059-1.238 1.76-1.705c0.705-0.471 1.531-0.816 2.486-1.038 0.949-0.224 2.064-0.257 3.348-0.096 1.079 0.133 1.976 0.378 2.684 0.724 0.707 0.348 1.287 0.703 1.746 1.064l0.161-1.245 10.786 1.878 -2.793 21.174c-0.047 0.336-0.137 0.846-0.273 1.528 -0.133 0.683-0.367 1.44-0.688 2.271 -0.327 0.828-0.771 1.668-1.338 2.516 -0.571 0.842-1.312 1.582-2.218 2.215 -0.913 0.631-2.024 1.107-3.333 1.43 -1.308 0.323-2.87 0.371-4.684 0.146 -1.08-0.134-2.086-0.327-3.01-0.578 -0.926-0.248-1.725-0.506-2.398-0.769 -0.799-0.296-1.527-0.62-2.188-0.97L101.119 88.958z"/>
    <path fill="#FFFFFF" d="M136.842 62.449c-0.165 1.254-0.779 2.17-1.841 2.746 -1.065 0.577-2.55 0.748-4.452 0.513 -1.908-0.237-3.298-0.765-4.176-1.585 -0.879-0.816-1.235-1.854-1.072-3.107 0.168-1.273 0.781-2.191 1.848-2.758 1.059-0.57 2.545-0.738 4.449-0.501 1.902 0.237 3.295 0.761 4.177 1.571C136.654 60.134 137.01 61.176 136.842 62.449M137.936 82.758l1.778 5.148c-0.937 0.747-1.928 1.386-2.968 1.923 -0.454 0.229-0.938 0.447-1.451 0.652 -0.512 0.206-1.045 0.381-1.607 0.529 -0.561 0.145-1.129 0.244-1.713 0.299 -0.583 0.053-1.176 0.041-1.783-0.034 -1.302-0.161-2.389-0.454-3.266-0.876 -0.873-0.424-1.591-0.924-2.146-1.506 -0.555-0.581-0.979-1.221-1.269-1.922 -0.287-0.7-0.491-1.408-0.6-2.121 -0.111-0.713-0.146-1.41-0.115-2.087 0.033-0.679 0.088-1.292 0.158-1.84 0.045-0.353 0.107-0.736 0.181-1.149 0.071-0.414 0.137-0.821 0.19-1.229l0.6-4.561 -2.062-0.256 0.998-7.551 3.187 0.396 9.821 0.734 -1.777 13.461c-0.031 0.23-0.049 0.484-0.062 0.763 -0.006 0.278 0.017 0.544 0.079 0.802 0.057 0.26 0.166 0.483 0.332 0.676 0.158 0.189 0.4 0.306 0.732 0.348 0.311 0.038 0.625 0.031 0.951-0.018 0.321-0.049 0.623-0.119 0.894-0.215C137.332 83.025 137.638 82.901 137.936 82.758"/>
    <path fill="#FFFFFF" d="M152.331 77.57l-2.639-0.327 -0.708 5.38c-0.031 0.23-0.049 0.484-0.061 0.76 -0.008 0.277 0.018 0.545 0.079 0.803 0.06 0.262 0.165 0.484 0.329 0.676 0.16 0.191 0.406 0.307 0.734 0.35 0.312 0.037 0.629 0.031 0.949-0.018 0.326-0.051 0.622-0.121 0.896-0.213 0.312-0.105 0.617-0.23 0.914-0.371l1.778 5.148c-0.937 0.746-1.921 1.389-2.96 1.922 -0.462 0.229-0.943 0.448-1.457 0.652 -0.512 0.207-1.043 0.384-1.603 0.529 -0.56 0.145-1.13 0.246-1.716 0.3 -0.586 0.052-1.178 0.041-1.785-0.035 -1.283-0.157-2.354-0.442-3.223-0.857 -0.869-0.412-1.586-0.908-2.15-1.478 -0.569-0.574-0.996-1.209-1.285-1.898 -0.291-0.692-0.489-1.391-0.592-2.094 -0.104-0.704-0.138-1.395-0.116-2.074 0.024-0.68 0.073-1.294 0.146-1.84 0.061-0.46 0.116-0.821 0.172-1.084 0.049-0.264 0.092-0.508 0.122-0.738l0.683-5.168 -2.061-0.255 0.992-7.553 2.064 0.256 0.947-7.18 10.923 0.816 -1.021 7.712 3.713 0.461L152.331 77.57z"/>
    <path fill="#FFFFFF" d="M166.699 79.814c-0.13-0.053-0.248-0.094-0.367-0.125 -0.117-0.033-0.234-0.057-0.342-0.073 -0.338-0.04-0.619 0.073-0.852 0.341 -0.233 0.266-0.424 0.588-0.566 0.965 -0.145 0.379-0.258 0.761-0.336 1.146 -0.08 0.385-0.129 0.676-0.16 0.867l-0.057 0.424c-0.021 0.195-0.045 0.493-0.072 0.894 -0.021 0.401-0.019 0.804 0.025 1.202 0.041 0.401 0.141 0.758 0.297 1.074 0.158 0.314 0.401 0.494 0.736 0.536 0.221 0.028 0.469 0.029 0.736 0.009L166.699 79.814zM180.746 88.079l1.777 5.147c-0.936 0.746-1.924 1.387-2.963 1.922 -0.463 0.229-0.941 0.447-1.453 0.654 -0.513 0.205-1.047 0.381-1.607 0.528 -0.561 0.146-1.132 0.244-1.716 0.299 -0.581 0.052-1.175 0.04-1.78-0.034 -1.799-0.223-3.199-0.707-4.205-1.449 -1.013-0.748-1.752-1.606-2.221-2.58 -0.088 0.257-0.227 0.483-0.424 0.674 -0.391 0.438-0.887 0.797-1.48 1.082 -0.516 0.239-1.158 0.443-1.925 0.609 -0.766 0.164-1.681 0.182-2.741 0.049 -1.283-0.158-2.355-0.463-3.219-0.909 -0.865-0.45-1.571-0.987-2.123-1.612 -0.547-0.625-0.965-1.316-1.245-2.08 -0.282-0.762-0.47-1.529-0.563-2.305 -0.093-0.773-0.125-1.533-0.088-2.275 0.03-0.74 0.088-1.41 0.164-2.013l0.523-3.975c0.08-0.6 0.201-1.263 0.364-1.987 0.157-0.725 0.388-1.453 0.677-2.18 0.291-0.726 0.673-1.424 1.143-2.094 0.469-0.667 1.057-1.237 1.759-1.706 0.708-0.47 1.534-0.813 2.484-1.038 0.952-0.224 2.068-0.254 3.351-0.096 1.08 0.137 1.975 0.377 2.686 0.723 0.707 0.351 1.287 0.703 1.745 1.066l0.161-1.244 10.787 1.878 -1.683 12.746 -0.028 0.212c-0.021 0.158-0.033 0.373-0.045 0.642 -0.005 0.268 0.019 0.538 0.075 0.815 0.058 0.278 0.163 0.525 0.322 0.74 0.155 0.22 0.399 0.348 0.729 0.388 0.312 0.04 0.631 0.034 0.953-0.017 0.326-0.049 0.62-0.119 0.894-0.212C180.143 88.343 180.444 88.22 180.746 88.079"/>
    <path fill="#FFFFFF" d="M195.639 89.927l1.779 5.147c-0.938 0.747-1.929 1.389-2.963 1.923 -0.463 0.231-0.945 0.447-1.455 0.654 -0.513 0.205-1.047 0.381-1.607 0.527 -0.557 0.146-1.129 0.246-1.716 0.301 -0.581 0.053-1.176 0.04-1.78-0.034 -1.284-0.159-2.36-0.446-3.224-0.858 -0.868-0.414-1.582-0.904-2.137-1.477 -0.562-0.572-0.979-1.205-1.26-1.895 -0.278-0.689-0.479-1.389-0.592-2.094 -0.109-0.705-0.15-1.396-0.116-2.074 0.033-0.678 0.086-1.293 0.159-1.838l2.865-21.731 10.925 0.819 -2.705 20.51c-0.036 0.247-0.055 0.52-0.068 0.814 -0.012 0.295 0.014 0.576 0.071 0.844 0.058 0.267 0.167 0.502 0.329 0.701 0.16 0.197 0.402 0.321 0.73 0.359 0.313 0.038 0.631 0.034 0.955-0.017 0.321-0.05 0.621-0.118 0.894-0.213C195.031 90.193 195.34 90.071 195.639 89.927"/>
    <path fill="#FFFFFF" d="M110.176 6.691c-6 2.71-3.883 11.146-3.507 11.853 0.382 0.708 6.065 7.53 12.065 4.818 6.002-2.712 9.669-14.639 9.669-14.639S116.18 3.979 110.176 6.691"/>
    <path fill="#ADD260" d="M113.601 7.308c0.259 0.088 0.39 0.36 0.3 0.606l-3.074 8.222 4.516-2.038 2.41-6.462c0.092-0.245 0.373-0.374 0.629-0.285 0.257 0.089 0.391 0.362 0.298 0.608l-2.075 5.568 4.557-2.063 1.348-3.599c0.088-0.247 0.369-0.373 0.627-0.284 0.256 0.086 0.389 0.361 0.299 0.605l-1.012 2.708 3.83-1.734c0.244-0.113 0.54-0.01 0.656 0.229 0.116 0.236 0.011 0.519-0.237 0.631l-5.92 2.679 4.065 1.413c0.258 0.088 0.392 0.361 0.299 0.608 -0.09 0.245-0.376 0.374-0.627 0.285l-4.996-1.736 -4.561 2.063 7.12 2.471c0.25 0.089 0.384 0.363 0.297 0.608 -0.096 0.249-0.379 0.375-0.635 0.286l-8.041-2.795 -4.514 2.04 8.386 2.914c0.255 0.09 0.389 0.363 0.299 0.609 -0.098 0.247-0.378 0.375-0.637 0.284l-9.29-3.229c-0.005-0.002-0.007-0.007-0.011-0.008l-1 0.451c-0.945 0.591-3.244 2.158-4.23 3.89 -0.133 0.229-0.434 0.312-0.67 0.186 -0.096-0.049-0.166-0.125-0.208-0.214 -0.065-0.133-0.039-0.28 0.015-0.431 1.178-3.469 7.928-5.763 7.928-5.763 -0.049-0.108 3.23-9.04 3.23-9.04C113.062 7.344 113.346 7.219 113.601 7.308"/>
  </g>
</svg>
