<?xml version="1.0" encoding="utf-8"?>
<!-- Generator: Adobe Illustrator 16.0.0, SVG Export Plug-In . SVG Version: 6.00 Build 0)  -->
<!DOCTYPE svg PUBLIC "-//W3C//DTD SVG 1.1//EN" "http://www.w3.org/Graphics/SVG/1.1/DTD/svg11.dtd">
<svg version="1.1" id="Layer_1" xmlns="http://www.w3.org/2000/svg" xmlns:xlink="http://www.w3.org/1999/xlink" x="0px" y="0px"
	 width="391.615px" height="199.036px" viewBox="0 0 391.615 199.036" enable-background="new 0 0 391.615 199.036"
	 xml:space="preserve">
<g>
	<g>
		<path fill="#A2CE62" d="M56.741,17.727L35.46,15.081l-0.607,14.93l-3.187,24.157c-0.088,0.666-0.32,1.301-0.699,1.908
			c-0.375,0.61-0.918,1.137-1.622,1.591c-0.704,0.452-1.588,0.773-2.645,0.959c-1.051,0.192-2.317,0.194-3.799,0.009
			c-0.786-0.097-1.573-0.226-2.354-0.391c-0.782-0.166-1.518-0.328-2.19-0.476c-0.78-0.201-1.522-0.405-2.223-0.63l-1.546,11.73
			c1.512,0.695,3.122,1.332,4.831,1.911c1.465,0.522,3.123,1.022,4.983,1.508c1.861,0.481,3.803,0.85,5.824,1.102
			c3.334,0.412,6.202,0.331,8.602-0.246c2.402-0.578,4.437-1.444,6.107-2.603c1.67-1.152,3.017-2.505,4.036-4.044
			c1.025-1.539,1.841-3.072,2.444-4.596c0.604-1.525,1.024-2.946,1.272-4.262c0.25-1.314,0.411-2.323,0.5-3.018l3.071-23.266
			L56.741,17.727z"/>
		<path fill="#A2CE62" d="M150.284,43.291c-0.693-0.32-1.438-0.613-2.241-0.882c-0.664-0.251-1.454-0.499-2.359-0.748
			c-0.912-0.25-1.866-0.433-2.864-0.558c-1.476-0.183-2.819-0.197-4.026-0.046c-1.204,0.154-2.275,0.417-3.196,0.793
			c-0.923,0.373-1.71,0.814-2.376,1.318c-0.658,0.508-1.184,1.041-1.568,1.601l0.662-5.021l-20.497-1.483l-3.566,27.039
			c-0.561,0.267-1.137,0.495-1.716,0.695c-0.513,0.172-1.07,0.302-1.669,0.397c-0.609,0.094-1.206,0.101-1.796,0.029
			c-0.614-0.075-1.075-0.316-1.371-0.72c-0.295-0.411-0.491-0.875-0.601-1.39c-0.107-0.522-0.15-1.033-0.137-1.534
			c0.013-0.503,0.047-0.904,0.083-1.202l0.052-0.396l3.155-23.909l-20.226-3.528l-0.316,2.341c-0.849-0.684-1.939-1.348-3.268-2
			c-1.331-0.651-3.01-1.106-5.034-1.357c-2.407-0.301-4.504-0.243-6.288,0.177c-1.783,0.418-3.332,1.069-4.649,1.947
			c-1.323,0.882-2.426,1.948-3.31,3.204c-0.875,1.251-1.593,2.562-2.138,3.925c-0.545,1.362-0.975,2.725-1.275,4.088
			c-0.303,1.355-0.526,2.602-0.673,3.73l-0.989,7.455c-0.143,1.125-0.252,2.384-0.311,3.773c-0.059,1.392-0.007,2.814,0.173,4.268
			c0.173,1.452,0.524,2.892,1.058,4.321c0.519,1.431,1.303,2.732,2.338,3.905c1.028,1.168,2.352,2.177,3.974,3.018
			c1.621,0.838,3.625,1.413,6.036,1.706c1.985,0.251,3.705,0.219,5.144-0.09c1.437-0.311,2.636-0.688,3.608-1.142
			c1.117-0.532,2.045-1.212,2.781-2.03c0.365-0.358,0.632-0.78,0.792-1.266c0.884,1.827,2.269,3.439,4.163,4.837
			c1.886,1.394,4.515,2.307,7.886,2.722c1.134,0.142,2.248,0.161,3.345,0.062c1.096-0.102,2.169-0.288,3.219-0.56
			c1.046-0.272,2.059-0.604,3.008-0.988c0.961-0.39,1.869-0.797,2.737-1.231c0.169-0.087,0.334-0.185,0.503-0.275l-0.464,3.517
			l20.362,2.529l3.35-25.399c0.066-0.532,0.328-1.062,0.783-1.598c0.455-0.528,1.047-1.004,1.787-1.419
			c0.732-0.413,1.594-0.719,2.583-0.916c0.983-0.198,2.043-0.224,3.179-0.084c1.029,0.129,2.005,0.294,2.922,0.49
			c0.919,0.197,1.719,0.373,2.391,0.524c0.808,0.237,1.537,0.44,2.172,0.625L150.284,43.291z M80.107,63.422
			c-0.502,0.037-0.958,0.033-1.377-0.023c-0.627-0.077-1.079-0.413-1.379-1.002c-0.299-0.592-0.481-1.265-0.558-2.017
			c-0.081-0.75-0.097-1.501-0.047-2.252c0.043-0.755,0.092-1.311,0.14-1.676l0.104-0.794c0.049-0.366,0.144-0.908,0.293-1.633
			c0.15-0.723,0.359-1.434,0.636-2.143c0.263-0.708,0.616-1.309,1.056-1.815c0.44-0.497,0.966-0.713,1.597-0.633
			c0.209,0.024,0.42,0.067,0.645,0.129c0.225,0.063,0.453,0.141,0.692,0.238L80.107,63.422z"/>
		<path fill="#A2CE62" d="M276.58,86.215c-0.248,0.309-0.564,0.57-0.935,0.792c-0.316,0.199-0.689,0.353-1.146,0.467
			c-0.448,0.114-0.968,0.13-1.552,0.057c-0.517-0.065-0.916-0.25-1.204-0.552c-0.297-0.304-0.504-0.661-0.646-1.066
			c-0.144-0.405-0.228-0.832-0.247-1.296c-0.032-0.456-0.041-0.869-0.023-1.238c0.132-1.059,0.345-2.273,0.603-3.636
			c0.27-1.364,0.503-2.793,0.702-4.284c0.275-2.087,0.391-4.213,0.341-6.375c-0.042-2.158-0.479-4.177-1.291-6.042
			c-0.824-1.875-2.141-3.475-3.954-4.813c-1.807-1.338-4.354-2.209-7.619-2.613c-1.954-0.246-3.8-0.17-5.527,0.22
			c-1.733,0.392-3.24,0.897-4.545,1.508l0.385-2.934l-20.481-1.585l-3.576,27.097l-0.002-0.006c-0.553,0.27-1.132,0.499-1.71,0.695
			c-0.515,0.173-1.074,0.304-1.679,0.397c-0.607,0.096-1.202,0.103-1.782,0.029c-0.76-0.093-1.278-0.41-1.553-0.947
			c-0.279-0.542-0.465-1.137-0.548-1.786c-0.081-0.75-0.039-1.587,0.116-2.512l3.278-24.851l-18.466-1.389l-5.925-0.734
			l-1.873,14.167l3.918,0.486l-1.285,9.792c-0.086,0.595-0.231,1.529-0.455,2.797c-0.021,0.123-0.03,0.264-0.05,0.389
			c-0.551,0.261-1.108,0.49-1.683,0.682c-0.511,0.172-1.07,0.305-1.681,0.397c-0.603,0.094-1.205,0.103-1.786,0.033
			c-0.621-0.079-1.076-0.321-1.365-0.725c-0.296-0.409-0.498-0.873-0.608-1.392c-0.106-0.515-0.148-1.032-0.137-1.532
			c0.019-0.504,0.04-0.906,0.08-1.202l0.05-0.398l5.055-38.321l-20.492-1.537l-1.941,14.756c-0.862-0.677-1.947-1.342-3.274-1.993
			c-1.332-0.653-3.007-1.104-5.035-1.359c-2.404-0.297-4.5-0.235-6.285,0.184c-1.782,0.413-3.335,1.066-4.655,1.947
			c-1.323,0.878-2.416,1.944-3.302,3.2c-0.877,1.256-1.598,2.563-2.14,3.926c-0.548,1.367-0.975,2.727-1.271,4.087
			c-0.31,1.361-0.534,2.604-0.675,3.729l-0.984,7.459c-0.147,1.125-0.253,2.384-0.322,3.771c-0.052,1.393-0.001,2.814,0.176,4.268
			c0.179,1.453,0.528,2.895,1.056,4.322c0.521,1.431,1.308,2.731,2.333,3.903c1.039,1.172,2.356,2.181,3.982,3.021
			c1.619,0.839,3.622,1.409,6.028,1.712c1.996,0.246,3.713,0.212,5.149-0.095c1.439-0.309,2.641-0.688,3.608-1.143
			c1.117-0.538,2.046-1.211,2.782-2.03c0.332-0.396,0.598-0.817,0.797-1.265c0.442,0.929,1.001,1.799,1.699,2.609
			c0.694,0.814,1.525,1.557,2.487,2.23c0.953,0.674,2.084,1.245,3.385,1.71c1.302,0.462,2.789,0.799,4.474,1.007
			c1.136,0.146,2.252,0.166,3.345,0.066c1.093-0.104,2.167-0.289,3.216-0.562c1.048-0.275,2.06-0.608,3.009-0.989
			c0.967-0.391,1.874-0.798,2.741-1.229c1.079-0.557,2.126-1.18,3.147-1.859c0.309,0.699,0.673,1.38,1.117,2.037
			c0.988,1.467,2.396,2.748,4.203,3.833c1.816,1.083,4.22,1.809,7.212,2.181c1.132,0.141,2.247,0.162,3.345,0.064
			c1.093-0.102,2.159-0.291,3.213-0.562c1.052-0.272,2.049-0.602,3.011-0.987c0.956-0.389,1.869-0.798,2.732-1.231
			c0.171-0.088,0.336-0.186,0.505-0.276l-0.464,3.517l20.36,2.529l3.773-28.582c0.39-0.083,0.845-0.096,1.361-0.031
			c0.62,0.077,1.071,0.376,1.346,0.899c0.282,0.527,0.46,1.162,0.536,1.909c0.072,0.751,0.088,1.57,0.017,2.452
			c-0.062,0.888-0.147,1.71-0.25,2.473c-0.132,0.992-0.268,2.011-0.423,3.053c-0.158,1.042-0.32,2.208-0.489,3.5
			c-0.167,1.261-0.279,2.527-0.345,3.798c-0.06,1.273,0.011,2.519,0.218,3.741c0.204,1.221,0.577,2.38,1.111,3.473
			s1.326,2.093,2.361,2.993c1.028,0.906,2.342,1.675,3.929,2.307c1.598,0.637,3.562,1.101,5.894,1.392
			c1.135,0.142,2.233,0.16,3.291,0.058c1.063-0.104,2.107-0.296,3.122-0.573c1.011-0.28,1.963-0.614,2.854-1.011
			c0.887-0.395,1.729-0.81,2.524-1.25c1.81-1.022,3.485-2.248,5.036-3.673L276.58,86.215z M169.739,74.557
			c-0.505,0.039-0.959,0.032-1.381-0.022c-0.626-0.077-1.083-0.414-1.376-1.008c-0.295-0.593-0.484-1.264-0.557-2.02
			c-0.078-0.753-0.089-1.505-0.05-2.262c0.045-0.754,0.096-1.312,0.144-1.681l0.05-0.398l0.06-0.398
			c0.042-0.368,0.137-0.911,0.295-1.639c0.141-0.724,0.357-1.441,0.623-2.149c0.276-0.71,0.625-1.319,1.062-1.822
			c0.442-0.5,0.971-0.715,1.599-0.637c0.21,0.025,0.423,0.072,0.646,0.13c0.224,0.061,0.451,0.141,0.689,0.238L169.739,74.557z"/>
	</g>
	<g>
		<path fill="#EE4D74" d="M172.833,115.81c3.572,0.444,6.355,0.128,8.351-0.958c1.991-1.081,3.147-2.796,3.457-5.149
			c0.316-2.386-0.357-4.339-2.006-5.857c-1.651-1.521-4.264-2.5-7.83-2.945c-3.582-0.442-6.358-0.134-8.354,0.935
			c-1.994,1.066-3.142,2.791-3.459,5.18c-0.309,2.35,0.355,4.293,2.009,5.829C166.65,114.379,169.263,115.369,172.833,115.81z"/>
		<path fill="#EE4D74" d="M248.804,125.252c3.569,0.442,6.352,0.122,8.352-0.961c1.991-1.08,3.145-2.799,3.455-5.152
			c0.313-2.386-0.354-4.339-2.003-5.855c-1.655-1.521-4.268-2.502-7.835-2.948c-3.574-0.439-6.362-0.128-8.345,0.94
			c-2.003,1.064-3.15,2.787-3.471,5.173c-0.303,2.354,0.367,4.301,2.015,5.831C242.618,123.818,245.226,124.808,248.804,125.252z"/>
		<path fill="#EE4D74" d="M370.895,170.682c-0.562,0.271-1.14,0.497-1.719,0.693c-0.509,0.176-1.071,0.307-1.674,0.398
			c-0.608,0.098-1.204,0.103-1.792,0.034c-0.613-0.074-1.069-0.305-1.368-0.677c-0.304-0.373-0.512-0.815-0.618-1.314
			c-0.108-0.501-0.155-1.029-0.134-1.583c0.024-0.553,0.06-1.063,0.129-1.526l5.073-38.471l-20.494-1.536l-5.341,40.516
			c-0.565,0.266-1.132,0.494-1.713,0.691c-0.514,0.174-1.067,0.305-1.678,0.398c-0.604,0.093-1.202,0.103-1.787,0.028
			c-0.619-0.072-1.077-0.314-1.368-0.726c-0.298-0.404-0.495-0.867-0.603-1.39c-0.108-0.519-0.152-1.027-0.143-1.528
			c0.021-0.507,0.045-0.907,0.086-1.204l0.052-0.398l3.156-23.908l-20.234-3.521l-0.301,2.332c-0.86-0.679-1.946-1.342-3.276-2.001
			c-1.332-0.647-3.008-1.098-5.034-1.353c-2.407-0.299-4.5-0.242-6.285,0.179c-1.782,0.421-3.334,1.065-4.661,1.947
			c-1.315,0.879-2.419,1.948-3.298,3.2c-0.883,1.257-1.598,2.566-2.143,3.927c-0.544,1.364-0.974,2.73-1.271,4.09
			c-0.307,1.358-0.53,2.603-0.684,3.727l-0.98,7.455c-0.066,0.517-0.121,1.067-0.171,1.637l-0.031-0.092
			c-0.557,0.265-1.129,0.499-1.713,0.695c-0.517,0.172-1.071,0.306-1.683,0.398c-0.602,0.094-1.195,0.104-1.782,0.032
			c-0.615-0.078-1.077-0.295-1.377-0.655c-0.308-0.358-0.505-0.775-0.615-1.267c-0.116-0.482-0.163-0.983-0.148-1.506
			c0.021-0.517,0.055-0.993,0.112-1.426l1.328-10.09l4.95,0.614l3.878-13.914l-6.966-0.865l1.917-14.465l-20.489-1.532
			l-1.778,13.467l-3.872-0.477l-1.859,14.163l3.865,0.48l-1.281,9.691c-0.057,0.433-0.138,0.891-0.229,1.386
			c-0.098,0.456-0.192,1.075-0.298,1.847c-0.523,0.243-1.059,0.462-1.609,0.642c-0.509,0.18-1.073,0.311-1.676,0.4
			c-0.611,0.094-1.201,0.106-1.784,0.034c-0.621-0.078-1.077-0.297-1.374-0.651c-0.31-0.36-0.519-0.781-0.622-1.268
			c-0.118-0.483-0.16-0.981-0.148-1.505c0.023-0.521,0.057-0.997,0.113-1.428l3.336-25.252l-18.422-1.376l-5.977-0.747l-0.003,0.02
			l-19.563-3.407l-0.303,2.336c-0.859-0.678-1.949-1.343-3.277-1.999c-1.324-0.649-3.007-1.104-5.029-1.356
			c-2.406-0.299-4.498-0.24-6.282,0.181c-1.789,0.414-3.34,1.063-4.663,1.948c-1.316,0.874-2.42,1.943-3.3,3.197
			c-0.878,1.258-1.596,2.568-2.145,3.931c-0.545,1.36-0.971,2.726-1.271,4.086c-0.299,1.36-0.522,2.601-0.672,3.727l-0.981,7.457
			c-0.068,0.511-0.126,1.057-0.178,1.622l-0.027-0.079c-0.557,0.266-1.134,0.5-1.719,0.694c-0.513,0.175-1.074,0.307-1.679,0.397
			c-0.602,0.094-1.199,0.104-1.779,0.033c-0.622-0.078-1.086-0.298-1.382-0.654c-0.304-0.356-0.512-0.779-0.623-1.265
			c-0.116-0.486-0.156-0.985-0.139-1.504c0.013-0.521,0.05-1,0.11-1.431l3.33-25.249l-18.419-1.379l-5.976-0.743l-1.871,14.167
			l3.871,0.48l-1.126,8.55c-0.107,0.765-0.229,1.53-0.368,2.306c-0.13,0.772-0.244,1.49-0.329,2.155c0,0.002,0,0.005-0.001,0.007
			c-0.528,0.247-1.061,0.469-1.605,0.652c-0.511,0.176-1.065,0.306-1.68,0.396c-0.604,0.094-1.205,0.105-1.783,0.032
			c-0.617-0.076-1.078-0.319-1.363-0.726c-0.301-0.408-0.505-0.875-0.606-1.387c-0.118-0.522-0.153-1.033-0.143-1.534
			c0.017-0.505,0.045-0.901,0.078-1.206l0.057-0.395l5.054-38.324l-20.485-1.528l-1.949,14.751c-0.854-0.681-1.948-1.342-3.27-1.997
			c-1.334-0.645-3.018-1.102-5.039-1.354c-2.409-0.299-4.501-0.241-6.287,0.182c-1.785,0.417-3.328,1.064-4.654,1.945
			c-1.326,0.88-2.425,1.945-3.302,3.201c-0.881,1.254-1.593,2.563-2.145,3.93c-0.546,1.358-0.965,2.725-1.271,4.085
			c-0.302,1.358-0.529,2.604-0.677,3.728l-0.983,7.456c-0.146,1.132-0.255,2.384-0.312,3.773c-0.067,1.395-0.007,2.814,0.17,4.27
			c0.178,1.452,0.529,2.895,1.053,4.32c0.529,1.431,1.308,2.73,2.337,3.904c1.036,1.172,2.364,2.18,3.98,3.019
			c1.618,0.842,3.629,1.412,6.028,1.715c1.998,0.244,3.713,0.215,5.15-0.098c1.437-0.311,2.64-0.689,3.608-1.141
			c1.117-0.536,2.044-1.212,2.778-2.029c0.339-0.398,0.6-0.818,0.795-1.268c0.433,0.932,1.009,1.801,1.699,2.612
			c0.694,0.81,1.532,1.55,2.479,2.229c0.97,0.675,2.093,1.244,3.395,1.704c1.301,0.467,2.791,0.808,4.478,1.012
			c1.132,0.143,2.245,0.162,3.337,0.066c1.103-0.101,2.175-0.29,3.224-0.561c1.048-0.278,2.053-0.607,3.01-0.992
			c0.963-0.383,1.872-0.793,2.731-1.228c1.085-0.558,2.135-1.184,3.16-1.864c0.543,1.309,1.337,2.504,2.373,3.591
			c1.043,1.09,2.39,2.031,4.029,2.824c1.643,0.79,3.68,1.339,6.12,1.645c1.139,0.141,2.246,0.158,3.348,0.061
			c1.093-0.101,2.16-0.288,3.215-0.559c1.051-0.276,2.053-0.605,3.015-0.99c0.956-0.389,1.863-0.801,2.728-1.231
			c1.198-0.614,2.356-1.316,3.483-2.084c0.522,1.288,1.246,2.473,2.188,3.55c1.031,1.172,2.357,2.18,3.978,3.021
			c1.616,0.839,3.628,1.41,6.031,1.708c2.064,0.255,3.834,0.215,5.309-0.126c1.472-0.337,2.703-0.747,3.674-1.232
			c-0.163,0.954-0.518,1.743-1.074,2.368c-0.545,0.617-1.229,1.105-2.025,1.464c-0.796,0.355-1.691,0.579-2.68,0.676
			c-0.995,0.104-1.989,0.084-2.98-0.044c-0.79-0.097-1.582-0.227-2.361-0.389c-0.774-0.169-1.509-0.325-2.184-0.477
			c-0.782-0.196-1.52-0.405-2.222-0.627l-1.547,11.73c1.238,0.656,2.604,1.266,4.102,1.818c1.266,0.495,2.764,0.978,4.501,1.442
			c1.734,0.471,3.617,0.835,5.645,1.084c3.401,0.424,6.333,0.334,8.786-0.274c2.453-0.604,4.538-1.499,6.251-2.683
			c1.7-1.186,3.09-2.572,4.159-4.152c1.062-1.591,1.896-3.165,2.512-4.718c0.6-1.561,1.038-2.979,1.289-4.261
			c0.257-1.278,0.424-2.235,0.511-2.866l3.378-25.599l3.191,0.396l-1.124,8.552c-0.102,0.764-0.224,1.528-0.357,2.304
			c-0.139,0.775-0.252,1.494-0.34,2.157c-0.131,1.025-0.232,2.176-0.295,3.451c-0.059,1.267,0.005,2.576,0.215,3.912
			c0.203,1.337,0.587,2.667,1.126,3.98c0.542,1.316,1.336,2.514,2.378,3.604c1.042,1.094,2.386,2.031,4.026,2.823
			c1.644,0.795,3.684,1.344,6.125,1.646c1.14,0.142,2.25,0.162,3.344,0.063c1.096-0.102,2.161-0.288,3.213-0.561
			c1.056-0.278,2.056-0.605,3.015-0.993c0.961-0.385,1.869-0.796,2.723-1.223c1.068-0.552,2.106-1.166,3.119-1.835
			c0.011,0.025,0.019,0.051,0.029,0.076c0.545,1.294,1.344,2.482,2.412,3.56c1.06,1.068,2.405,1.999,4.033,2.772
			c1.631,0.777,3.642,1.314,6.047,1.608c1.137,0.143,2.247,0.163,3.346,0.066c1.103-0.102,2.171-0.292,3.22-0.562
			c1.049-0.274,2.047-0.605,3.007-0.992c0.962-0.384,1.866-0.793,2.731-1.226c1.2-0.615,2.356-1.318,3.481-2.086
			c0.522,1.291,1.246,2.476,2.188,3.548c1.034,1.172,2.359,2.18,3.979,3.023c1.62,0.839,3.632,1.41,6.037,1.706
			c1.992,0.249,3.707,0.217,5.144-0.09c1.436-0.311,2.641-0.693,3.612-1.146c1.111-0.533,2.041-1.208,2.775-2.027
			c0.368-0.358,0.629-0.783,0.795-1.266c0.878,1.828,2.265,3.438,4.164,4.839c1.887,1.393,4.516,2.304,7.89,2.719
			c1.134,0.14,2.248,0.162,3.339,0.065c1.094-0.104,2.166-0.29,3.216-0.561c1.052-0.276,2.055-0.606,3.016-0.991
			c0.961-0.389,1.86-0.798,2.726-1.229c1.089-0.56,2.145-1.188,3.172-1.871c0.016,0.041,0.029,0.082,0.046,0.123
			c0.527,1.296,1.31,2.481,2.363,3.556c1.041,1.071,2.38,1.993,4.009,2.77c1.62,0.771,3.638,1.311,6.048,1.609
			c1.133,0.142,2.249,0.162,3.338,0.065c1.101-0.104,2.176-0.29,3.22-0.564c1.052-0.274,2.054-0.604,3.015-0.989
			c0.954-0.389,1.861-0.794,2.729-1.227c1.938-1.005,3.799-2.205,5.556-3.607L370.895,170.682z M130.558,142.434
			c-0.5,0.042-0.96,0.037-1.382-0.017c-0.626-0.076-1.082-0.41-1.379-1.012c-0.289-0.589-0.477-1.264-0.556-2.019
			c-0.07-0.754-0.089-1.503-0.043-2.262c0.044-0.753,0.098-1.312,0.141-1.679l0.057-0.4l0.05-0.397
			c0.049-0.364,0.145-0.911,0.293-1.638c0.15-0.726,0.364-1.444,0.629-2.153c0.271-0.708,0.627-1.311,1.063-1.821
			c0.435-0.497,0.973-0.717,1.594-0.635c0.215,0.027,0.427,0.069,0.655,0.13c0.216,0.062,0.444,0.137,0.676,0.238L130.558,142.434z
			 M210.909,152.423c-0.501,0.036-0.962,0.03-1.375-0.02c-0.631-0.078-1.087-0.417-1.389-1.008
			c-0.289-0.591-0.474-1.263-0.553-2.012c-0.08-0.751-0.1-1.506-0.049-2.259c0.047-0.752,0.101-1.309,0.142-1.671l0.106-0.796
			c0.051-0.366,0.142-0.909,0.296-1.634c0.149-0.72,0.352-1.437,0.63-2.144c0.271-0.703,0.617-1.312,1.061-1.813
			c0.435-0.498,0.975-0.713,1.591-0.635c0.213,0.026,0.434,0.072,0.654,0.133c0.221,0.06,0.445,0.138,0.683,0.234L210.909,152.423z
			 M314.818,165.332c-0.506,0.036-0.969,0.032-1.384-0.02c-0.628-0.078-1.086-0.413-1.378-1.004
			c-0.295-0.593-0.482-1.262-0.558-2.016c-0.085-0.749-0.09-1.5-0.049-2.255c0.051-0.751,0.095-1.309,0.138-1.677l0.104-0.793
			c0.057-0.361,0.15-0.906,0.3-1.629c0.148-0.722,0.358-1.437,0.63-2.149c0.268-0.707,0.625-1.311,1.062-1.811
			c0.435-0.503,0.965-0.712,1.6-0.638c0.202,0.028,0.423,0.072,0.64,0.135c0.222,0.062,0.444,0.14,0.689,0.236L314.818,165.332z"/>
	</g>
	<path fill="#A2CE62" d="M210.591,14.555c-11.253,5.083-7.284,20.908-6.579,22.232c0.717,1.329,11.378,14.125,22.632,9.037
		c11.258-5.086,18.137-27.458,18.137-27.458S221.852,9.467,210.591,14.555"/>
	<path fill="#8DAE50" d="M217.015,15.712c0.485,0.166,0.732,0.675,0.562,1.137l-5.767,15.421l8.471-3.823l4.52-12.121
		c0.173-0.459,0.701-0.701,1.179-0.535c0.484,0.168,0.732,0.68,0.56,1.141l-3.893,10.444l8.548-3.871l2.525-6.75
		c0.167-0.462,0.696-0.7,1.178-0.533c0.48,0.163,0.729,0.678,0.561,1.136l-1.896,5.08l7.182-3.253
		c0.459-0.211,1.015-0.02,1.233,0.43c0.216,0.441,0.02,0.973-0.446,1.183l-11.104,5.025l7.626,2.65
		c0.48,0.165,0.733,0.677,0.56,1.141c-0.169,0.459-0.705,0.701-1.177,0.535l-9.369-3.256l-8.555,3.869l13.354,4.637
		c0.47,0.167,0.72,0.68,0.557,1.14c-0.179,0.467-0.709,0.702-1.19,0.536l-15.083-5.242l-8.466,3.825l15.73,5.466
		c0.476,0.167,0.729,0.68,0.559,1.142c-0.183,0.462-0.709,0.702-1.193,0.532l-17.427-6.057c-0.008-0.004-0.011-0.013-0.019-0.015
		l-1.875,0.847c-1.773,1.108-6.088,4.047-7.934,7.294c-0.252,0.43-0.816,0.587-1.261,0.35c-0.177-0.093-0.312-0.234-0.389-0.4
		c-0.124-0.249-0.075-0.525,0.027-0.809c2.208-6.507,14.868-10.811,14.868-10.811c-0.089-0.203,6.062-16.956,6.062-16.956
		C216.003,15.78,216.536,15.544,217.015,15.712"/>
	<g>
		<circle fill="#F6921E" cx="328.577" cy="79.877" r="32.605"/>
		<g opacity="0.7">
			<path fill="#858786" d="M359.681,197.676l-0.03-1.468c0.584-0.013,1.172-0.044,1.759-0.099l0.151-0.016l0.116,1.466l-0.128,0.011
				C360.929,197.628,360.303,197.663,359.681,197.676z M357.667,197.64c-0.627-0.035-1.259-0.092-1.887-0.168l-0.116-0.016
				l0.188-1.456l0.109,0.014c0.592,0.074,1.192,0.126,1.785,0.158L357.667,197.64z M363.678,197.3l-0.233-1.448
				c0.64-0.103,1.269-0.227,1.872-0.365l0.33,1.431C365.014,197.064,364.35,197.192,363.678,197.3z M353.693,197.156
				c-0.67-0.12-1.322-0.257-1.958-0.408l0.341-1.429c0.61,0.146,1.236,0.276,1.877,0.391L353.693,197.156z M367.582,196.413
				l-0.411-1.41c0.612-0.177,1.219-0.371,1.826-0.585l0.486,1.384C368.852,196.024,368.219,196.226,367.582,196.413z
				 M349.802,196.218c-0.657-0.202-1.296-0.425-1.899-0.661l0.534-1.366c0.57,0.221,1.176,0.433,1.799,0.625L349.802,196.218z
				 M211.132,196.096l-0.19-0.002v-1.467h0.201c0.573,0,1.15-0.014,1.72-0.042l0.074,1.465
				C212.344,196.083,211.741,196.096,211.132,196.096z M208.944,196.036c-0.65-0.035-1.312-0.088-1.984-0.152l0.145-1.462
				c0.649,0.064,1.291,0.114,1.921,0.148L208.944,196.036z M214.933,195.89l-0.162-1.457c0.644-0.073,1.271-0.164,1.89-0.274
				l0.259,1.446C216.27,195.719,215.601,195.816,214.933,195.89z M204.986,195.649c-0.661-0.094-1.314-0.195-1.96-0.308l0.253-1.446
				c0.629,0.109,1.266,0.208,1.91,0.298L204.986,195.649z M218.882,195.178l-0.358-1.426c0.626-0.156,1.241-0.332,1.842-0.521
				l0.442,1.399C220.18,194.831,219.537,195.012,218.882,195.178z M371.352,195.088l-0.563-1.356
				c0.615-0.256,1.199-0.509,1.768-0.772l0.614,1.332C372.587,194.562,371.983,194.827,371.352,195.088z M201.077,194.964
				c-0.656-0.139-1.301-0.294-1.933-0.453l0.363-1.424c0.614,0.158,1.24,0.305,1.877,0.442L201.077,194.964z M346.055,194.749
				c-0.604-0.293-1.202-0.613-1.775-0.948l0.742-1.268c0.54,0.316,1.104,0.617,1.675,0.896L346.055,194.749z M331.236,194.209
				c-0.489,0-0.983-0.013-1.483-0.04l0.082-1.467c0.641,0.036,1.271,0.05,1.9,0.034l0.033,1.467
				C331.592,194.208,331.414,194.209,331.236,194.209z M333.777,194.087l-0.144-1.461c0.634-0.062,1.266-0.144,1.896-0.246
				l0.236,1.45C335.104,193.937,334.44,194.023,333.777,194.087z M327.755,193.989c-0.674-0.086-1.33-0.187-1.975-0.301l0.261-1.446
				c0.618,0.112,1.25,0.209,1.896,0.289L327.755,193.989z M197.234,193.987c-0.654-0.19-1.286-0.385-1.895-0.585l0.458-1.395
				c0.593,0.194,1.209,0.385,1.846,0.567L197.234,193.987z M222.697,193.973l-0.524-1.372c0.6-0.229,1.187-0.476,1.76-0.741
				l0.613,1.334C223.94,193.474,223.318,193.735,222.697,193.973z M337.731,193.448l-0.325-1.434
				c0.296-0.066,0.593-0.139,0.886-0.213c0.321-0.084,0.644-0.176,0.962-0.269l0.417,1.408c-0.336,0.099-0.672,0.192-1.011,0.282
				C338.35,193.303,338.041,193.377,337.731,193.448z M374.962,193.416l-0.683-1.3c0.566-0.298,1.128-0.611,1.683-0.934l0.741,1.265
				C376.128,192.785,375.548,193.107,374.962,193.416z M323.821,193.274c-0.661-0.16-1.305-0.337-1.932-0.531l0.436-1.402
				c0.598,0.187,1.211,0.356,1.842,0.509L323.821,193.274z M193.467,192.747l-0.454-0.172c-0.465-0.173-0.935-0.356-1.397-0.543
				l0.555-1.36c0.449,0.183,0.903,0.36,1.363,0.529l0.438,0.168L193.467,192.747z M342.581,192.719
				c-0.242-0.167-0.481-0.337-0.716-0.512l-0.296,0.108l-0.492-1.382l1.034-0.383l0.322,0.248c0.319,0.243,0.647,0.479,0.981,0.712
				L342.581,192.719z M226.34,192.289L225.632,191c0.558-0.307,1.106-0.636,1.633-0.979l0.802,1.231
				C227.51,191.615,226.93,191.961,226.34,192.289z M319.991,192.076c-0.633-0.248-1.253-0.521-1.846-0.808l0.644-1.323
				c0.557,0.272,1.144,0.53,1.739,0.765L319.991,192.076z M378.397,191.403l-0.796-1.23c0.539-0.35,1.069-0.709,1.593-1.081
				l0.852,1.197C379.506,190.673,378.956,191.044,378.397,191.403z M189.791,191.241c-0.612-0.28-1.21-0.571-1.792-0.872
				l0.675-1.304c0.561,0.289,1.139,0.569,1.728,0.842L189.791,191.241z M307.361,191.224l-0.054-1.47h0.054
				c0.631,0,1.252-0.022,1.848-0.066l0.11,1.465C308.687,191.201,308.027,191.224,307.361,191.224z M305.299,191.15
				c-0.599-0.044-1.206-0.102-1.825-0.18l-0.161-0.021l0.183-1.456l0.16,0.019c0.594,0.075,1.176,0.132,1.749,0.174L305.299,191.15z
				 M311.325,190.916l-0.234-1.45c0.342-0.056,0.678-0.118,1.012-0.19c0.285-0.063,0.568-0.126,0.849-0.195l0.349,1.428
				c-0.29,0.072-0.587,0.137-0.89,0.204C312.053,190.788,311.692,190.854,311.325,190.916z M301.335,190.643
				c-0.667-0.124-1.32-0.268-1.957-0.428l0.357-1.423c0.608,0.152,1.231,0.287,1.869,0.407L301.335,190.643z M316.368,190.307
				c-0.248-0.148-0.491-0.301-0.729-0.459c-0.136,0.044-0.272,0.088-0.409,0.13l-0.433-1.403c0.243-0.074,0.479-0.152,0.712-0.232
				l0.348-0.118l0.302,0.206c0.314,0.214,0.636,0.417,0.965,0.615L316.368,190.307z M229.708,190.09l-0.891-1.167
				c0.509-0.389,1.003-0.796,1.47-1.21l0.975,1.1C230.768,189.25,230.245,189.678,229.708,190.09z M297.448,189.664
				c-0.646-0.21-1.285-0.444-1.89-0.694l0.557-1.356c0.574,0.234,1.175,0.455,1.786,0.655L297.448,189.664z M186.263,189.452
				l-1.732-0.915l0.688-1.299l1.73,0.916L186.263,189.452z M381.643,189.099l-0.903-1.156l1.524-1.214l0.916,1.146L381.643,189.099z
				 M293.72,188.125c-0.647-0.339-1.212-0.659-1.749-0.989l0.768-1.252c0.511,0.314,1.044,0.617,1.589,0.901L293.72,188.125z
				 M278.889,187.708c-0.468,0-0.939-0.012-1.412-0.036l0.077-1.468c0.637,0.032,1.266,0.044,1.9,0.028l0.037,1.468
				C279.289,187.707,279.089,187.708,278.889,187.708z M182.8,187.623l-2.103-1.115l0.067-0.507l0.75,0.056l0.32-0.608l1.652,0.875
				L182.8,187.623z M281.497,187.581l-0.143-1.462c0.631-0.061,1.263-0.145,1.894-0.247l0.238,1.449
				C282.824,187.43,282.154,187.516,281.497,187.581z M275.476,187.493c-0.675-0.084-1.331-0.181-1.973-0.293l0.252-1.446
				c0.618,0.106,1.251,0.199,1.9,0.281L275.476,187.493z M232.719,187.428l-1.051-1.025c0.445-0.455,0.874-0.93,1.279-1.41
				l1.123,0.943C233.645,186.447,233.188,186.948,232.719,187.428z M285.45,186.93l-0.325-1.431
				c0.272-0.062,0.546-0.132,0.818-0.202c0.343-0.088,0.686-0.185,1.028-0.284l0.419,1.407c-0.358,0.106-0.719,0.207-1.081,0.301
				C286.024,186.795,285.737,186.866,285.45,186.93z M271.542,186.797c-0.657-0.154-1.31-0.332-1.937-0.524l0.432-1.404
				c0.595,0.184,1.215,0.351,1.841,0.499L271.542,186.797z M384.71,186.653l-0.915-1.147l1.53-1.22l0.917,1.146L384.71,186.653z
				 M290.298,186.016c-0.18-0.128-0.356-0.261-0.532-0.395c-0.157,0.059-0.316,0.118-0.477,0.175l-0.496-1.381
				c0.281-0.102,0.56-0.206,0.835-0.312l0.391-0.15l0.328,0.261c0.265,0.21,0.535,0.413,0.812,0.615L290.298,186.016z
				 M267.705,185.614c-0.576-0.225-1.15-0.473-1.706-0.739l-0.143-0.064l0.645-1.321l0.112,0.054
				c0.539,0.258,1.081,0.492,1.625,0.701L267.705,185.614z M235.309,184.35l-1.193-0.859c0.145-0.198,0.284-0.399,0.421-0.6
				c0.218-0.326,0.432-0.655,0.637-0.987l1.247,0.775c-0.214,0.345-0.437,0.688-0.666,1.029
				C235.606,183.927,235.459,184.139,235.309,184.35z M251.578,184.232l-0.036-1.469c0.557-0.012,1.12-0.044,1.695-0.096
				l0.206-0.021l0.139,1.464l-0.209,0.019C252.761,184.185,252.165,184.217,251.578,184.232z M387.771,184.209l-0.493-0.617
				l-0.532,0.183l-0.586-1.697l1.387-0.48l0.757,2.189L387.771,184.209z M249.564,184.202c-0.651-0.032-1.312-0.091-1.967-0.173
				l0.054-0.732l0.111-0.726l-0.111,0.726l0.119-0.726c0.628,0.08,1.254,0.134,1.869,0.166L249.564,184.202z M182.489,184.164
				l-1.457-0.192l0.256-1.939l1.455,0.19L182.489,184.164z M264.081,183.867c-0.577-0.336-1.151-0.697-1.701-1.075l0.829-1.21
				c0.522,0.356,1.062,0.697,1.609,1.016L264.081,183.867z M255.573,183.845l-0.238-1.448c0.625-0.103,1.249-0.225,1.876-0.369
				l0.328,1.433C256.884,183.611,256.229,183.739,255.573,183.845z M245.588,183.729c-0.671-0.118-1.323-0.251-1.958-0.399
				l0.337-1.43c0.608,0.142,1.232,0.271,1.876,0.383L245.588,183.729z M259.479,182.946l-0.424-1.404
				c0.622-0.188,1.229-0.389,1.822-0.604l0.496,1.381C260.756,182.542,260.124,182.751,259.479,182.946z M241.692,182.803
				c-0.646-0.198-1.285-0.417-1.899-0.655l0.532-1.37c0.579,0.225,1.185,0.435,1.798,0.623L241.692,182.803z M237.941,181.345
				c-0.315-0.154-0.613-0.318-0.912-0.483l-0.293-0.16l0.053-0.098l-0.642-0.354c0.099-0.179,0.195-0.358,0.29-0.535l0.348-0.657
				l0.954,0.519c0.277,0.154,0.553,0.309,0.845,0.449L237.941,181.345z M183,180.282l-1.455-0.192l0.254-1.941l1.457,0.192
				L183,180.282z M385.519,180.225l-0.639-1.849l1.388-0.479l0.64,1.85L385.519,180.225z M384.241,176.527l-0.641-1.853l1.389-0.48
				l0.639,1.853L384.241,176.527z M183.513,176.399l-1.457-0.19l0.255-1.942l1.456,0.19L183.513,176.399z M175.131,174.806h-0.126
				c-0.618,0-1.252-0.021-1.884-0.067l0.105-1.465c0.595,0.042,1.188,0.062,1.779,0.062h0.126V174.806z M177.141,174.718
				l-0.111-1.464l0.249-0.021c0.553-0.05,1.1-0.116,1.646-0.194l0.211,1.454c-0.574,0.081-1.146,0.15-1.718,0.203L177.141,174.718z
				 M171.128,174.528c-0.676-0.096-1.331-0.202-1.97-0.324l0.275-1.44c0.614,0.116,1.244,0.219,1.894,0.309L171.128,174.528z
				 M181.109,174.135l-0.304-1.438c0.432-0.089,0.864-0.192,1.297-0.303c0.179-0.046,0.358-0.101,0.538-0.156l0.431,1.404
				c-0.199,0.06-0.4,0.12-0.601,0.172C182.015,173.935,181.562,174.04,181.109,174.135z M167.205,173.773
				c-0.652-0.164-1.301-0.351-1.928-0.555l0.453-1.396c0.596,0.194,1.213,0.371,1.833,0.527L167.205,173.773z M382.962,172.824
				l-0.639-1.85l1.388-0.48l0.639,1.851L382.962,172.824z M163.388,172.525c-0.462-0.19-0.917-0.391-1.358-0.604
				c-0.161-0.078-0.318-0.156-0.477-0.236l0.668-1.309c0.146,0.074,0.294,0.15,0.444,0.223c0.417,0.198,0.843,0.389,1.278,0.568
				L163.388,172.525z M147.23,171.328l-0.007-1.469c0.621-0.004,1.243-0.03,1.901-0.082l0.115,1.464
				C148.545,171.295,147.889,171.325,147.23,171.328z M145.22,171.265c-0.516-0.034-1.031-0.084-1.544-0.146l-0.452-0.06l0.2-1.455
				l0.433,0.057c0.487,0.06,0.975,0.106,1.463,0.142L145.22,171.265z M151.236,171.006l-0.22-1.452
				c0.627-0.096,1.253-0.208,1.882-0.343l0.309,1.435C152.548,170.789,151.892,170.907,151.236,171.006z M141.251,170.738
				c-0.666-0.128-1.317-0.276-1.953-0.44l0.367-1.422c0.608,0.158,1.231,0.298,1.866,0.421L141.251,170.738z M159.794,170.705
				c-0.574-0.349-1.138-0.72-1.678-1.106l0.852-1.195c0.514,0.366,1.048,0.719,1.589,1.048L159.794,170.705z M155.152,170.162
				l-0.401-1.412c0.619-0.177,1.229-0.371,1.828-0.579l0.48,1.39C156.436,169.773,155.8,169.977,155.152,170.162z M137.374,169.729
				c-0.197-0.064-0.392-0.131-0.583-0.2c-0.438-0.156-0.874-0.319-1.302-0.497l0.562-1.358c0.404,0.168,0.815,0.326,1.232,0.473
				c0.183,0.064,0.366,0.128,0.551,0.19L137.374,169.729z M381.683,169.124l-0.638-1.853l1.387-0.479l0.64,1.851L381.683,169.124z
				 M122.771,168.34c-0.651-0.01-1.324-0.042-2.003-0.098l0.117-1.465c0.65,0.053,1.286,0.086,1.908,0.093L122.771,168.34z
				 M124.784,168.296l-0.09-1.467c0.643-0.038,1.279-0.104,1.887-0.191l0.211,1.452
				C126.143,168.186,125.466,168.254,124.784,168.296z M133.659,168.192c-0.601-0.304-1.195-0.633-1.762-0.981l0.766-1.254
				c0.534,0.327,1.093,0.639,1.658,0.926L133.659,168.192z M118.778,168.024c-0.675-0.096-1.332-0.204-1.969-0.33l0.282-1.44
				c0.612,0.12,1.243,0.224,1.892,0.314L118.778,168.024z M128.773,167.711l-0.33-1.431c0.643-0.149,1.258-0.31,1.851-0.484
				l0.416,1.408C130.092,167.387,129.447,167.555,128.773,167.711z M114.854,167.249c-0.659-0.176-1.307-0.37-1.924-0.579
				l0.474-1.39c0.584,0.196,1.198,0.381,1.824,0.547L114.854,167.249z M111.049,165.945c-0.549-0.236-1.079-0.489-1.602-0.762
				l-0.215-0.114l0.688-1.294l0.204,0.104c0.492,0.255,0.993,0.493,1.507,0.717L111.049,165.945z M380.405,165.421l-0.641-1.851
				l1.39-0.48l0.639,1.851L380.405,165.421z M107.491,164.062c-0.567-0.354-1.127-0.737-1.663-1.136l0.878-1.178
				c0.505,0.374,1.031,0.736,1.566,1.073L107.491,164.062z M379.127,161.72l-0.64-1.85l1.389-0.48l0.64,1.85L379.127,161.72z
				 M104.26,161.656c-0.508-0.452-1-0.923-1.455-1.4l1.062-1.014c0.427,0.447,0.887,0.89,1.366,1.312L104.26,161.656z
				 M101.478,158.729c-0.42-0.528-0.821-1.077-1.191-1.63l1.219-0.817c0.349,0.521,0.724,1.035,1.12,1.532L101.478,158.729z
				 M377.847,158.02l-0.477-1.386l-1.779,0.855l0.244-1.859l0.394,0.054l-0.052-0.105l1.301-0.625l0.462,0.963l0.657-0.229
				l0.639,1.853L377.847,158.02z M99.236,155.375c-0.325-0.588-0.629-1.196-0.901-1.808l1.343-0.597
				c0.254,0.573,0.539,1.146,0.842,1.696L99.236,155.375z M377.546,153.881l-1.455-0.19l0.256-1.94l1.456,0.19L377.546,153.881z
				 M97.595,151.688c-0.222-0.633-0.422-1.27-0.601-1.909l1.414-0.396c0.171,0.609,0.363,1.218,0.575,1.823L97.595,151.688z
				 M378.059,150l-1.456-0.192l0.257-1.941l1.454,0.194L378.059,150z M96.518,147.831c-0.137-0.651-0.254-1.316-0.347-1.978
				l1.453-0.204c0.088,0.627,0.2,1.26,0.331,1.879L96.518,147.831z M378.57,146.118l-1.455-0.192l0.256-1.941l1.456,0.194
				L378.57,146.118z M95.948,143.868c-0.055-0.669-0.094-1.334-0.114-1.993l1.468-0.046c0.019,0.635,0.057,1.272,0.111,1.917
				L95.948,143.868z M379.083,142.235l-1.456-0.191l0.256-1.941l1.455,0.19L379.083,142.235z M97.295,139.912l-1.468-0.038
				c0.007-0.252,0.016-0.499,0.028-0.749c0.017-0.407,0.037-0.821,0.064-1.232l1.465,0.089c-0.026,0.404-0.046,0.807-0.062,1.208
				C97.311,139.433,97.302,139.671,97.295,139.912z M379.595,138.353l-1.456-0.19l0.255-1.942l1.457,0.19L379.595,138.353z
				 M97.538,136.058l-1.459-0.146c0.05-0.499,0.107-0.992,0.169-1.479l0.064-0.487l1.457,0.192l-0.066,0.485
				C97.643,135.094,97.589,135.575,97.538,136.058z M380.106,134.471l-1.456-0.192l0.255-1.941l1.457,0.192L380.106,134.471z
				 M98.024,132.196l-1.457-0.19l0.255-1.941l1.457,0.19L98.024,132.196z M380.618,130.587l-1.456-0.19l0.257-1.941l1.456,0.19
				L380.618,130.587z M98.537,128.313l-1.457-0.191l0.152-1.164c0.034-0.259,0.072-0.521,0.111-0.791l1.453,0.222
				c-0.039,0.257-0.075,0.513-0.107,0.762L98.537,128.313z M381.129,126.707l-1.455-0.192l0.256-1.94l1.456,0.19L381.129,126.707z
				 M99.122,124.486l-1.443-0.274c0.121-0.63,0.253-1.278,0.401-1.939l1.434,0.316C99.369,123.236,99.238,123.867,99.122,124.486z
				 M381.643,122.823l-1.456-0.19l0.256-1.941l1.455,0.192L381.643,122.823z M99.983,120.729l-1.415-0.395
				c0.179-0.643,0.376-1.279,0.587-1.908l1.393,0.467C100.343,119.501,100.156,120.113,99.983,120.729z M382.154,118.941
				l-0.69-0.091l-0.003,0.038l-1.258-0.096l0.109-1.465l2.032,0.154L382.154,118.941z M378.252,118.646L376.3,118.5l0.108-1.464
				l1.952,0.146L378.252,118.646z M374.346,118.354l-1.951-0.146l0.109-1.464l1.952,0.146L374.346,118.354z M370.442,118.061
				l-1.954-0.146l0.11-1.466l1.953,0.146L370.442,118.061z M366.536,117.769l-1.951-0.148l0.109-1.464l1.952,0.147L366.536,117.769z
				 M362.632,117.476l-1.953-0.148l0.11-1.464l1.952,0.146L362.632,117.476z M358.727,117.182l-1.952-0.146l0.11-1.466l1.952,0.147
				L358.727,117.182z M101.208,117.091l-1.367-0.536l0.056-0.139c0.232-0.575,0.481-1.144,0.749-1.702l1.326,0.631
				c-0.253,0.532-0.491,1.073-0.714,1.62L101.208,117.091z M354.822,116.889l-1.954-0.146l0.07-0.916
				c-0.202,0.137-0.406,0.272-0.609,0.407l-0.804-1.23c0.536-0.351,1.064-0.713,1.585-1.09l0.86,1.188
				c-0.104,0.076-0.209,0.151-0.313,0.226l1.273,0.097L354.822,116.889z M355.559,113.903l-0.913-1.148
				c0.504-0.398,0.997-0.811,1.479-1.231l0.965,1.107C356.588,113.067,356.078,113.492,355.559,113.903z M102.846,113.648
				l-1.28-0.719c0.324-0.581,0.671-1.153,1.033-1.715l1.232,0.796C103.486,112.546,103.158,113.093,102.846,113.648z
				 M358.561,111.29l-1.013-1.063c0.463-0.442,0.917-0.895,1.36-1.359l1.063,1.014C359.512,110.363,359.041,110.832,358.561,111.29z
				 M104.918,110.443l-1.174-0.881c0.406-0.54,0.836-1.065,1.285-1.562l1.09,0.981C105.703,109.446,105.298,109.938,104.918,110.443
				z M361.313,108.414l-1.106-0.967c0.422-0.481,0.832-0.975,1.231-1.479l1.15,0.915
				C362.174,107.403,361.75,107.912,361.313,108.414z M107.447,107.63l-1.002-1.073c0.485-0.453,1-0.896,1.532-1.314l0.908,1.152
				C108.387,106.788,107.902,107.203,107.447,107.63z M363.793,105.299l-1.19-0.863c0.376-0.519,0.739-1.046,1.091-1.583
				l1.229,0.806C364.558,104.215,364.182,104.762,363.793,105.299z M110.422,105.285l-0.811-1.224
				c0.556-0.368,1.138-0.719,1.733-1.043l0.701,1.289C111.49,104.612,110.944,104.941,110.422,105.285z M113.749,103.472
				l-0.595-1.344c0.602-0.267,1.233-0.517,1.875-0.741l0.486,1.384C114.91,102.984,114.314,103.221,113.749,103.472z
				 M117.335,102.208l-0.386-1.418c0.317-0.086,0.637-0.166,0.961-0.242c0.326-0.078,0.662-0.149,1.001-0.215l0.273,1.445
				c-0.316,0.06-0.629,0.126-0.938,0.198C117.938,102.048,117.635,102.125,117.335,102.208z M365.975,101.97l-1.263-0.749
				c0.327-0.549,0.642-1.108,0.942-1.675l1.297,0.689C366.638,100.823,366.313,101.401,365.975,101.97z M121.064,101.5l-0.156-1.461
				c0.66-0.07,1.336-0.116,2.006-0.14l0.049,1.469C122.327,101.389,121.687,101.433,121.064,101.5z M126.899,101.49l-0.691-0.053
				c-0.451-0.032-0.895-0.057-1.333-0.069l0.044-1.469c0.459,0.014,0.926,0.039,1.398,0.075l-0.011,0.141l0.762,0.102
				L126.899,101.49z M367.846,98.458l-1.327-0.629c0.274-0.578,0.535-1.163,0.782-1.755l1.355,0.566
				C368.399,97.253,368.129,97.86,367.846,98.458z M127.325,98.276l-1.456-0.193l0.256-1.941l1.457,0.193L127.325,98.276z
				 M126.685,95.285l-1.942-0.242l0.182-1.458l1.942,0.244L126.685,95.285z M122.799,94.802l-1.942-0.242l0.182-1.458l1.944,0.243
				L122.799,94.802z M369.382,94.788l-1.378-0.505c0.22-0.6,0.426-1.207,0.618-1.819l1.4,0.439
				C369.824,93.539,369.611,94.167,369.382,94.788z M118.914,94.319l-1.944-0.242l0.183-1.457l1.941,0.242L118.914,94.319z
				 M115.028,93.836l-1.944-0.241l0.18-1.457l1.944,0.241L115.028,93.836z M111.141,93.354l-1.943-0.241l0.181-1.457l1.942,0.241
				L111.141,93.354z M107.255,92.87l-1.942-0.241l0.18-1.457l1.943,0.241L107.255,92.87z M103.37,92.388l-1.943-0.241l0.18-1.458
				l1.944,0.242L103.37,92.388z M95.642,92.333c-0.668-0.024-1.344-0.074-2.006-0.147l0.161-1.459
				c0.627,0.068,1.267,0.116,1.899,0.139L95.642,92.333z M97.653,92.331l-0.056-1.466c0.435-0.017,0.873-0.046,1.315-0.086
				c0.188-0.018,0.378-0.041,0.57-0.065l0.188,1.457c-0.206,0.027-0.414,0.052-0.622,0.072
				C98.577,92.284,98.114,92.314,97.653,92.331z M91.655,91.911c-0.668-0.111-1.321-0.239-1.96-0.384l0.324-1.432
				c0.613,0.139,1.24,0.261,1.88,0.368L91.655,91.911z M87.753,91.024c-0.655-0.194-1.298-0.407-1.907-0.634l0.514-1.376
				c0.578,0.216,1.186,0.418,1.809,0.601L87.753,91.024z M370.576,90.992l-1.419-0.375c0.162-0.617,0.312-1.239,0.446-1.869
				l1.437,0.311C370.899,89.708,370.745,90.353,370.576,90.992z M83.987,89.614c-0.617-0.286-1.22-0.598-1.794-0.926l0.729-1.275
				c0.538,0.308,1.104,0.601,1.686,0.87L83.987,89.614z M72.771,89.364c-0.521,0-1.05-0.014-1.586-0.043l0.08-1.467
				c0.511,0.028,1.012,0.042,1.506,0.042l0.4-0.003l0.022,1.469L72.771,89.364z M75.206,89.251l-0.137-1.462
				c0.64-0.061,1.269-0.147,1.874-0.257l0.267,1.442C76.561,89.094,75.889,89.188,75.206,89.251z M69.191,89.147l-0.311-0.037
				c-0.564-0.068-1.121-0.15-1.669-0.244l0.248-1.447c0.525,0.09,1.059,0.167,1.601,0.235l0.297,0.036L69.191,89.147z
				 M79.168,88.535l-0.365-1.422c0.636-0.164,1.245-0.34,1.833-0.534l0.458,1.396C80.48,88.175,79.833,88.365,79.168,88.535z
				 M65.249,88.47c-0.659-0.156-1.311-0.332-1.937-0.523l0.431-1.403c0.598,0.182,1.213,0.348,1.844,0.496L65.249,88.47z
				 M61.411,87.285c-0.634-0.248-1.255-0.518-1.846-0.806l0.642-1.32c0.556,0.271,1.141,0.526,1.739,0.76L61.411,87.285z
				 M371.414,87.103l-1.449-0.243c0.106-0.629,0.198-1.265,0.275-1.903l1.458,0.174C371.619,85.792,371.523,86.449,371.414,87.103z
				 M57.792,85.524c-0.582-0.339-1.154-0.703-1.699-1.083l0.838-1.206c0.513,0.356,1.052,0.702,1.6,1.021L57.792,85.524z
				 M35.857,84.594l-0.03-1.468c0.649-0.013,1.286-0.045,1.915-0.094l0.113,1.464C37.199,84.547,36.533,84.581,35.857,84.594z
				 M33.859,84.582c-0.651-0.021-1.314-0.058-1.988-0.111l0.115-1.465c0.652,0.052,1.293,0.087,1.921,0.107L33.859,84.582z
				 M39.848,84.276l-0.209-1.453c0.643-0.092,1.275-0.205,1.877-0.337l0.311,1.437C41.191,84.06,40.525,84.179,39.848,84.276z
				 M29.891,84.27c-0.722-0.09-1.344-0.178-1.963-0.274l0.227-1.452c0.604,0.095,1.211,0.18,1.823,0.257L29.891,84.27z
				 M25.974,83.656c-0.654-0.126-1.301-0.261-1.941-0.408l0.328-1.432c0.624,0.143,1.255,0.275,1.891,0.397L25.974,83.656z
				 M43.77,83.432l-0.401-1.413c0.621-0.177,1.228-0.371,1.821-0.578l0.49,1.384C45.057,83.044,44.421,83.246,43.77,83.432z
				 M54.484,83.228c-0.522-0.427-1.028-0.881-1.504-1.347l1.024-1.051c0.448,0.437,0.922,0.862,1.411,1.262L54.484,83.228z
				 M371.893,83.151l-1.465-0.109c0.049-0.637,0.08-1.278,0.1-1.923l1.467,0.043C371.976,81.83,371.94,82.492,371.893,83.151z
				 M22.108,82.771c-0.662-0.178-1.295-0.352-1.904-0.53l0.413-1.409c0.597,0.174,1.22,0.347,1.87,0.52L22.108,82.771z
				 M47.548,82.095l-0.578-1.35c0.585-0.251,1.165-0.524,1.725-0.811l0.671,1.305C48.777,81.542,48.165,81.831,47.548,82.095z
				 M18.315,81.663c-0.567-0.181-1.115-0.367-1.643-0.554l-0.228-0.077l0.479-1.389l0.224,0.077
				c0.532,0.188,1.063,0.367,1.615,0.544L18.315,81.663z M51.587,80.394c-0.078-0.096-0.156-0.193-0.233-0.292
				c-0.076,0.05-0.156,0.1-0.235,0.147l-0.768-1.251c0.258-0.159,0.515-0.322,0.763-0.488l0.566-0.376l0.599,0.766
				c0.146,0.188,0.291,0.375,0.442,0.56L51.587,80.394z M14.582,80.358c-0.623-0.237-1.236-0.48-1.841-0.731l0.565-1.355
				c0.589,0.245,1.189,0.483,1.796,0.714L14.582,80.358z M370.539,79.196c-0.009-0.645-0.034-1.286-0.074-1.924l1.466-0.088
				c0.042,0.659,0.066,1.321,0.077,1.989L370.539,79.196z M10.937,78.84l-1.794-0.825l0.614-1.334l1.692,0.778L10.937,78.84z
				 M286.676,77.59l-1.466-0.078c0.013-0.225,0.025-0.447,0.041-0.67l-0.487,0.168l-0.639-1.851l1.389-0.48l0.307,0.893l1.002,0.1
				C286.76,76.307,286.711,76.947,286.676,77.59z M7.364,77.199l-1.779-0.817l0.612-1.334l1.779,0.817L7.364,77.199z M3.809,75.565
				l-0.497-0.225l0.016-0.565l0.248-1.882l1.456,0.191l-0.248,1.881l-0.696-0.091L3.809,75.565z M370.304,75.356
				c-0.068-0.64-0.151-1.276-0.248-1.908l1.452-0.222c0.099,0.653,0.186,1.312,0.257,1.974L370.304,75.356z M287.057,73.763
				l-1.452-0.212c0.096-0.66,0.207-1.314,0.333-1.964l1.441,0.279C287.258,72.493,287.15,73.126,287.057,73.763z M283.486,73.309
				l-0.39-1.13l0.005-0.14c0.015-0.296,0.025-0.593,0.034-0.889l1.467,0.041c-0.006,0.258-0.016,0.516-0.026,0.775l0.298,0.864
				L283.486,73.309z M369.72,71.555c-0.127-0.63-0.268-1.255-0.422-1.877l1.425-0.354c0.159,0.643,0.305,1.29,0.436,1.943
				L369.72,71.555z M5.289,71.145l-1.456-0.191l0.256-1.942l1.456,0.191L5.289,71.145z M287.787,69.987l-1.428-0.344
				c0.157-0.648,0.327-1.29,0.512-1.925l1.411,0.411C288.104,68.741,287.938,69.362,287.787,69.987z M283.153,69.217
				c-0.003-0.225-0.007-0.448-0.012-0.672c-0.007-0.417-0.024-0.832-0.052-1.243l1.465-0.095c0.029,0.434,0.047,0.868,0.056,1.307
				c0.006,0.228,0.01,0.459,0.012,0.691L283.153,69.217z M368.788,67.823c-0.184-0.616-0.383-1.227-0.594-1.83l1.387-0.485
				c0.218,0.625,0.424,1.257,0.615,1.895L368.788,67.823z M5.8,67.262l-1.455-0.191l0.255-1.941l1.456,0.191L5.8,67.262z
				 M288.861,66.295l-1.389-0.476c0.215-0.629,0.442-1.253,0.687-1.868l1.366,0.537C289.292,65.085,289.07,65.688,288.861,66.295z
				 M282.897,65.409c-0.088-0.629-0.199-1.259-0.332-1.873l1.436-0.31c0.141,0.65,0.258,1.316,0.351,1.982L282.897,65.409z
				 M367.516,64.19c-0.24-0.596-0.496-1.186-0.763-1.771l1.336-0.609c0.276,0.604,0.539,1.214,0.788,1.832L367.516,64.19z
				 M6.313,63.38l-1.456-0.191l0.254-1.941l1.457,0.191L6.313,63.38z M290.271,62.72l-1.342-0.6
				c0.272-0.606,0.558-1.205,0.856-1.794l1.311,0.661C290.808,61.558,290.531,62.135,290.271,62.72z M282.097,61.69
				c-0.18-0.606-0.383-1.213-0.606-1.803l1.373-0.52c0.237,0.625,0.452,1.266,0.642,1.908L282.097,61.69z M365.912,60.688
				c-0.296-0.572-0.603-1.136-0.923-1.693l1.276-0.73c0.328,0.576,0.646,1.16,0.951,1.75L365.912,60.688z M6.824,59.498
				l-1.456-0.191l0.255-1.941l1.457,0.191L6.824,59.498z M292,59.292l-1.278-0.718c0.325-0.581,0.663-1.15,1.016-1.711l1.244,0.778
				C292.642,58.183,292.315,58.733,292,59.292z M280.75,58.142c-0.269-0.563-0.568-1.125-0.89-1.669l1.264-0.748
				c0.344,0.582,0.665,1.182,0.953,1.787L280.75,58.142z M363.992,57.349c-0.345-0.543-0.703-1.077-1.071-1.601l1.2-0.845
				c0.383,0.542,0.752,1.095,1.11,1.656L363.992,57.349z M294.038,56.035l-1.209-0.833c0.378-0.547,0.768-1.084,1.17-1.611
				l1.167,0.889C294.778,54.99,294.402,55.508,294.038,56.035z M7.336,55.616l-1.458-0.192l0.257-1.941l1.457,0.193L7.336,55.616z
				 M278.823,54.892c-0.366-0.507-0.761-1.006-1.175-1.483l1.11-0.961c0.441,0.51,0.863,1.042,1.255,1.584L278.823,54.892z
				 M361.777,54.199c-0.394-0.506-0.798-1.005-1.214-1.494l1.119-0.951c0.429,0.505,0.848,1.021,1.256,1.547L361.777,54.199z
				 M296.364,52.977l-1.126-0.94c0.425-0.51,0.863-1.01,1.312-1.5l1.082,0.993C297.199,52.002,296.777,52.485,296.364,52.977z
				 M276.347,52.034c-0.451-0.437-0.926-0.862-1.414-1.263l0.933-1.134c0.519,0.426,1.024,0.878,1.505,1.344L276.347,52.034z
				 M7.848,51.732l-1.457-0.19L6.646,49.6l1.457,0.191L7.848,51.732z M359.284,51.269c-0.438-0.469-0.885-0.929-1.343-1.378
				l1.028-1.048c0.473,0.465,0.936,0.94,1.39,1.424L359.284,51.269z M298.964,50.141l-1.038-1.041
				c0.471-0.468,0.951-0.926,1.442-1.373l0.988,1.085C299.882,49.245,299.417,49.688,298.964,50.141z M273.422,49.624
				c-0.51-0.352-1.048-0.688-1.603-0.998l0.719-1.28c0.593,0.333,1.174,0.694,1.719,1.072L273.422,49.624z M356.536,48.577
				c-0.478-0.427-0.966-0.843-1.464-1.25l0.929-1.137c0.515,0.419,1.02,0.851,1.514,1.293L356.536,48.577z M23.435,48.262
				l-1.35-0.297l0.144-0.669l-0.145-0.019l0.18-1.36l1.456,0.191L23.435,48.262z M8.358,47.851l-1.456-0.193l0.256-1.941
				l1.457,0.193L8.358,47.851z M270.129,47.775c-0.56-0.254-1.154-0.495-1.763-0.714l0.5-1.38c0.645,0.232,1.272,0.487,1.868,0.755
				L270.129,47.775z M301.811,47.552l-0.938-1.129c0.51-0.424,1.031-0.836,1.561-1.238l0.886,1.172
				C302.808,46.745,302.304,47.142,301.811,47.552z M20.19,47.457l-1.93-0.618l0.45-1.397l1.853,0.596L20.19,47.457z
				 M266.554,46.481c-0.603-0.17-1.223-0.323-1.858-0.46l0.313-1.435c0.664,0.144,1.312,0.305,1.943,0.482L266.554,46.481z
				 M16.397,46.239l-1.866-0.599l0.451-1.398l1.863,0.6L16.397,46.239z M353.557,46.148c-0.515-0.382-1.038-0.751-1.569-1.11
				l0.82-1.218c0.55,0.371,1.092,0.753,1.623,1.148L353.557,46.148z M262.815,45.673l-1.009-0.147l0.061-0.463l-0.363-0.027
				l0.114-1.465l1.905,0.148l-0.167,1.28l-0.428-0.056L262.815,45.673z M304.881,45.233l-0.831-1.21
				c0.55-0.376,1.105-0.74,1.671-1.09l0.772,1.249C305.949,44.519,305.41,44.87,304.881,45.233z M12.667,45.041l-1.862-0.6
				l0.449-1.398l1.864,0.6L12.667,45.041z M259.552,44.883l-1.953-0.151l0.114-1.465l1.953,0.151L259.552,44.883z M255.648,44.582
				l-1.952-0.151l0.112-1.464l1.952,0.151L255.648,44.582z M251.743,44.279l-1.954-0.151l0.114-1.464l1.954,0.151L251.743,44.279z
				 M23.977,44.167l-1.457-0.191l0.255-1.942l1.457,0.191L23.977,44.167z M350.368,44.002c-0.546-0.333-1.101-0.653-1.662-0.962
				l0.704-1.287c0.583,0.318,1.157,0.65,1.723,0.995L350.368,44.002z M247.839,43.978l-1.952-0.151L246,42.362l1.952,0.151
				L247.839,43.978z M8.87,43.968l-1.455-0.191l0.249-1.889l1.726,0.555l-0.448,1.398l-0.052-0.016L8.87,43.968z M308.154,43.203
				l-0.717-1.281c0.579-0.324,1.167-0.635,1.764-0.932l0.655,1.313C309.281,42.591,308.713,42.89,308.154,43.203z M246.597,42.395
				l-1.221-0.816c0.36-0.538,0.71-1.081,1.05-1.626l1.248,0.778C247.324,41.288,246.967,41.843,246.597,42.395z M347,42.158
				c-0.573-0.281-1.153-0.548-1.741-0.805l0.584-1.346c0.608,0.264,1.21,0.541,1.805,0.832L347,42.158z M311.601,41.483
				l-0.596-1.342c0.606-0.27,1.223-0.525,1.844-0.767l0.53,1.369C312.78,40.976,312.188,41.223,311.601,41.483z M343.479,40.632
				c-0.597-0.227-1.201-0.441-1.812-0.644l0.459-1.394c0.632,0.208,1.257,0.43,1.877,0.665L343.479,40.632z M24.489,40.285
				l-1.457-0.192l0.257-1.939l1.457,0.192L24.489,40.285z M315.191,40.087l-0.468-1.392c0.628-0.211,1.262-0.408,1.901-0.591
				l0.403,1.411C316.411,39.692,315.798,39.883,315.191,40.087z M339.826,39.432c-0.615-0.171-1.238-0.328-1.865-0.471l0.329-1.431
				c0.648,0.148,1.292,0.311,1.93,0.488L339.826,39.432z M248.696,39.037l-1.268-0.742c0.329-0.563,0.647-1.125,0.954-1.687
				l1.288,0.706C249.358,37.886,249.032,38.462,248.696,39.037z M318.889,39.031l-0.335-1.43c0.644-0.151,1.292-0.289,1.946-0.413
				l0.272,1.444C320.14,38.751,319.512,38.884,318.889,39.031z M336.078,38.574c-0.628-0.114-1.261-0.212-1.9-0.298l0.193-1.455
				c0.661,0.087,1.317,0.19,1.968,0.308L336.078,38.574z M322.67,38.319l-0.206-1.452c0.654-0.094,1.314-0.172,1.979-0.233
				l0.137,1.462C323.938,38.156,323.301,38.23,322.67,38.319z M332.267,38.067c-0.639-0.056-1.277-0.097-1.922-0.124l0.063-1.467
				c0.665,0.027,1.327,0.071,1.985,0.128L332.267,38.067z M326.499,37.958l-0.073-1.467c0.661-0.032,1.324-0.049,1.991-0.051
				l0.003,1.469C327.776,37.909,327.135,37.926,326.499,37.958z M25.002,36.403l-1.457-0.192l0.255-1.942l1.457,0.193L25.002,36.403
				z M250.601,35.568l-1.305-0.673c0.302-0.584,0.592-1.164,0.871-1.736l1.319,0.645C251.204,34.385,250.908,34.974,250.601,35.568z
				 M156.233,34.455l-0.927-0.428l0.281-0.678l0.343-0.65l0.428,0.198l0.089-0.026c0.209-0.062,0.418-0.122,0.635-0.173l0.193-0.044
				l0.313,1.434l-0.169,0.039c-0.193,0.045-0.375,0.1-0.561,0.154L156.233,34.455z M159.459,33.749l-0.201-1.455
				c0.653-0.09,1.328-0.157,2.003-0.199l0.091,1.466C160.714,33.599,160.076,33.663,159.459,33.749z M165.17,33.576
				c-0.647-0.044-1.284-0.066-1.91-0.07l0.007-1.468c0.656,0.003,1.325,0.027,2.003,0.074L165.17,33.576z M153.52,33.273
				c-0.416-0.16-0.841-0.315-1.274-0.462c-0.188-0.069-0.365-0.133-0.545-0.195l0.482-1.388c0.189,0.066,0.374,0.132,0.554,0.199
				c0.436,0.149,0.877,0.31,1.311,0.477L153.52,33.273z M25.514,32.521l-1.457-0.193l0.257-1.941l1.456,0.193L25.514,32.521z
				 M149.874,32.035c-0.226-0.065-0.455-0.131-0.692-0.194c-0.382-0.105-0.771-0.202-1.163-0.292l0.331-1.43
				c0.413,0.094,0.818,0.197,1.219,0.305c0.241,0.066,0.481,0.132,0.714,0.2L149.874,32.035z M252.331,32.017l-1.334-0.612
				c0.276-0.604,0.541-1.198,0.79-1.775l1.348,0.583C252.88,30.8,252.613,31.402,252.331,32.017z M166.37,31.2l-1.457-0.191
				l0.255-1.942l1.457,0.191L166.37,31.2z M146.145,31.182c-0.382-0.062-0.766-0.116-1.155-0.166l-0.729-0.093l0.176-1.337
				l0.572,0.075l0.053-0.723l0.934,0.069l-0.088,0.653c0.159,0.024,0.315,0.048,0.472,0.073L146.145,31.182z M143.002,30.261
				l-1.952-0.141l0.105-1.465l1.953,0.142L143.002,30.261z M139.097,29.978l-1.953-0.141l0.106-1.464l1.951,0.141L139.097,29.978z
				 M135.191,29.696l-1.952-0.141l0.105-1.465l1.952,0.142L135.191,29.696z M131.286,29.413l-1.954-0.142l0.107-1.465l1.952,0.142
				L131.286,29.413z M127.379,29.13l-1.953-0.141l0.107-1.465l1.953,0.141L127.379,29.13z M123.474,28.847l-1.952-0.141l0.106-1.465
				l1.952,0.142L123.474,28.847z M26.01,28.571l-1.467-0.06l0.08-1.957l1.467,0.059L26.01,28.571z M119.568,28.564l-1.953-0.142
				l0.106-1.464l1.953,0.142L119.568,28.564z M253.9,28.393l-1.359-0.555c0.257-0.629,0.495-1.234,0.715-1.807l1.371,0.526
				C254.403,27.139,254.162,27.753,253.9,28.393z M115.663,28.282l-1.952-0.142l0.106-1.464l1.952,0.142L115.663,28.282z
				 M111.757,27.999l-1-0.072l-1.015-0.173l0.252-1.447l0.942,0.164l0.925,0.064L111.757,27.999z M107.814,27.417l-1.929-0.337
				l0.252-1.447l1.929,0.337L107.814,27.417z M166.88,27.317l-1.456-0.191l0.256-1.942l1.456,0.191L166.88,27.317z M103.956,26.745
				l-1.929-0.337l0.252-1.447l1.93,0.336L103.956,26.745z M100.098,26.072l-1.929-0.337l0.253-1.447l1.928,0.337L100.098,26.072z
				 M96.241,25.398l-1.929-0.336l0.252-1.448l1.929,0.336L96.241,25.398z M92.383,24.726l-1.928-0.336l0.252-1.447l1.929,0.336
				L92.383,24.726z M255.314,24.705l-1.383-0.498c0.248-0.687,0.46-1.304,0.637-1.835l1.394,0.464
				C255.781,23.377,255.566,24.004,255.314,24.705z M26.169,24.657l-1.467-0.059l0.079-1.956l1.467,0.059L26.169,24.657z
				 M88.526,24.052l-1.93-0.336l0.254-1.447l1.928,0.336L88.526,24.052z M194.147,23.611l-2.389-0.179l0.11-1.464l1.723,0.129
				l-0.038,0.502l0.745,0.132L194.147,23.611z M167.391,23.435l-1.455-0.192l0.255-1.94l1.456,0.191L167.391,23.435z M84.668,23.379
				l-1.93-0.335l0.252-1.447l1.929,0.335L84.668,23.379z M189.806,23.286l-1.951-0.147l0.108-1.464l1.953,0.146L189.806,23.286z
				 M67.294,23.122l0.043-1.12l0.688,0.026l-0.116-0.541c0.588-0.126,1.197-0.234,1.808-0.319l0.202,1.455
				c-0.576,0.081-1.149,0.181-1.7,0.3L67.294,23.122z M185.901,22.993l-1.952-0.146l0.11-1.464l1.952,0.146L185.901,22.993z
				 M80.81,22.707l-1.928-0.336l0.252-1.448l1.929,0.336L80.81,22.707z M181.995,22.701l-1.952-0.147l0.112-1.465l1.951,0.147
				L181.995,22.701z M76.502,22.517l-0.868-0.065l0.046-0.745l-0.542-0.072l0.185-1.376l1.88,0.328l-0.251,1.447l-0.377-0.066
				L76.502,22.517z M71.813,22.433l-0.095-1.464c0.601-0.038,1.212-0.058,1.834-0.058h0.171v1.468h-0.171
				C72.962,22.378,72.382,22.396,71.813,22.433z M178.091,22.407l-1.952-0.146l0.11-1.464l1.953,0.146L178.091,22.407z
				 M174.187,22.114l-1.953-0.146l0.11-1.465l1.952,0.146L174.187,22.114z M170.281,21.822l-1.952-0.146l0.11-1.466l1.952,0.147
				L170.281,21.822z M256.562,20.953l-1.403-0.432l0.574-1.873l1.404,0.432L256.562,20.953z M194.69,20.859l-1.426-0.348
				c0.163-0.668,0.347-1.32,0.547-1.936l1.396,0.454C195.018,19.61,194.844,20.227,194.69,20.859z M26.33,20.745l-1.467-0.06
				l0.078-1.956l1.467,0.06L26.33,20.745z M68.877,20.1l-1.467-0.055l0.075-1.957l1.468,0.056L68.877,20.1z M195.862,17.243
				l-1.356-0.56c0.258-0.627,0.54-1.243,0.837-1.831l1.31,0.664C196.372,16.071,196.105,16.651,195.862,17.243z M257.713,17.21
				l-1.405-0.432l0.576-1.872l1.402,0.432L257.713,17.21z M26.487,16.832l-1.467-0.059l0.08-1.957l1.467,0.06L26.487,16.832z
				 M69.024,16.188l-1.467-0.056l0.074-1.957l1.468,0.056L69.024,16.188z M197.58,13.86l-1.252-0.768
				c0.354-0.577,0.734-1.139,1.13-1.673l1.181,0.872C198.269,12.792,197.911,13.32,197.58,13.86z M258.861,13.467l-1.403-0.432
				l0.463-1.503l0.332,0.103l0.274-0.71l0.998,0.386L258.861,13.467z M26.646,12.919l-1.467-0.059l0.078-1.957l1.467,0.06
				L26.646,12.919z M69.171,12.274l-1.469-0.056l0.076-1.957l1.467,0.056L69.171,12.274z M256.171,11.585l-1.824-0.708l0.531-1.369
				l1.825,0.709L256.171,11.585z M199.828,10.819l-1.103-0.972c0.442-0.502,0.914-0.993,1.403-1.456l1.012,1.065
				C200.683,9.891,200.242,10.349,199.828,10.819z M252.521,10.168l-1.826-0.708l0.532-1.369l1.824,0.708L252.521,10.168z
				 M26.806,9.007l-1.467-0.059l0.078-1.958l1.467,0.059L26.806,9.007z M68.502,8.838l-1.721-0.214l0.181-1.457l2.391,0.297
				l-0.034,0.898l-0.753-0.03L68.502,8.838z M248.874,8.754c-0.388-0.147-1.01-0.376-1.827-0.666l0.486-1.385
				c0.832,0.293,1.465,0.527,1.86,0.677L248.874,8.754z M64.837,8.383l-1.942-0.242l0.181-1.458l1.943,0.243L64.837,8.383z
				 M202.568,8.214l-0.915-1.149c0.523-0.417,1.074-0.816,1.635-1.189l0.812,1.224C203.575,7.448,203.061,7.823,202.568,8.214z
				 M60.953,7.899L59.01,7.658l0.18-1.457l1.942,0.241L60.953,7.899z M245.203,7.463c-0.57-0.188-1.19-0.386-1.854-0.59l0.433-1.404
				c0.674,0.208,1.304,0.41,1.882,0.6L245.203,7.463z M57.066,7.417l-1.943-0.241l0.182-1.457l1.94,0.241L57.066,7.417z
				 M53.179,6.934l-1.942-0.243l0.183-1.457l1.941,0.242L53.179,6.934z M49.293,6.451l-1.942-0.241l0.18-1.458l1.945,0.242
				L49.293,6.451z M241.482,6.312c-0.601-0.175-1.225-0.352-1.873-0.528l0.385-1.417c0.656,0.178,1.292,0.357,1.899,0.534
				L241.482,6.312z M205.722,6.115l-0.708-1.287c0.576-0.317,1.178-0.618,1.791-0.895l0.641,1.321l-0.01,0.005
				C206.832,5.532,206.265,5.815,205.722,6.115z M45.408,5.967l-1.942-0.241l0.18-1.457L45.59,4.51L45.408,5.967z M41.522,5.484
				l-1.944-0.241l0.181-1.457l1.942,0.241L41.522,5.484z M237.725,5.292c-0.613-0.156-1.245-0.309-1.89-0.458l0.331-1.431
				c0.653,0.151,1.295,0.306,1.92,0.464L237.725,5.292z M26.963,5.095l-1.467-0.06l0.08-1.956l1.467,0.059L26.963,5.095z
				 M37.637,5.001L35.693,4.76l0.181-1.457l1.943,0.242L37.637,5.001z M209.182,4.557l-0.494-1.382
				c0.613-0.22,1.259-0.423,1.919-0.605l0.39,1.415C210.372,4.158,209.762,4.35,209.182,4.557z M33.75,4.519l-1.942-0.242
				l0.181-1.457l1.944,0.242L33.75,4.519z M233.937,4.415c-0.627-0.132-1.262-0.259-1.906-0.38l0.271-1.443
				c0.653,0.123,1.301,0.252,1.938,0.386L233.937,4.415z M29.864,4.036l-1.945-0.242l0.183-1.457l1.944,0.242L29.864,4.036z
				 M230.117,3.697c-0.635-0.104-1.274-0.201-1.919-0.29l0.201-1.455c0.655,0.091,1.309,0.189,1.955,0.296L230.117,3.697z
				 M212.854,3.538L212.556,2.1c0.643-0.133,1.301-0.247,1.972-0.344l0.211,1.453C214.094,3.301,213.467,3.411,212.854,3.538z
				 M226.275,3.171c-0.642-0.07-1.285-0.13-1.929-0.18l0.115-1.465c0.656,0.052,1.315,0.114,1.973,0.186L226.275,3.171z
				 M216.643,2.988l-0.13-1.463c0.649-0.058,1.312-0.101,1.988-0.128l0.06,1.467C217.911,2.89,217.271,2.931,216.643,2.988z
				 M222.415,2.875c-0.646-0.026-1.289-0.043-1.93-0.046l0.006-1.468c0.659,0.003,1.322,0.019,1.986,0.048L222.415,2.875z"/>
		</g>
		<g>
			<path fill="#FFFFFF" d="M319.058,57.581l7.266,0.236l13.899,1.868l-5.61,41.732l-14.991-2.015l4.275-31.799l-4.94,0.929
				L319.058,57.581z"/>
		</g>
	</g>
</g>
<g>
	<g>
		<path fill="#F05569" d="M86.37,132.804c-0.202-16.559-22.169-7.915-27.87-5.043l-0.02,5.222l-0.021,5.218
			C64.135,141.121,86.583,150.068,86.37,132.804z"/>
		<path fill="#F05569" d="M69.22,157.623c-8.823,6.58-16.242-9.342-17.508-14.428l3.046-2.861l3.045-2.856
			C62.445,139.386,80.904,148.912,69.22,157.623z"/>
		<path fill="#F05569" d="M25.185,137.765c0.91,10.971,17.755,5.99,22.404,3.57l0.127-4.177l0.127-4.173
			C43.338,130.771,23.978,123.242,25.185,137.765z"/>
		<path fill="#F05569" d="M32.432,108.481c12.545-10.809,20.609,11.376,22.231,17.55l-3.9,3.473l-3.898,3.469
			C40.921,130.652,19.353,119.751,32.432,108.481z"/>
	</g>
	<g>
		<path fill="#FFCB05" d="M57.212,136.632l0.015-3.782l0.014-3.786c4.134-2.082,20.058-8.346,20.204,3.657
			C77.598,145.236,61.328,138.749,57.212,136.632z M56.047,137.49l-2.206,2.072l-2.21,2.074c0.917,3.688,6.738,15.645,13.136,10.875
			C73.236,146.197,59.412,138.875,56.047,137.49z M31.964,137.719c0.661,7.953,13.476,4.399,16.847,2.646l0.092-3.029l0.091-3.025
			C45.729,132.705,31.09,127.191,31.964,137.719z M48.867,132.869l2.824-2.515l2.828-2.517c-1.175-4.476-7.021-20.558-16.116-12.722
			C28.921,123.286,44.557,131.186,48.867,132.869z"/>
		<g>
			<circle fill="#FFFFFF" cx="61.072" cy="150.138" r="0.893"/>
			<path fill="#FFFFFF" d="M55.423,147.59c0.202-0.448,0.002-0.979-0.447-1.181c-0.432-0.195-0.932-0.017-1.151,0.394
				c0.244,0.438,0.506,0.878,0.782,1.312C54.948,148.115,55.273,147.921,55.423,147.59z"/>
			<circle fill="#FFFFFF" cx="57.523" cy="140.761" r="0.894"/>
			<path fill="#FFFFFF" d="M66.575,148.732c0.178-0.395,0.047-0.849-0.29-1.092c-0.049-0.035-0.103-0.066-0.157-0.091
				c-0.056-0.024-0.113-0.044-0.172-0.058c-0.405-0.092-0.832,0.111-1.011,0.506c-0.202,0.449-0.002,0.979,0.447,1.182
				C65.841,149.381,66.373,149.181,66.575,148.732z"/>
			<path fill="#FFFFFF" d="M71.042,136.648c0.449,0.203,0.979,0.004,1.182-0.445c0.178-0.394,0.047-0.849-0.289-1.092
				c-0.049-0.034-0.103-0.065-0.158-0.091c-0.055-0.024-0.113-0.044-0.172-0.058c-0.405-0.092-0.832,0.112-1.01,0.505
				C70.392,135.917,70.592,136.446,71.042,136.648z"/>
			<path fill="#FFFFFF" d="M74.691,128.557c-0.055-0.024-0.112-0.044-0.171-0.058c-0.405-0.091-0.832,0.111-1.011,0.506
				c-0.202,0.448-0.002,0.979,0.447,1.182c0.449,0.202,0.98,0.001,1.183-0.447c0.177-0.394,0.047-0.848-0.289-1.092
				C74.8,128.613,74.747,128.583,74.691,128.557z"/>
			<path fill="#FFFFFF" d="M59.664,144.635c-0.057-0.026-0.114-0.045-0.172-0.058c-0.404-0.092-0.832,0.11-1.01,0.505
				c-0.203,0.449-0.002,0.979,0.447,1.183c0.449,0.201,0.979,0.002,1.182-0.447c0.179-0.396,0.047-0.85-0.289-1.092
				C59.773,144.691,59.72,144.66,59.664,144.635z"/>
			<circle fill="#FFFFFF" cx="66.721" cy="137.609" r="0.893"/>
			<path fill="#FFFFFF" d="M67.046,126.09c-0.202,0.448-0.002,0.979,0.447,1.182s0.979,0.002,1.182-0.447
				c0.178-0.394,0.047-0.848-0.289-1.091c-0.038-0.027-0.081-0.05-0.123-0.071c-0.328,0.034-0.658,0.075-0.99,0.126
				C67.181,125.871,67.101,125.97,67.046,126.09z"/>
			<circle fill="#FFFFFF" cx="63.986" cy="143.675" r="0.893"/>
			<path fill="#FFFFFF" d="M65.471,132.197c-0.049-0.035-0.101-0.066-0.156-0.091c-0.059-0.026-0.115-0.044-0.174-0.058
				c-0.404-0.092-0.832,0.111-1.009,0.504c-0.203,0.451-0.002,0.979,0.447,1.182c0.449,0.203,0.979,0.004,1.182-0.446
				C65.939,132.894,65.807,132.439,65.471,132.197z"/>
			<circle fill="#FFFFFF" cx="69.635" cy="131.146" r="0.893"/>
			<circle fill="#FFFFFF" cx="63.173" cy="128.232" r="0.894"/>
			<circle fill="#FFFFFF" cx="60.258" cy="134.695" r="0.894"/>
			<circle fill="#FFFFFF" cx="76.099" cy="134.061" r="0.894"/>
			<path fill="#FFFFFF" d="M46.48,123.632c-0.049-0.034-0.102-0.064-0.158-0.091c-0.056-0.024-0.113-0.044-0.17-0.057
				c-0.405-0.092-0.834,0.11-1.012,0.503c-0.203,0.451-0.001,0.98,0.447,1.182c0.45,0.203,0.979,0.004,1.182-0.446
				C46.947,124.331,46.816,123.875,46.48,123.632z"/>
			<circle fill="#FFFFFF" cx="44.181" cy="119.667" r="0.893"/>
			<path fill="#FFFFFF" d="M49.394,117.169c-0.048-0.035-0.102-0.065-0.157-0.091c-0.057-0.025-0.114-0.044-0.17-0.057
				c-0.407-0.092-0.835,0.11-1.012,0.504c-0.203,0.448-0.002,0.979,0.447,1.183c0.449,0.202,0.979,0.001,1.182-0.447
				C49.862,117.867,49.73,117.413,49.394,117.169z"/>
			<circle fill="#FFFFFF" cx="35.617" cy="138.66" r="0.893"/>
			<path fill="#FFFFFF" d="M42.894,141.941c0.202-0.449,0.001-0.979-0.447-1.182c-0.448-0.202-0.979-0.002-1.182,0.447
				s-0.002,0.979,0.447,1.182c0.051,0.023,0.104,0.039,0.157,0.053c0.231-0.036,0.463-0.074,0.691-0.115
				C42.701,142.235,42.82,142.105,42.894,141.941z"/>
			<circle fill="#FFFFFF" cx="41.267" cy="126.13" r="0.894"/>
			<circle fill="#FFFFFF" cx="47.729" cy="129.044" r="0.893"/>
			<path fill="#FFFFFF" d="M37.717,131.83c-0.202,0.449-0.003,0.979,0.446,1.182c0.45,0.203,0.979,0.002,1.181-0.447
				c0.179-0.393,0.049-0.846-0.286-1.089c-0.335-0.025-0.665-0.04-0.991-0.042C37.918,131.523,37.794,131.659,37.717,131.83z"/>
			<path fill="#FFFFFF" d="M42.774,114.165c-0.056-0.026-0.113-0.045-0.171-0.058c-0.406-0.092-0.833,0.111-1.011,0.504
				c-0.202,0.449-0.003,0.98,0.447,1.184c0.448,0.202,0.979,0.001,1.182-0.448c0.177-0.394,0.046-0.849-0.291-1.091
				C42.883,114.22,42.831,114.189,42.774,114.165z"/>
			<path fill="#FFFFFF" d="M39.125,122.256c0.45,0.202,0.979,0.003,1.181-0.448c0.178-0.393,0.047-0.848-0.289-1.09
				c-0.049-0.035-0.102-0.065-0.157-0.091c-0.056-0.024-0.114-0.044-0.171-0.058c-0.407-0.092-0.834,0.111-1.011,0.504
				C38.475,121.525,38.675,122.053,39.125,122.256z"/>
			<path fill="#FFFFFF" d="M38.532,117.121c0.203-0.451,0.003-0.979-0.446-1.182c-0.159-0.072-0.327-0.092-0.488-0.068
				c-0.289,0.295-0.544,0.59-0.771,0.885c0.001,0.34,0.194,0.664,0.524,0.812C37.8,117.771,38.33,117.57,38.532,117.121z"/>
			<path fill="#FFFFFF" d="M34.657,134.338c0.178-0.395,0.046-0.849-0.29-1.091c-0.049-0.035-0.101-0.065-0.156-0.091
				s-0.115-0.044-0.173-0.058c-0.405-0.092-0.833,0.111-1.01,0.505c-0.202,0.449-0.003,0.979,0.447,1.183
				C33.924,134.989,34.454,134.788,34.657,134.338z"/>
			<circle fill="#FFFFFF" cx="44.994" cy="135.111" r="0.893"/>
			<circle fill="#FFFFFF" cx="50.644" cy="122.582" r="0.893"/>
			<path fill="#FFFFFF" d="M40.672,136.071c-0.057-0.024-0.114-0.044-0.17-0.058c-0.406-0.091-0.834,0.11-1.012,0.506
				c-0.203,0.448-0.003,0.979,0.447,1.182c0.449,0.202,0.979,0.002,1.182-0.448c0.179-0.394,0.047-0.849-0.29-1.091
				C40.782,136.126,40.729,136.096,40.672,136.071z"/>
		</g>
	</g>
	<path fill="#FCAF17" d="M58.2,138.316c-4.661,10.336-9.264,13.821-12.368,12.422c-3.106-1.401-3.541-7.158,1.12-17.494
		c4.66-10.334,10.957-17.578,14.062-16.178S62.86,127.982,58.2,138.316z"/>
	<g>
		<path fill="#FFCB05" d="M47.399,132.271c-0.149,0.321-0.3,0.645-0.447,0.973c-0.237,0.524-0.456,1.033-0.666,1.533
			c1.767,0.881,3.62,1.764,5.555,2.633c1.933,0.875,3.821,1.68,5.651,2.422c0.235-0.489,0.472-0.991,0.708-1.516
			c0.147-0.328,0.292-0.654,0.432-0.98c-1.815-0.788-3.7-1.619-5.634-2.496C51.063,133.971,49.194,133.11,47.399,132.271z"/>
		<path fill="#FFCB05" d="M60.33,132.994c0.312-0.894,0.596-1.768,0.851-2.621c-1.66-0.723-3.378-1.482-5.139-2.281
			c-1.762-0.791-3.469-1.574-5.108-2.34c-0.473,0.755-0.941,1.546-1.402,2.372c1.7,0.849,3.486,1.7,5.352,2.538
			C56.747,131.505,58.569,132.281,60.33,132.994z"/>
		<path fill="#FFCB05" d="M44.666,139.164c-0.302,0.965-0.54,1.869-0.724,2.715c1.559,0.762,3.178,1.525,4.854,2.278
			c1.676,0.76,3.321,1.468,4.927,2.132c0.51-0.697,1.029-1.477,1.554-2.34c-1.725-0.751-3.502-1.536-5.321-2.361
			C48.134,140.77,46.369,139.958,44.666,139.164z"/>
	</g>
	<g>
		<g>
			<circle fill="#F05569" cx="62.781" cy="98.816" r="1.405"/>
			<g>
				<path fill="#F05569" d="M63.375,105.395c0.817-2.336,0.536-4.363-0.862-6.204l0.64-0.485c1.574,2.07,1.895,4.345,0.979,6.955
					L63.375,105.395z"/>
			</g>
		</g>
		<g>
			<circle fill="#F05569" cx="73.523" cy="103.66" r="1.404"/>
			<g>
				<path fill="#F05569" d="M68.199,107.571c1.208-2.159,2.915-3.291,5.221-3.461l-0.058-0.799
					c-2.596,0.188-4.514,1.454-5.863,3.868L68.199,107.571z"/>
			</g>
		</g>
	</g>
	<g>
		<circle fill="#FFCB05" cx="62.432" cy="113.919" r="10.596"/>
	</g>
	<g>
		<g>
			<circle fill="#F05569" cx="56.094" cy="112.616" r="1.931"/>
			<circle fill="#F05569" cx="67.607" cy="117.809" r="1.931"/>
		</g>
		<g>
			<g>
				<path fill="#231F20" d="M68.737,113.103c0.808,0.364,1.412,1.062,1.659,1.913l-0.58,0.169c-0.197-0.682-0.683-1.24-1.327-1.531
					c-0.647-0.291-1.386-0.285-2.027,0.018l-0.257-0.546C67.005,112.748,67.929,112.74,68.737,113.103z"/>
			</g>
			<g>
				<path fill="#231F20" d="M58.873,108.655c0.808,0.364,1.413,1.062,1.66,1.913l-0.579,0.169c-0.198-0.682-0.683-1.239-1.33-1.531
					c-0.646-0.291-1.386-0.285-2.027,0.018l-0.256-0.546C57.139,108.297,58.065,108.292,58.873,108.655z"/>
			</g>
		</g>
		<g>
			<path fill="#231F20" d="M60.06,119.185c-0.957-0.432-1.779-1.158-2.327-2.121l0.522-0.299c0.967,1.695,2.899,2.566,4.811,2.17
				l0.122,0.589C62.104,119.75,61.015,119.617,60.06,119.185z"/>
		</g>
		<circle fill="#F05569" cx="61.883" cy="115.139" r="1.218"/>
	</g>
</g>
</svg>
