<?xml version="1.0" encoding="utf-8"?>
<!-- Generator: Adobe Illustrator 16.0.0, SVG Export Plug-In . SVG Version: 6.00 Build 0)  -->
<!DOCTYPE svg PUBLIC "-//W3C//DTD SVG 1.1//EN" "http://www.w3.org/Graphics/SVG/1.1/DTD/svg11.dtd">
<svg version="1.1" xmlns="http://www.w3.org/2000/svg" xmlns:xlink="http://www.w3.org/1999/xlink" x="0px" y="0px" width="162px"
	 height="81px" viewBox="0 0 162 81" enable-background="new 0 0 162 81" xml:space="preserve">
<g id="back">
</g>
<g id="front">
	<g>
		<path fill="#FFFFFF" d="M12.745,48.956c-5.107,0.233-10.752-0.722-11.287-5.698c-0.367-3.414,1.357-7.784,10.58-8.14
			c-5.283-1.181-11.137-4.36-9.061-10.603c1.73-5.206,8.662-4.502,13.186-1.288c-3.232-2.272-7.334-9.617-2.448-13.393
			c5.597-4.323,9.898,0.828,12.069,4.511C23.231,9.289,26.098,2.359,31.12,1.566c4.451-0.697,8.656,2.666,9.08,9.894
			c1.189-6.855,4.76-10.313,9.215-9.62c5.02,0.782,6.695,7.93,4.82,13.006c2.251-4.42,7.506-9.095,12.629-5.191
			c4.617,3.521,0.838,10.714-2.389,12.996c4.517-3.223,10.876-3.395,12.991,1.67c2.345,5.616-2.961,10.062-7.976,10.571
			c8.088,0.542,10.41,4.773,10.419,8.191c0.014,5.256-6.649,7.464-11.753,7.237c5.6,1.591,9.552,6.863,6.35,12.094
			c-2.866,4.678-9.399,3.282-12.983-0.952c3.704,3.802,4.674,11.354,0.338,13.9c-6.234,3.658-10.98-2.31-12.603-7.22
			c1.03,5.653-2.165,11.601-7.57,11.375c-5.944-0.248-7.514-5.729-7.115-12.115c-1.263,7.323-7.62,9.335-11.827,7.703
			c-3.602-1.395-5.533-7.193-2.184-14.305c-2.113,3.008-10.281,6.989-14.07,0.67C3.506,56.488,9.004,50.237,12.745,48.956z"/>
		<path fill="#26A995" d="M24.793,15.595c9.814-6.248,30.447-5.222,40.147,8.836c8.096,11.729,5.252,30.727-4.847,38.84
			c-14.362,11.535-35.38,3.868-43.245-5.892C8.974,47.6,8.977,25.664,24.793,15.595z"/>
		<path fill="#E5E657" d="M38.625,64.293c-7.204-1.124-14.591-5.021-18.366-9.688c-3.472-4.303-4.976-11.586-3.83-18.56
			c1.175-7.151,4.979-13.094,10.714-16.734c4.071-2.582,10.546-3.572,16.901-2.584c4.3,0.673,12.271,2.892,17.344,10.224
			c6.553,9.465,4.546,26.065-3.975,32.887C51.034,64.95,43.674,65.081,38.625,64.293L38.625,64.293z"/>
		<path fill="#EF5475" d="M38.895,61.107c-6.227-0.97-12.603-4.347-15.863-8.393c-2.99-3.717-4.288-10.025-3.298-16.067
			c1.023-6.194,4.304-11.34,9.261-14.499c3.521-2.232,9.111-3.093,14.595-2.241c3.716,0.581,10.604,2.505,14.977,8.849
			c5.653,8.192,3.923,22.567-3.446,28.485C49.613,61.671,43.254,61.79,38.895,61.107L38.895,61.107z"/>
		<path fill="#E5E657" d="M44.757,51.555c-1.991-1.071-5.193-1.146-7.111-0.163l-3.224,1.656c-1.913,0.987-3.244,0.016-2.957-2.158
			l0.483-3.659c0.288-2.172-0.825-5.247-2.476-6.835l-2.782-2.675c-1.656-1.592-1.223-3.106,0.966-3.362l3.685-0.433
			c2.19-0.255,4.728-2.063,5.64-4.016l1.539-3.285c0.917-1.948,2.534-1.899,3.593,0.11l1.777,3.38
			c1.054,2.006,3.726,3.956,5.938,4.335l3.722,0.639c2.212,0.378,2.753,1.903,1.208,3.395l-2.598,2.511
			c-1.54,1.495-2.436,4.5-1.992,6.679l0.745,3.666c0.442,2.177-0.821,3.085-2.809,2.018L44.757,51.555z"/>
	</g>
	<g>
		<path fill="#214F46" d="M94.077,48.956c-5.107,0.233-10.752-0.722-11.287-5.698c-0.367-3.414,1.357-7.784,10.58-8.14
			c-5.283-1.181-11.137-4.36-9.061-10.603c1.73-5.206,8.662-4.502,13.186-1.288c-3.232-2.272-7.334-9.617-2.448-13.393
			c5.597-4.323,9.898,0.828,12.069,4.511c-2.553-5.057,0.314-11.986,5.336-12.779c4.451-0.697,8.656,2.666,9.08,9.894
			c1.189-6.855,4.76-10.313,9.215-9.62c5.02,0.782,6.695,7.93,4.82,13.006c2.251-4.42,7.506-9.095,12.63-5.191
			c4.617,3.521,0.838,10.714-2.389,12.996c4.517-3.223,10.876-3.395,12.991,1.67c2.345,5.616-2.961,10.062-7.976,10.571
			c8.088,0.542,10.41,4.773,10.419,8.191c0.014,5.256-6.649,7.464-11.753,7.237c5.6,1.591,9.552,6.863,6.35,12.094
			c-2.866,4.678-9.399,3.282-12.983-0.952c3.704,3.802,4.675,11.354,0.338,13.9c-6.234,3.658-10.98-2.31-12.603-7.22
			c1.03,5.653-2.165,11.601-7.57,11.375c-5.944-0.248-7.514-5.729-7.115-12.115c-1.263,7.323-7.62,9.335-11.827,7.703
			c-3.602-1.395-5.533-7.193-2.184-14.305c-2.113,3.008-10.281,6.989-14.07,0.67C84.839,56.488,90.337,50.237,94.077,48.956z"/>
		<path fill="#226A5C" d="M106.126,15.595c9.814-6.248,30.447-5.222,40.147,8.836c8.096,11.729,5.252,30.727-4.848,38.84
			c-14.362,11.535-35.38,3.868-43.245-5.892C90.307,47.6,90.31,25.664,106.126,15.595z"/>
		<path fill="#2D8D7B" d="M119.957,64.293c-7.204-1.124-14.591-5.021-18.366-9.688c-3.472-4.303-4.976-11.586-3.83-18.56
			c1.175-7.151,4.979-13.094,10.714-16.734c4.071-2.582,10.546-3.572,16.901-2.584c4.3,0.673,12.271,2.892,17.344,10.224
			c6.554,9.465,4.547,26.065-3.975,32.887C132.366,64.95,125.007,65.081,119.957,64.293L119.957,64.293z"/>
		<path fill="#35A38E" d="M120.228,61.107c-6.227-0.97-12.603-4.347-15.863-8.393c-2.99-3.717-4.288-10.025-3.298-16.067
			c1.023-6.194,4.304-11.34,9.261-14.499c3.521-2.232,9.111-3.093,14.595-2.241c3.716,0.581,10.604,2.505,14.977,8.849
			c5.653,8.192,3.923,22.567-3.446,28.485C130.945,61.671,124.587,61.79,120.228,61.107L120.228,61.107z"/>
		<path fill="#226A5C" d="M126.09,51.555c-1.991-1.071-5.193-1.146-7.111-0.163l-3.224,1.656c-1.913,0.987-3.244,0.016-2.957-2.158
			l0.483-3.659c0.288-2.172-0.825-5.247-2.476-6.835l-2.782-2.675c-1.656-1.592-1.223-3.106,0.966-3.362l3.685-0.433
			c2.19-0.255,4.728-2.063,5.64-4.016l1.539-3.285c0.917-1.948,2.534-1.899,3.593,0.11l1.777,3.38
			c1.054,2.006,3.726,3.956,5.938,4.335l3.722,0.639c2.212,0.378,2.753,1.903,1.208,3.395l-2.598,2.511
			c-1.54,1.495-2.436,4.5-1.992,6.679l0.745,3.666c0.442,2.177-0.821,3.085-2.809,2.018L126.09,51.555z"/>
	</g>
</g>
</svg>
