<svg xmlns="http://www.w3.org/2000/svg" xmlns:xlink="http://www.w3.org/1999/xlink" version="1.1" id="Layer_1" x="0px" y="0px" width="180px" height="180px" viewBox="0 0 180 180" enable-background="new 0 0 180 180" xml:space="preserve">
<g id="sun_x5F_out">
	<polygon fill="#FFCB05" points="180,90 152,98.3 176.8,113.8 147.6,114.4 167.7,135.5 139.5,128.3 153.6,153.8 128.2,139.7 135.4,167.9 114.3,147.8 113.7,177 98.3,152.1 90,180.2 81.7,152.1 66.3,177 65.7,147.8 44.6,167.9 51.8,139.7 26.4,153.8 40.5,128.3 12.3,135.5 32.4,114.4 3.2,113.8 28,98.3 0,90 28,81.7 3.2,66.3 32.4,65.6 12.3,44.5 40.5,51.7 26.4,26.2 51.8,40.3 44.6,12.1 65.7,32.2 66.3,3 81.7,27.9 90,-0.2 98.3,27.9 113.7,3 114.3,32.2 135.4,12.1 128.2,40.3 153.6,26.2 139.5,51.7 167.7,44.5 147.6,65.6 176.8,66.2 152,81.7"/>
	<animateTransform attributeName="transform"
	            begin="0s" dur="100s"
	            type="rotate"
	            from="0 90 90" to="360 90 90"
	            repeatCount="indefinite" 
				/>
</g>
<g id="sun_x5F_middle">
	<path fill="#F7941E" d="M83.899 148.646c-5.379-0.555-9.398-5.027-9.539-10.299c-3.195 4.191-9.079 5.449-13.754 2.7 c-4.672-2.707-6.521-8.432-4.508-13.297c-4.614 2.523-10.489 1.285-13.665-3.08c-3.181-4.377-2.557-10.363 1.256-13.992 c-5.246 0.418-10.115-3.113-11.24-8.41c-1.121-5.291 1.886-10.498 6.831-12.251c-4.952-1.747-7.966-6.946-6.86-12.238 c1.113-5.298 5.975-8.842 11.226-8.43c-3.824-3.623-4.465-9.609-1.288-13.991c3.167-4.376 9.035-5.625 13.654-3.118 c-2.026-4.859-0.191-10.59 4.48-13.302c4.669-2.721 10.544-1.471 13.8 2.705c0.126-5.27 4.138-9.751 9.51-10.319 c5.362-0.569 10.2 3 11.5 8.082c2.247-4.767 7.725-7.238 12.862-5.576c5.146 1.7 8.1 6.9 7.2 12.1 c3.987-3.437 9.999-3.451 14 0.164c4.008 3.6 4.6 9.6 1.7 13.935c5.042-1.512 10.5 0.9 12.7 5.8 c2.213 4.9 0.4 10.674-4.124 13.43c5.193 0.7 9.2 5.1 9.3 10.49c0 0.1 0 0.1 0 0.2 c0 5.405-4.019 9.87-9.233 10.559c4.492 2.8 6.4 8.5 4.2 13.426c-2.198 4.941-7.69 7.379-12.735 5.9 c2.982 4.3 2.4 10.326-1.646 13.949c-4.009 3.621-10.012 3.613-14.009 0.191c0.971 5.184-2.027 10.404-7.165 12.1 c-5.14 1.676-10.624-0.781-12.885-5.539c-1.134 4.766-5.406 8.168-10.319 8.168C84.634 148.7 84.3 148.7 83.9 148.646z M86.082 127.453c3.821 0.4 7 2.8 8.5 6.008c0.845-3.48 3.41-6.455 7.053-7.641c3.643-1.188 7.461-0.293 10.2 2 c-0.652-3.523 0.48-7.287 3.329-9.865c2.856-2.57 6.712-3.316 10.141-2.301c-2.019-2.955-2.5-6.861-0.94-10.371 c1.558-3.502 4.769-5.744 8.305-6.221c-3.041-1.875-5.073-5.24-5.073-9.083c0-0.023 0-0.044 0-0.063 c-0.008-3.879 2.013-7.247 5.05-9.128c-3.534-0.468-6.751-2.705-8.318-6.207c-1.572-3.501-1.099-7.407 0.916-10.362 c-3.432 1.017-7.287 0.284-10.144-2.28c-2.855-2.57-3.995-6.334-3.358-9.858c-2.707 2.323-6.526 3.224-10.171 2 c-3.65-1.179-6.229-4.148-7.07-7.62c-1.54 3.231-4.67 5.617-8.492 6.022c-3.806 0.405-7.354-1.255-9.531-4.091 c-0.098 3.572-1.983 7.017-5.292 8.942c-3.317 1.932-7.244 1.86-10.39 0.164c1.367 3.3 1 7.236-1.22 10.3 c-2.246 3.111-5.859 4.637-9.418 4.367c2.586 2.5 3.9 6.2 3.1 9.923c-0.787 3.764-3.473 6.64-6.84 7.8 c3.373 1.2 6.1 4.1 6.9 7.826c0.801 3.75-0.481 7.463-3.061 9.928c3.559-0.275 7.2 1.2 9.4 4.3 c2.262 3.1 2.6 7 1.2 10.348c3.146-1.711 7.072-1.789 10.4 0.137c3.317 1.9 5.2 5.4 5.3 8.9 c1.963-2.564 5.038-4.176 8.427-4.176C85.339 127.4 85.7 127.4 86.1 127.453z"/>
	<animateTransform attributeName="transform"
	            begin="0s" dur="120s"
	            type="rotate"
	            from="360 90 90" to="0 90 90"
	            repeatCount="indefinite" 
				/>
</g>
<g id="sun_x5F_face">
	<g>
		<ellipse fill="#FFCB05" cx="90" cy="90" rx="48.2" ry="48.3"/>
	</g>
	<g>
		<g>
			<path fill="#F7941E" d="M69.98 94.834c0 4.852-3.932 8.785-8.774 8.785c-4.842 0-8.766-3.934-8.766-8.785 c0-4.855 3.924-8.789 8.766-8.789C66.049 86 70 90 70 94.834z"/>
			<path fill="#F7941E" d="M127.344 94.834c0 4.852-3.927 8.785-8.773 8.785c-4.84 0-8.768-3.934-8.768-8.785 c0-4.855 3.928-8.789 8.768-8.789C123.417 86 127.3 90 127.3 94.834z"/>
		</g>
		<g>
			<g>
				<path fill="#231F20" d="M114.464 73.917c4.021 0 7.8 1.8 10.4 4.832l-2.083 1.78c-2.092-2.454-5.14-3.862-8.359-3.862 c-3.219 0-6.27 1.408-8.36 3.862l-2.085-1.78C106.635 75.7 110.4 73.9 114.5 73.917z"/>
			</g>
			<g>
				<path fill="#231F20" d="M65.32 73.917c4.024 0 7.8 1.8 10.4 4.832l-2.083 1.78c-2.093-2.454-5.139-3.862-8.361-3.862 c-3.22 0-6.268 1.408-8.361 3.862l-2.082-1.78C57.488 75.7 61.3 73.9 65.3 73.917z"/>
			</g>
		</g>
		<g>
			<path fill="#231F20" d="M89.893 114.666c-4.764 0-9.526-1.479-13.59-4.441l1.606-2.219c7.169 5.2 16.8 5.2 24 0 l1.609 2.219C99.415 113.2 94.7 114.7 89.9 114.666z"/>
		</g>
	</g>
</g>
</svg>
